SplineFontDB: 3.0
FontName: Parastoo
FullName: Parastoo
FamilyName: Parastoo
Weight: Regular
Copyright: Copyright (c) 2016 by Saber Rastikerdar. All Rights Reserved.\nBased on DejaVu font.\nNon-Arabic(Latin) glyphs and data are imported from Lora font under the Open Font License.
Version: 1.0.0-alpha4
ItalicAngle: 0
UnderlinePosition: -500
UnderlineWidth: 100
Ascent: 1638
Descent: 410
InvalidEm: 0
LayerCount: 2
Layer: 0 1 "Back" 1
Layer: 1 1 "Fore" 0
XUID: [1021 502 1027637223 10119624]
UniqueID: 4038473
UseUniqueID: 1
FSType: 0
OS2Version: 1
OS2_WeightWidthSlopeOnly: 0
OS2_UseTypoMetrics: 1
CreationTime: 1431850356
ModificationTime: 1511259122
PfmFamily: 33
TTFWeight: 400
TTFWidth: 5
LineGap: 0
VLineGap: 0
Panose: 2 11 6 3 3 8 4 2 2 4
OS2TypoAscent: 2350
OS2TypoAOffset: 0
OS2TypoDescent: -1200
OS2TypoDOffset: 0
OS2TypoLinegap: 0
OS2WinAscent: 2350
OS2WinAOffset: 0
OS2WinDescent: 1200
OS2WinDOffset: 0
HheadAscent: 2350
HheadAOffset: 0
HheadDescent: -1200
HheadDOffset: 0
OS2SubXSize: 1331
OS2SubYSize: 1433
OS2SubXOff: 0
OS2SubYOff: 286
OS2SupXSize: 1331
OS2SupYSize: 1433
OS2SupXOff: 0
OS2SupYOff: 983
OS2StrikeYSize: 102
OS2StrikeYPos: 530
OS2Vendor: 'PfEd'
OS2CodePages: 00000041.20080000
OS2UnicodeRanges: 8000200f.80000000.00000008.00000000
Lookup: 1 9 0 "'fina' Terminal Forms in Arabic lookup 9" { "'fina' Terminal Forms in Arabic lookup 9 subtable"  } ['fina' ('arab' <'KUR ' 'SND ' 'URD ' 'dflt' > ) ]
Lookup: 1 9 0 "'medi' Medial Forms in Arabic lookup 11" { "'medi' Medial Forms in Arabic lookup 11 subtable"  } ['medi' ('arab' <'KUR ' 'SND ' 'URD ' 'dflt' > ) ]
Lookup: 1 9 0 "'init' Initial Forms in Arabic lookup 13" { "'init' Initial Forms in Arabic lookup 13 subtable"  } ['init' ('arab' <'KUR ' 'SND ' 'URD ' 'dflt' > ) ]
Lookup: 4 1 1 "'rlig' Required Ligatures in Arabic lookup 14" { "'rlig' Required Ligatures in Arabic lookup 14 subtable"  } ['rlig' ('arab' <'KUR ' 'dflt' > ) ]

StartChar: afii57388
Encoding: 1548 1548 2
Width: 595
VWidth: 3440
GlyphClass: 2
Flags: W
LayerCount: 2
Fore
SplineSet
288.091796875 280.494140625 m 1,0,-1
 322.34375 275.172851562 l 2,1,2
 420.115234375 259.879882812 420.115234375 259.879882812 434.220703125 171.11328125 c 0,3,4
 445.029296875 102.109375 445.029296875 102.109375 420.052734375 59.158203125 c 0,5,6
 385.369140625 -1.244140625 385.369140625 -1.244140625 302.188476562 0 c 0,7,8
 141.090820312 1.9150390625 141.090820312 1.9150390625 157.983398438 200.01171875 c 0,9,10
 178.99609375 449.405273438 178.99609375 449.405273438 444.387695312 608.797851562 c 0,11,12
 476.97265625 628.40234375 476.97265625 628.40234375 483.453125 613.848632812 c 0,13,14
 485.396484375 609.44921875 485.396484375 609.44921875 471.23046875 598.154296875 c 0,15,16
 391.686523438 539.95703125 391.686523438 539.95703125 334.46875 450.877929688 c 0,17,18
 277.970703125 362.013671875 277.970703125 362.013671875 288.091796875 280.494140625 c 1,0,-1
EndSplineSet
EndChar

StartChar: uni0615
Encoding: 1557 1557 3
Width: 0
VWidth: 3489
GlyphClass: 4
Flags: W
AnchorPoint: "Anchor-10" 783.271 1881.75 mark 0
AnchorPoint: "Anchor-9" 783.271 1881.75 mark 0
AnchorPoint: "Anchor-1" 783.271 2993.22 basemark 0
AnchorPoint: "Anchor-1" 783.271 1881.75 mark 0
LayerCount: 2
Fore
SplineSet
674.393554688 2149.61425781 m 1,0,-1
 790.056640625 2149.61425781 l 2,1,2
 963.7734375 2150.06933594 963.7734375 2150.06933594 1039.23242188 2199.54980469 c 0,3,4
 1103.45996094 2241.66699219 1103.45996094 2241.66699219 1088.23046875 2309.10644531 c 0,5,6
 1066.60839844 2399.60449219 1066.60839844 2399.60449219 967.96875 2394.90234375 c 0,7,8
 837.071289062 2388.02246094 837.071289062 2388.02246094 674.393554688 2149.61425781 c 1,0,-1
1138.59667969 2220.50097656 m 0,9,10
 1031.91992188 2050.12890625 1031.91992188 2050.12890625 739.424804688 2049.91210938 c 2,11,-1
 479.942382812 2049.71972656 l 1,12,-1
 420.115234375 2106.77148438 l 2,13,14
 375.30859375 2149.61425781 375.30859375 2149.61425781 426.432617188 2149.61425781 c 2,15,-1
 566.337890625 2149.61425781 l 1,16,-1
 534.750976562 2779.23339844 l 5,17,-1
 625.635742188 2831.87988281 l 1,18,-1
 625.635742188 2156.38378906 l 1,19,20
 813.907226562 2515.42578125 813.907226562 2515.42578125 1005.33789062 2512.24023438 c 0,21,22
 1119.25390625 2510.16113281 1119.25390625 2510.16113281 1160.31738281 2421.10644531 c 0,23,24
 1204.54003906 2324.84765625 1204.54003906 2324.84765625 1138.59667969 2220.50097656 c 0,9,10
EndSplineSet
EndChar

StartChar: uni061B
Encoding: 1563 1563 4
Width: 595
VWidth: 3440
GlyphClass: 2
Flags: W
LayerCount: 2
Fore
SplineSet
394.288085938 40.087890625 m 128,-1,1
 354.833984375 1.052734375 354.833984375 1.052734375 299.029296875 1.052734375 c 128,-1,2
 243.224609375 1.052734375 243.224609375 1.052734375 203.213867188 41.0634765625 c 128,-1,3
 163.202148438 81.0751953125 163.202148438 81.0751953125 164.255859375 135.827148438 c 128,-1,4
 165.30859375 190.578125 165.30859375 190.578125 204.266601562 229.009765625 c 128,-1,5
 243.224609375 267.44140625 243.224609375 267.44140625 299.029296875 267.44140625 c 128,-1,6
 354.833984375 267.44140625 354.833984375 267.44140625 394.288085938 229.078125 c 128,-1,7
 433.802734375 190.578125 433.802734375 190.578125 433.802734375 134.7734375 c 128,-1,0
 433.802734375 78.96875 433.802734375 78.96875 394.288085938 40.087890625 c 128,-1,1
288.091796875 801.880859375 m 1,8,-1
 322.34375 796.559570312 l 2,9,10
 420.115234375 781.266601562 420.115234375 781.266601562 434.220703125 692.5 c 0,11,12
 445.029296875 623.49609375 445.029296875 623.49609375 420.052734375 580.544921875 c 0,13,14
 385.369140625 520.142578125 385.369140625 520.142578125 302.188476562 521.38671875 c 0,15,16
 141.090820312 523.30078125 141.090820312 523.30078125 157.983398438 721.3984375 c 0,17,18
 178.99609375 970.791992188 178.99609375 970.791992188 444.387695312 1130.18457031 c 0,19,20
 476.97265625 1149.7890625 476.97265625 1149.7890625 483.453125 1135.23535156 c 0,21,22
 485.396484375 1130.8359375 485.396484375 1130.8359375 471.23046875 1119.54101562 c 0,23,24
 391.686523438 1061.34375 391.686523438 1061.34375 334.46875 972.264648438 c 0,25,26
 277.970703125 883.399414062 277.970703125 883.399414062 288.091796875 801.880859375 c 1,8,-1
EndSplineSet
EndChar

StartChar: uni061F
Encoding: 1567 1567 5
Width: 875
VWidth: 3431
GlyphClass: 2
Flags: W
LayerCount: 2
Fore
SplineSet
569.10546875 40.087890625 m 128,-1,1
 529.651367188 1.052734375 529.651367188 1.052734375 473.846679688 1.052734375 c 128,-1,2
 418.041992188 1.052734375 418.041992188 1.052734375 378.03125 41.0634765625 c 128,-1,3
 338.020507812 81.0751953125 338.020507812 81.0751953125 339.073242188 135.827148438 c 128,-1,4
 340.125976562 190.578125 340.125976562 190.578125 379.083984375 229.009765625 c 128,-1,5
 418.041992188 267.44140625 418.041992188 267.44140625 473.846679688 267.44140625 c 128,-1,6
 529.651367188 267.44140625 529.651367188 267.44140625 569.10546875 229.078125 c 128,-1,7
 608.62109375 190.578125 608.62109375 190.578125 608.62109375 134.7734375 c 128,-1,0
 608.62109375 78.96875 608.62109375 78.96875 569.10546875 40.087890625 c 128,-1,1
414.884765625 577.850585938 m 2,8,9
 409.820352331 595.18565353 409.820352331 595.18565353 418.274414062 597.655273438 c 2,10,-1
 431.40234375 601.490234375 l 2,11,12
 481 616 481 616 477.557561738 660 c 0,13,14
 473.037963857 720.491878456 473.037963857 720.491878456 346.80078125 814.908203125 c 2,15,-1
 262.317382812 878.095703125 l 2,16,17
 115 988 115 988 109 1156.5 c 0,18,19
 103 1323 103 1323 214.301757812 1427.35742188 c 0,20,21
 307 1514 307 1514 448.5 1513.5 c 0,22,23
 526 1513 526 1513 586 1490.12293025 c 0,24,25
 711 1443 711 1443 753.865073032 1308 c 0,26,27
 788 1203 788 1203 752.943417072 1086 c 0,28,29
 731 1014 731 1014 680 963 c 1,30,-1
 638.81640625 992.892578125 l 1,31,32
 686 1076 686 1076 680.317382812 1133.08398438 c 0,33,34
 675 1198 675 1198 651.755859375 1236.25683594 c 0,35,36
 597 1326 597 1326 483 1325 c 0,37,38
 368 1324 368 1324 312.17578125 1235.63085938 c 0,39,40
 287 1196 287 1196 286.5 1132.5 c 0,41,42
 286.001688989 1067.22125753 286.001688989 1067.22125753 355.5 993.5 c 2,43,-1
 432.852539062 911.447265625 l 1,44,45
 612.988311174 718.703966971 612.988311174 718.703966971 537.447265625 583 c 0,46,47
 508.822170796 531.681189414 508.822170796 531.681189414 462 518 c 2,48,-1
 444.583984375 512.911132812 l 2,49,50
 434.731074265 509.918313877 434.731074265 509.918313877 428.998046875 529.541992188 c 2,51,-1
 414.884765625 577.850585938 l 2,8,9
EndSplineSet
EndChar

StartChar: uni0621
Encoding: 1569 1569 6
Width: 808
VWidth: 3798
GlyphClass: 2
Flags: W
AnchorPoint: "Anchor-7" 401.36 -202.826 basechar 0
AnchorPoint: "Anchor-10" 423.878 1057.02 basechar 0
LayerCount: 2
Fore
SplineSet
698.258789062 303.90234375 m 2,0,-1
 616.610351562 173.392578125 l 1,1,2
 353 158 353 158 109.874023438 15.0869140625 c 1,3,-1
 149.793945312 201.771484375 l 1,4,5
 162 207 162 207 243.94921875 240.696289062 c 1,6,7
 145 341 145 341 146.006835938 433.533203125 c 0,8,9
 147 520 147 520 202 615 c 0,10,11
 294 776 294 776 449.359375 766.581054688 c 0,12,13
 616 756 616 756 683.869140625 578.45703125 c 1,14,-1
 650.498046875 531.788085938 l 1,15,16
 542 585 542 585 467.732421875 588.766601562 c 0,17,18
 334 595 334 595 268.284179688 510.373046875 c 0,19,20
 230 460 230 460 247.762695312 413.564453125 c 0,21,22
 287 315 287 315 425.545898438 318.740234375 c 0,23,24
 435 319 435 319 613.028320312 351.549804688 c 0,25,26
 670 362 670 362 690.1640625 364.368164062 c 0,27,28
 740 371 740 371 698.258789062 303.90234375 c 2,0,-1
EndSplineSet
EndChar

StartChar: uni0627
Encoding: 1575 1575 12
Width: 500
VWidth: 3764
GlyphClass: 2
Flags: W
AnchorPoint: "Anchor-10" 245.76 1723.01 basechar 0
AnchorPoint: "Anchor-7" 254.215 -230.841 basechar 0
LayerCount: 2
Fore
SplineSet
329.939453125 1555.5 m 4,0,1
 347.463867188 1192.95800781 347.463867188 1192.95800781 337.487304688 685.284179688 c 4,2,3
 334.828125 532.77734375 334.828125 532.77734375 326.581054688 178.010742188 c 4,4,5
 323.24609375 33.693359375 323.24609375 33.693359375 225.407226562 -15.58984375 c 5,6,7
 225.325195312 619.1171875 225.325195312 619.1171875 203.41796875 1058.57226562 c 4,8,9
 192.684570312 1282.45703125 192.684570312 1282.45703125 162.67578125 1458.97949219 c 5,10,-1
 282.287109375 1579.72070312 l 6,11,12
 326.405273438 1624.65527344 326.405273438 1624.65527344 329.939453125 1555.5 c 4,0,1
EndSplineSet
Substitution2: "'fina' Terminal Forms in Arabic lookup 9 subtable" uniFE8E
EndChar

StartChar: uni062D
Encoding: 1581 1581 18
Width: 1314
VWidth: 3798
GlyphClass: 2
Flags: W
AnchorPoint: "Anchor-7" 428.792 -826.821 basechar 0
AnchorPoint: "Anchor-10" 534.798 1126.94 basechar 0
LayerCount: 2
Fore
SplineSet
576.313476562 335.451171875 m 0,0,1
 206 152 206 152 206.896484375 -151.811523438 c 0,2,3
 207 -294 207 -294 347.887695312 -375.379882812 c 0,4,5
 485 -455 485 -455 767.83203125 -454.5 c 0,6,7
 929.856445312 -453.9609375 929.856445312 -453.9609375 1148.97460938 -427.982421875 c 0,8,9
 1191 -423 1191 -423 1196.60839844 -422.328125 c 1,10,11
 1200 -427 1200 -427 1191.3125 -446.153320312 c 0,12,13
 1096 -646 1096 -646 757.233398438 -646.188476562 c 0,14,15
 399 -647 399 -647 251.985351562 -508.235351562 c 0,16,17
 113 -377 113 -377 113.118164062 -156.7421875 c 0,18,19
 114 75 114 75 242.588867188 254.986328125 c 0,20,21
 431 518 431 518 771.084960938 577.084960938 c 1,22,23
 660 598 660 598 610.577148438 609.078125 c 0,24,25
 498 635 498 635 395.845703125 646.493164062 c 0,26,27
 273 660 273 660 164.352539062 526.86328125 c 1,28,29
 104.905273438 563.408203125 l 1,30,31
 215 831 215 831 393.026367188 824.318359375 c 0,32,33
 471 821 471 821 972.803710938 675.006835938 c 0,34,35
 1073.70019531 645.432617188 1073.70019531 645.432617188 1199.46484375 643.3125 c 0,36,37
 1217.9609375 643.000976562 1217.9609375 643.000976562 1212.34179688 630.541015625 c 2,38,-1
 1139.81738281 469.717773438 l 1,39,40
 775 434 775 434 576.313476562 335.451171875 c 0,0,1
EndSplineSet
Substitution2: "'fina' Terminal Forms in Arabic lookup 9 subtable" uniFEA2
Substitution2: "'medi' Medial Forms in Arabic lookup 11 subtable" uniFEA4
Substitution2: "'init' Initial Forms in Arabic lookup 13 subtable" uniFEA3
EndChar

StartChar: uni062F
Encoding: 1583 1583 20
Width: 1045
VWidth: 3796
GlyphClass: 2
Flags: W
AnchorPoint: "Anchor-10" 470.345 1328.18 basechar 0
AnchorPoint: "Anchor-7" 469.505 -231.64 basechar 0
LayerCount: 2
Fore
SplineSet
417.026367188 0.1572265625 m 0,0,1
 113 -0 113 -0 113.741210938 259.197265625 c 0,2,3
 114 311 114 311 136.294921875 403.462890625 c 5,4,-1
 191.530273438 392.500976562 l 5,5,6
 187 360 187 360 187.958984375 340.588867188 c 4,7,8
 193 202 193 202 440.833007812 202.641601562 c 0,9,10
 681 203 681 203 800.55859375 260.182617188 c 0,11,12
 876 297 876 297 822.50390625 412.119140625 c 0,13,14
 746 577 746 577 446.493164062 798.153320312 c 1,15,-1
 475.0703125 993.370117188 l 2,16,17
 480 1026 480 1026 516.029296875 997.912109375 c 0,18,19
 942 666 942 666 941.275629206 352 c 0,20,21
 941 276 941 276 907.100585938 211.904296875 c 0,22,23
 795 0 795 0 417.026367188 0.1572265625 c 0,0,1
EndSplineSet
Substitution2: "'fina' Terminal Forms in Arabic lookup 9 subtable" uniFEAA
EndChar

StartChar: uni0631
Encoding: 1585 1585 22
Width: 814
VWidth: 3804
GlyphClass: 2
Flags: W
AnchorPoint: "Anchor-7" 331.096 -783.978 basechar 0
AnchorPoint: "Anchor-10" 508.105 951.34 basechar 0
LayerCount: 2
Fore
SplineSet
711.586575876 51 m 4,0,1
 686.419076692 -291.730273421 686.419076692 -291.730273421 413.197265625 -494.53515625 c 4,2,3
 344.653218768 -544.991384435 344.653218768 -544.991384435 266.564453125 -543.631835938 c 4,4,5
 187 -542 187 -542 79.2158203125 -510.107421875 c 4,6,7
 22.7804178017 -493.523197273 22.7804178017 -493.523197273 11.8583984375 -473.87890625 c 4,8,9
 4 -460 4 -460 21.7802734375 -454.553710938 c 4,10,11
 464 -317 464 -317 601.099609375 -4.6689453125 c 4,12,13
 658.76380974 129.183706311 658.76380974 129.183706311 437.900390625 356.619140625 c 5,14,-1
 519.591796875 552.38671875 l 6,15,16
 534 586 534 586 560.681640625 550.22265625 c 4,17,18
 731.2628585 318.951045699 731.2628585 318.951045699 711.586575876 51 c 4,0,1
EndSplineSet
PairPos2: "'kern' Horizontal Kerning lookup 15-1" uniFEF3 dx=74 dy=0 dh=74 dv=0 dx=0 dy=0 dh=0 dv=0
PairPos2: "'kern' Horizontal Kerning lookup 15-1" uniFB58 dx=56 dy=0 dh=56 dv=0 dx=0 dy=0 dh=0 dv=0
PairPos2: "'kern' Horizontal Kerning lookup 15-1" uniFBFE dx=74 dy=0 dh=74 dv=0 dx=0 dy=0 dh=0 dv=0
PairPos2: "'kern' Horizontal Kerning lookup 15-4" uni0621 dx=-206 dy=0 dh=-206 dv=0 dx=0 dy=0 dh=0 dv=0
PairPos2: "'kern' Horizontal Kerning lookup 15-3" uni0648 dx=-45 dy=0 dh=-45 dv=0 dx=0 dy=0 dh=0 dv=0
PairPos2: "'kern' Horizontal Kerning lookup 15-1" uni0632 dx=-45 dy=0 dh=-45 dv=0 dx=0 dy=0 dh=0 dv=0
PairPos2: "'kern' Horizontal Kerning lookup 15-1" uni0631 dx=-45 dy=0 dh=-45 dv=0 dx=0 dy=0 dh=0 dv=0
PairPos2: "'kern' Horizontal Kerning lookup 15-1" uni06CC dx=-45 dy=0 dh=-45 dv=0 dx=0 dy=0 dh=0 dv=0
PairPos2: "'kern' Horizontal Kerning lookup 15-1" uniFEEB dx=-135 dy=0 dh=-135 dv=0 dx=0 dy=0 dh=0 dv=0
PairPos2: "'kern' Horizontal Kerning lookup 15-1" uniFB7C dx=-121 dy=0 dh=-121 dv=0 dx=0 dy=0 dh=0 dv=0
PairPos2: "'kern' Horizontal Kerning lookup 15-1" uniFEDF dx=-135 dy=0 dh=-135 dv=0 dx=0 dy=0 dh=0 dv=0
PairPos2: "'kern' Horizontal Kerning lookup 15-1" uniFB90 dx=-224 dy=0 dh=-224 dv=0 dx=0 dy=0 dh=0 dv=0
PairPos2: "'kern' Horizontal Kerning lookup 15-1" uni06A9 dx=-224 dy=0 dh=-224 dv=0 dx=0 dy=0 dh=0 dv=0
PairPos2: "'kern' Horizontal Kerning lookup 15-1" uni0649 dx=-45 dy=0 dh=-45 dv=0 dx=0 dy=0 dh=0 dv=0
PairPos2: "'kern' Horizontal Kerning lookup 15-1" uni0647 dx=-135 dy=0 dh=-135 dv=0 dx=0 dy=0 dh=0 dv=0
PairPos2: "'kern' Horizontal Kerning lookup 15-1" uniFEE7 dx=-135 dy=0 dh=-135 dv=0 dx=0 dy=0 dh=0 dv=0
PairPos2: "'kern' Horizontal Kerning lookup 15-1" uniFEE3 dx=-135 dy=0 dh=-135 dv=0 dx=0 dy=0 dh=0 dv=0
PairPos2: "'kern' Horizontal Kerning lookup 15-1" uni0645 dx=-135 dy=0 dh=-135 dv=0 dx=0 dy=0 dh=0 dv=0
PairPos2: "'kern' Horizontal Kerning lookup 15-1" uni0644 dx=-45 dy=0 dh=-45 dv=0 dx=0 dy=0 dh=0 dv=0
PairPos2: "'kern' Horizontal Kerning lookup 15-1" uniFEDB dx=-224 dy=0 dh=-224 dv=0 dx=0 dy=0 dh=0 dv=0
PairPos2: "'kern' Horizontal Kerning lookup 15-1" uniFED7 dx=-135 dy=0 dh=-135 dv=0 dx=0 dy=0 dh=0 dv=0
PairPos2: "'kern' Horizontal Kerning lookup 15-1" uni0642 dx=-45 dy=0 dh=-45 dv=0 dx=0 dy=0 dh=0 dv=0
PairPos2: "'kern' Horizontal Kerning lookup 15-1" uniFED3 dx=-135 dy=0 dh=-135 dv=0 dx=0 dy=0 dh=0 dv=0
PairPos2: "'kern' Horizontal Kerning lookup 15-1" uni0641 dx=-135 dy=0 dh=-135 dv=0 dx=0 dy=0 dh=0 dv=0
PairPos2: "'kern' Horizontal Kerning lookup 15-1" uniFECF dx=-135 dy=0 dh=-135 dv=0 dx=0 dy=0 dh=0 dv=0
PairPos2: "'kern' Horizontal Kerning lookup 15-1" uniFECB dx=-135 dy=0 dh=-135 dv=0 dx=0 dy=0 dh=0 dv=0
PairPos2: "'kern' Horizontal Kerning lookup 15-1" uniFEC7 dx=-135 dy=0 dh=-135 dv=0 dx=0 dy=0 dh=0 dv=0
PairPos2: "'kern' Horizontal Kerning lookup 15-1" uni0638 dx=-135 dy=0 dh=-135 dv=0 dx=0 dy=0 dh=0 dv=0
PairPos2: "'kern' Horizontal Kerning lookup 15-1" uniFEC3 dx=-135 dy=0 dh=-135 dv=0 dx=0 dy=0 dh=0 dv=0
PairPos2: "'kern' Horizontal Kerning lookup 15-1" uni0637 dx=-135 dy=0 dh=-135 dv=0 dx=0 dy=0 dh=0 dv=0
PairPos2: "'kern' Horizontal Kerning lookup 15-1" uniFEBF dx=-135 dy=0 dh=-135 dv=0 dx=0 dy=0 dh=0 dv=0
PairPos2: "'kern' Horizontal Kerning lookup 15-1" uni0636 dx=-135 dy=0 dh=-135 dv=0 dx=0 dy=0 dh=0 dv=0
PairPos2: "'kern' Horizontal Kerning lookup 15-1" uniFEBB dx=-135 dy=0 dh=-135 dv=0 dx=0 dy=0 dh=0 dv=0
PairPos2: "'kern' Horizontal Kerning lookup 15-1" uni0635 dx=-135 dy=0 dh=-135 dv=0 dx=0 dy=0 dh=0 dv=0
PairPos2: "'kern' Horizontal Kerning lookup 15-1" uniFEB7 dx=-135 dy=0 dh=-135 dv=0 dx=0 dy=0 dh=0 dv=0
PairPos2: "'kern' Horizontal Kerning lookup 15-1" uni0634 dx=-135 dy=0 dh=-135 dv=0 dx=0 dy=0 dh=0 dv=0
PairPos2: "'kern' Horizontal Kerning lookup 15-1" uniFEB3 dx=-135 dy=0 dh=-135 dv=0 dx=0 dy=0 dh=0 dv=0
PairPos2: "'kern' Horizontal Kerning lookup 15-1" uni0633 dx=-135 dy=0 dh=-135 dv=0 dx=0 dy=0 dh=0 dv=0
PairPos2: "'kern' Horizontal Kerning lookup 15-1" uni0630 dx=-135 dy=0 dh=-135 dv=0 dx=0 dy=0 dh=0 dv=0
PairPos2: "'kern' Horizontal Kerning lookup 15-1" uni062F dx=-135 dy=0 dh=-135 dv=0 dx=0 dy=0 dh=0 dv=0
PairPos2: "'kern' Horizontal Kerning lookup 15-1" uniFEA7 dx=-135 dy=0 dh=-135 dv=0 dx=0 dy=0 dh=0 dv=0
PairPos2: "'kern' Horizontal Kerning lookup 15-1" uniFEA3 dx=-135 dy=0 dh=-135 dv=0 dx=0 dy=0 dh=0 dv=0
PairPos2: "'kern' Horizontal Kerning lookup 15-1" uniFE9F dx=-135 dy=0 dh=-135 dv=0 dx=0 dy=0 dh=0 dv=0
PairPos2: "'kern' Horizontal Kerning lookup 15-1" uniFE9B dx=-135 dy=0 dh=-135 dv=0 dx=0 dy=0 dh=0 dv=0
PairPos2: "'kern' Horizontal Kerning lookup 15-1" uni062B dx=-135 dy=0 dh=-135 dv=0 dx=0 dy=0 dh=0 dv=0
PairPos2: "'kern' Horizontal Kerning lookup 15-1" uniFE97 dx=-135 dy=0 dh=-135 dv=0 dx=0 dy=0 dh=0 dv=0
PairPos2: "'kern' Horizontal Kerning lookup 15-1" uni062A dx=-135 dy=0 dh=-135 dv=0 dx=0 dy=0 dh=0 dv=0
PairPos2: "'kern' Horizontal Kerning lookup 15-1" uni0629 dx=-135 dy=0 dh=-135 dv=0 dx=0 dy=0 dh=0 dv=0
PairPos2: "'kern' Horizontal Kerning lookup 15-1" uniFE91 dx=-56 dy=0 dh=-56 dv=0 dx=0 dy=0 dh=0 dv=0
PairPos2: "'kern' Horizontal Kerning lookup 15-1" uni0628 dx=-135 dy=0 dh=-135 dv=0 dx=0 dy=0 dh=0 dv=0
PairPos2: "'kern' Horizontal Kerning lookup 15-1" uni0627 dx=-206 dy=0 dh=-206 dv=0 dx=0 dy=0 dh=0 dv=0
PairPos2: "'kern' Horizontal Kerning lookup 15-1" uni0622 dx=-206 dy=0 dh=-206 dv=0 dx=0 dy=0 dh=0 dv=0
PairPos2: "'kern' Horizontal Kerning lookup 15-1" uniFB94 dx=-247 dy=0 dh=-247 dv=0 dx=0 dy=0 dh=0 dv=0
PairPos2: "'kern' Horizontal Kerning lookup 15-1" afii57509 dx=-247 dy=0 dh=-247 dv=0 dx=0 dy=0 dh=0 dv=0
PairPos2: "'kern' Horizontal Kerning lookup 15-1" uniFB56 dx=-135 dy=0 dh=-135 dv=0 dx=0 dy=0 dh=0 dv=0
PairPos2: "'kern' Horizontal Kerning lookup 15-1" afii57506 dx=-135 dy=0 dh=-135 dv=0 dx=0 dy=0 dh=0 dv=0
Substitution2: "'fina' Terminal Forms in Arabic lookup 9 subtable" uniFEAE
EndChar

StartChar: uni0633
Encoding: 1587 1587 24
Width: 2345
VWidth: 3804
GlyphClass: 2
Flags: W
AnchorPoint: "Anchor-7" 596.427 -814.57 basechar 0
AnchorPoint: "Anchor-10" 1687.94 1043.52 basechar 0
LayerCount: 2
Fore
SplineSet
1213.85742188 268.958007812 m 24,0,1
 1254 200 1254 200 1433.84570312 201.231445312 c 0,2,3
 1610.71192884 201.998750251 1610.71192884 201.998750251 1639.953125 374.483398438 c 2,4,-1
 1657.57324219 478.418945312 l 1,5,-1
 1741.80273438 465.981445312 l 1,6,-1
 1732.34472656 387.481445312 l 2,7,8
 1710 202 1710 202 1932.10351562 202.334960938 c 16,9,10
 2069 202 2069 202 2099.88867188 258.047851562 c 0,11,12
 2120 295 2120 295 2086.3359375 388.512695312 c 0,13,14
 2059 464 2059 464 2025.50488281 537.358398438 c 1,15,-1
 2106.70800781 683.626953125 l 2,16,17
 2124 715 2124 715 2137.73828125 690.1328125 c 0,18,19
 2232 511 2232 511 2233.30175781 329.174804688 c 0,20,21
 2234 219 2234 219 2152.37792969 120.466796875 c 24,22,23
 2053 2 2053 2 1925.46289062 2.1826171875 c 0,24,25
 1748 2 1748 2 1664.47851562 154.500976562 c 1,26,27
 1551 0 1551 0 1424.796875 -0.5869140625 c 0,28,29
 1312 -1 1312 -1 1266.828125 60.6728515625 c 1,30,31
 1309 -237 1309 -237 1141.62011719 -420.295898438 c 0,32,33
 979 -599 979 -599 657.168945312 -599.045898438 c 0,34,35
 115 -599 115 -599 114.147460938 -182 c 0,36,37
 113.861530395 -11.3657414983 113.861530395 -11.3657414983 207.9921875 201.96875 c 5,38,-1
 265 178 l 1,39,40
 215 6 215 6 214.18359375 -89.6484375 c 0,41,42
 211 -403 211 -403 667.990234375 -401.204101562 c 0,43,44
 1033 -399 1033 -399 1181.66503906 -169.361328125 c 1,45,46
 1176 -28 1176 -28 1013.65722656 269.52734375 c 1,47,-1
 1098.31835938 404.40625 l 2,48,49
 1122 442 1122 442 1141.31152344 404.509765625 c 0,50,51
 1180 329 1180 329 1213.85742188 268.958007812 c 24,0,1
EndSplineSet
Substitution2: "'fina' Terminal Forms in Arabic lookup 9 subtable" uniFEB2
Substitution2: "'medi' Medial Forms in Arabic lookup 11 subtable" uniFEB4
Substitution2: "'init' Initial Forms in Arabic lookup 13 subtable" uniFEB3
EndChar

StartChar: uni0635
Encoding: 1589 1589 26
Width: 2582
VWidth: 3805
GlyphClass: 2
Flags: W
AnchorPoint: "Anchor-7" 596.427 -814.57 basechar 0
AnchorPoint: "Anchor-10" 2051.94 1235.14 basechar 0
LayerCount: 2
Fore
SplineSet
1524.0859375 0 m 2,0,1
 1342.03136204 -0.0253129809959 1342.03136204 -0.0253129809959 1266.828125 60.6728515625 c 1,2,3
 1309 -237 1309 -237 1141.62011719 -420.295898438 c 0,4,5
 979 -599 979 -599 657.168945312 -599.045898438 c 0,6,7
 115 -599 115 -599 114.147460938 -182 c 0,8,9
 113.861530395 -11.3657414983 113.861530395 -11.3657414983 207.9921875 201.96875 c 5,10,-1
 265 178 l 1,11,12
 215 6 215 6 214.18359375 -89.6484375 c 0,13,14
 211 -403 211 -403 667.990234375 -401.204101562 c 0,15,16
 1033 -399 1033 -399 1181.66503906 -169.361328125 c 1,17,18
 1176 -28 1176 -28 1013.65722656 269.52734375 c 1,19,-1
 1098.31835938 404.40625 l 2,20,21
 1122 442 1122 442 1141.31152344 404.509765625 c 0,22,23
 1192 306 1192 306 1213.85742188 268.958007812 c 24,24,25
 1252 205 1252 205 1429.92871094 204.473632812 c 1,26,27
 1784 759 1784 759 2133.30371094 758.71875 c 0,28,29
 2285 759 2285 759 2377.84667969 671.467773438 c 0,30,31
 2465 588 2465 588 2464.78710938 449.642578125 c 0,32,33
 2465 341 2465 341 2409.08496094 253.334960938 c 0,34,35
 2332 132 2332 132 2156.60644531 63.322265625 c 0,36,37
 1995.16716283 0.0654994255106 1995.16716283 0.0654994255106 1622.41601562 0.013671875 c 2,38,-1
 1524.0859375 0 l 2,0,1
1536.95507812 201.372070312 m 1,39,-1
 1629.45214844 201.372070312 l 2,40,41
 2344 201 2344 201 2344.12402344 353.581054688 c 0,42,43
 2344 381 2344 381 2331.20898438 416.978515625 c 0,44,45
 2276 560 2276 560 2084.47558594 560.045898438 c 0,46,47
 1910 560 1910 560 1694.03222656 363.733398438 c 0,48,49
 1571 252 1571 252 1536.95507812 201.372070312 c 1,39,-1
657.168945312 -599.045898438 m 1024,50,-1
EndSplineSet
Substitution2: "'fina' Terminal Forms in Arabic lookup 9 subtable" uniFEBA
Substitution2: "'medi' Medial Forms in Arabic lookup 11 subtable" uniFEBC
Substitution2: "'init' Initial Forms in Arabic lookup 13 subtable" uniFEBB
EndChar

StartChar: uni0637
Encoding: 1591 1591 28
Width: 1602
VWidth: 3805
GlyphClass: 2
Flags: W
AnchorPoint: "Anchor-10" 525.377 1728.21 basechar 0
AnchorPoint: "Anchor-7" 713.854 -291.413 basechar 0
LayerCount: 2
Fore
SplineSet
643.66796875 0.013671875 m 6,0,-1
 385.000976562 -1.2265625 l 2,1,2
 276 -2 276 -2 209.309570312 53.095703125 c 0,3,4
 102 142 102 142 92.8681640625 159.916015625 c 0,5,6
 74 199 74 199 114.95703125 199.202148438 c 2,7,-1
 447.842773438 201.219726562 l 1,8,9
 490 254 490 254 531.793945312 305.881835938 c 1,10,11
 530 342 530 342 519.37109375 867.89453125 c 0,12,13
 511 1318 511 1318 487.107421875 1419.96386719 c 1,14,-1
 625.419921875 1588.06054688 l 2,15,16
 649.050345515 1616.77954013 649.050345515 1616.77954013 659.571289062 1570.70898438 c 2,17,18
 711.6796875 1333.41601562 l 2,19,20
 725.312933949 1271.33248167 725.312933949 1271.33248167 685.556640625 1229.09277344 c 2,21,-1
 644.282226562 1185.59960938 l 1,22,-1
 643.11328125 425.0546875 l 21,23,24
 932 759 932 759 1154.55566406 758.71875 c 4,25,26
 1306 759 1306 759 1399.09863281 671.467773438 c 4,27,28
 1486 588 1486 588 1486.0390625 449.642578125 c 4,29,30
 1486 341 1486 341 1430.33691406 253.334960938 c 4,31,32
 1353 132 1353 132 1177.85839844 63.322265625 c 4,33,34
 1021 2 1021 2 643.66796875 0.013671875 c 6,0,-1
558.20703125 201.372070312 m 5,35,-1
 650.704101562 201.372070312 l 6,36,37
 1365.28515625 200.755859375 1365.28515625 200.755859375 1365.37597656 353.581054688 c 4,38,39
 1365.33691406 381 1365.33691406 381 1352.4609375 416.978515625 c 4,40,41
 1297.33691406 560 1297.33691406 560 1105.72753906 560.045898438 c 4,42,43
 931.336914062 560 931.336914062 560 715.284179688 363.733398438 c 4,44,45
 592.336914062 252 592.336914062 252 558.20703125 201.372070312 c 5,35,-1
EndSplineSet
Substitution2: "'fina' Terminal Forms in Arabic lookup 9 subtable" uniFEC2
Substitution2: "'medi' Medial Forms in Arabic lookup 11 subtable" uniFEC4
Substitution2: "'init' Initial Forms in Arabic lookup 13 subtable" uniFEC3
EndChar

StartChar: uni0639
Encoding: 1593 1593 30
Width: 1320
VWidth: 3798
GlyphClass: 2
Flags: W
AnchorPoint: "Anchor-7" 428.792 -826.821 basechar 0
AnchorPoint: "Anchor-10" 690.211 1406.07 basechar 0
LayerCount: 2
Fore
SplineSet
113.118164062 -156.7421875 m 0,0,1
 110 166 110 166 457.530273438 377.171875 c 1,2,3
 279 577 279 577 326.810546875 741.98828125 c 0,4,5
 419.623046875 1065.68554688 419.623046875 1065.68554688 698.422851562 1065.29589844 c 0,6,7
 910 1065 910 1065 1016.25488281 843.240234375 c 1,8,9
 980.411132812 799.9140625 l 1,10,11
 827 861 827 861 715.311523438 858.559570312 c 0,12,13
 591 856 591 856 507.623046875 784.750976562 c 0,14,15
 432 719 432 719 434.940429688 671.92578125 c 0,16,17
 438 622 438 622 549.845703125 535.873046875 c 24,18,19
 625 477 625 477 671.540039062 483.478515625 c 0,20,21
 813 505 813 505 954.408203125 527.102539062 c 1,22,-1
 1095.65820312 545.012695312 l 2,23,24
 1119 548 1119 548 1121.99414062 538.879882812 c 0,25,26
 1125.99511719 528.013671875 1125.99511719 528.013671875 1120.74316406 513.169921875 c 2,27,-1
 1059.43261719 339.881835938 l 1,28,29
 761 335 761 335 488.028320312 198.590820312 c 0,30,31
 212 60 212 60 206.896484375 -151.811523438 c 24,32,33
 204 -292 204 -292 347.887695312 -375.379882812 c 0,34,35
 485 -455 485 -455 767.83203125 -454.5 c 0,36,37
 929.825195312 -453.963867188 929.825195312 -453.963867188 1148.97460938 -427.982421875 c 0,38,39
 1191 -423 1191 -423 1196.60839844 -422.328125 c 1,40,41
 1200 -427 1200 -427 1191.3125 -446.153320312 c 0,42,43
 1096 -646 1096 -646 757.233398438 -646.188476562 c 0,44,45
 399 -647 399 -647 251.985351562 -508.235351562 c 0,46,47
 115 -379 115 -379 113.118164062 -156.7421875 c 0,0,1
EndSplineSet
Substitution2: "'fina' Terminal Forms in Arabic lookup 9 subtable" uniFECA
Substitution2: "'medi' Medial Forms in Arabic lookup 11 subtable" uniFECC
Substitution2: "'init' Initial Forms in Arabic lookup 13 subtable" uniFECB
EndChar

StartChar: afii57440
Encoding: 1600 1600 32
Width: 279
VWidth: 3832
GlyphClass: 2
Flags: W
AnchorPoint: "Anchor-10" 149.292 1371.65 basechar 0
AnchorPoint: "Anchor-7" 148.208 -195.825 basechar 0
LayerCount: 2
Fore
SplineSet
-84.2080078125 93.7099609375 m 2,0,-1
 -84.2080078125 104.239257812 l 2,1,2
 -83.9999957127 199.001953125 -83.9999957127 199.001953125 -5.2646484375 199.001953125 c 2,3,-1
 284.288085938 199.001953125 l 2,4,5
 323.03125 198.999998423 323.03125 198.999998423 323.03125 102.1328125 c 6,6,-1
 323.03125 94.7626953125 l 6,7,8
 323 0 323 0 284.288085938 0 c 2,9,-1
 -5.2646484375 0 l 2,10,11
 -84 0 -84 0 -84.2080078125 93.7099609375 c 2,0,-1
EndSplineSet
EndChar

StartChar: uni0643
Encoding: 1603 1603 35
Width: 1942
VWidth: 3764
GlyphClass: 2
Flags: W
AnchorPoint: "Anchor-7" 636.157 -327.146 basechar 0
AnchorPoint: "Anchor-10" 917.059 1580.01 basechar 0
LayerCount: 2
Fore
SplineSet
1725.0078125 246.7890625 m 24,0,1
 1594 8 1594 8 1136.56445312 -63.4091796875 c 0,2,3
 990 -86 990 -86 812.381835938 -86.7607421875 c 0,4,5
 103 -88 103 -88 106.321289062 316.934570312 c 4,6,7
 108 493 108 493 210.0703125 647.333007812 c 5,8,-1
 268.84375 623.546875 l 5,9,10
 216 491 216 491 214.10546875 404.04296875 c 4,11,12
 209 111 209 111 817.440429688 110.59375 c 0,13,14
 1432 111 1432 111 1611.83886719 294.5078125 c 0,15,16
 1665 349 1665 349 1667.20117188 437.173828125 c 24,17,18
 1668 474 1668 474 1662.76757812 619.1171875 c 0,19,20
 1636 1346 1636 1346 1622.46582031 1436.02539062 c 1,21,-1
 1743.7890625 1583.06542969 l 2,22,23
 1779.64941406 1626.57463563 1779.64941406 1626.57463563 1779.64941406 1571.13574219 c 2,24,-1
 1779.64941406 615.150390625 l 2,25,26
 1780 346 1780 346 1725.0078125 246.7890625 c 24,0,1
1145.52636719 733.604492188 m 0,27,28
 1065.5546875 640.17578125 1065.5546875 640.17578125 904.116210938 646.065429688 c 0,29,30
 788.63671875 649.651367188 788.63671875 649.651367188 692.232421875 681.4140625 c 1,31,-1
 705.9765625 822.198242188 l 1,32,33
 814.959960938 783.372070312 814.959960938 783.372070312 933.72265625 784.620117188 c 0,34,35
 1092.93066406 786.53125 1092.93066406 786.53125 1104.26855469 857.575195312 c 0,36,37
 1111.88378906 906.564453125 1111.88378906 906.564453125 965.607421875 938.576171875 c 0,38,39
 789.690429688 976.056640625 789.690429688 976.056640625 794.797851562 1146.73730469 c 0,40,41
 798.11328125 1263.50390625 798.11328125 1263.50390625 920.05859375 1322.33007812 c 0,42,43
 990.797851562 1356.16113281 990.797851562 1356.16113281 1117.05859375 1371.87695312 c 0,44,45
 1174.18847656 1379.34863281 1174.18847656 1379.34863281 1159.67578125 1337.81640625 c 2,46,-1
 1122.75195312 1232.14160156 l 1,47,48
 873.923828125 1208.75195312 873.923828125 1208.75195312 872.231445312 1129.8828125 c 0,49,50
 870.764648438 1082.40136719 870.764648438 1082.40136719 1025.9609375 1055.63769531 c 0,51,52
 1187.69335938 1027.65039062 1187.69335938 1027.65039062 1191.07714844 870.252929688 c 0,53,54
 1192.95800781 787.583984375 1192.95800781 787.583984375 1145.52636719 733.604492188 c 0,27,28
EndSplineSet
Substitution2: "'fina' Terminal Forms in Arabic lookup 9 subtable" uniFEDA
Substitution2: "'medi' Medial Forms in Arabic lookup 11 subtable" uniFEDC
Substitution2: "'init' Initial Forms in Arabic lookup 13 subtable" uniFEDB
EndChar

StartChar: uni0644
Encoding: 1604 1604 36
Width: 1396
VWidth: 3805
GlyphClass: 2
Flags: W
AnchorPoint: "Anchor-7" 567.427 -842.57 basechar 0
AnchorPoint: "Anchor-10" 588.527 1410.82 basechar 0
LayerCount: 2
Fore
SplineSet
627.168945312 -599.045898438 m 4,0,1
 114.846224525 -598.999896401 114.846224525 -598.999896401 114.147460938 -182 c 0,2,3
 114 -94 114 -94 140.059570312 9 c 0,4,5
 163 100 163 100 207.9921875 201.96875 c 1,6,-1
 265 178 l 1,7,8
 215 6 215 6 214.18359375 -89.6484375 c 0,9,10
 211 -403 211 -403 637.990234375 -401.204101562 c 4,11,12
 1000 -400 1000 -400 1143.07128906 -178.944335938 c 1,13,14
 1091 1250 1091 1250 1054.90917969 1418.85253906 c 1,15,-1
 1191.34179688 1584.78125 l 2,16,17
 1216.89927432 1615.87744544 1216.89927432 1615.87744544 1227.52246094 1568.51367188 c 2,18,-1
 1281.06933594 1329.7734375 l 1,19,20
 1300.11290189 1261.59580133 1300.11290189 1261.59580133 1266.41113281 1232.53125 c 2,21,-1
 1212.1875 1185.76855469 l 1,22,-1
 1242.2890625 -53.140625 l 2,23,24
 1248 -275 1248 -275 1111.62011719 -420.295898438 c 0,25,26
 946 -599 946 -599 627.168945312 -599.045898438 c 4,0,1
EndSplineSet
Substitution2: "'fina' Terminal Forms in Arabic lookup 9 subtable" uniFEDE
Substitution2: "'medi' Medial Forms in Arabic lookup 11 subtable" uniFEE0
Substitution2: "'init' Initial Forms in Arabic lookup 13 subtable" uniFEDF
EndChar

StartChar: uni0645
Encoding: 1605 1605 37
Width: 1040
VWidth: 3835
GlyphClass: 2
Flags: W
AnchorPoint: "Anchor-10" 578.659 1033.03 basechar 0
AnchorPoint: "Anchor-7" 210.123 -858.52 basechar 0
LayerCount: 2
Fore
SplineSet
375.094726562 231.706054688 m 1,0,1
 608.587890625 232.6953125 608.587890625 232.6953125 840.23046875 173.77734375 c 0,2,3
 852.865234375 170.573242188 852.865234375 170.573242188 848.634765625 184.260742188 c 0,4,5
 752.837890625 436.961914062 752.837890625 436.961914062 590.791015625 463.455078125 c 0,6,7
 504.348632812 478.025390625 504.348632812 478.025390625 455.23046875 411.875 c 0,8,9
 406.426757812 344.3046875 406.426757812 344.3046875 375.094726562 231.706054688 c 1,0,1
838.325195312 35.8076171875 m 0,10,11
 801 5 801 5 720.11328125 16.4716796875 c 0,12,13
 322 72 322 72 230.231445312 30.3662109375 c 1,14,-1
 236.73828125 -530.690429688 l 6,15,16
 238 -600 238 -600 182.512695312 -686.859375 c 4,17,18
 140 -755 140 -755 130.140625 -758.690429688 c 4,19,20
 115.767530384 -763.070848647 115.767530384 -763.070848647 114.962890625 -721.2890625 c 6,21,-1
 104.671875 -186.916992188 l 2,22,23
 99 126 99 126 298.938476562 228.646484375 c 1,24,25
 378 684 378 684 613.463867188 648.462890625 c 0,26,27
 780 623 780 623 885.690429688 393.791992188 c 0,28,29
 940 275 940 275 941.310546875 181.102539062 c 0,30,31
 942 121 942 121 838.325195312 35.8076171875 c 0,10,11
EndSplineSet
Substitution2: "'init' Initial Forms in Arabic lookup 13 subtable" uniFEE3
Substitution2: "'medi' Medial Forms in Arabic lookup 11 subtable" uniFEE4
Substitution2: "'fina' Terminal Forms in Arabic lookup 9 subtable" uniFEE2
EndChar

StartChar: uni0647
Encoding: 1607 1607 39
Width: 812
VWidth: 3797
GlyphClass: 2
Flags: W
AnchorPoint: "Anchor-10" 343.29 1158.38 basechar 0
AnchorPoint: "Anchor-7" 384.864 -231.307 basechar 0
LayerCount: 2
Fore
SplineSet
219.12109375 410.870117188 m 0,0,1
 192.03515625 331.32421875 192.03515625 331.32421875 201.481445312 296.978515625 c 0,2,3
 225.080078125 200.5703125 225.080078125 200.5703125 414.282226562 201.5078125 c 0,4,5
 541.168945312 202.64453125 541.168945312 202.64453125 591.056640625 278.560546875 c 0,6,7
 626.845703125 332.78515625 626.845703125 332.78515625 587.40234375 407.274414062 c 0,8,9
 542.25390625 490.040039062 542.25390625 490.040039062 373.067382812 581.499023438 c 0,10,11
 355.71875 590.8984375 355.71875 590.8984375 330.232421875 603.6953125 c 1,12,13
 254.859375 508.475585938 254.859375 508.475585938 219.12109375 410.870117188 c 0,0,1
112.7890625 313.264648438 m 0,14,15
 111.568359375 536.014648438 111.568359375 536.014648438 284.590820312 810.147460938 c 0,16,17
 309.55859375 849.706054688 309.55859375 849.706054688 347.888671875 834.494140625 c 0,18,19
 699.138671875 691.768554688 699.138671875 691.768554688 703.844726562 372.459960938 c 0,20,21
 708.615234375 4.2119140625 708.615234375 4.2119140625 395.078125 5.28515625 c 0,22,23
 114.768554688 6.3173828125 114.768554688 6.3173828125 112.7890625 313.264648438 c 0,14,15
EndSplineSet
Substitution2: "'fina' Terminal Forms in Arabic lookup 9 subtable" uniFEEA
Substitution2: "'medi' Medial Forms in Arabic lookup 11 subtable" uniFEEC
Substitution2: "'init' Initial Forms in Arabic lookup 13 subtable" uniFEEB
EndChar

StartChar: uni0648
Encoding: 1608 1608 40
Width: 833
VWidth: 3833
GlyphClass: 2
Flags: W
AnchorPoint: "Anchor-7" 331.096 -783.978 basechar 0
AnchorPoint: "Anchor-10" 444.667 1030.67 basechar 0
LayerCount: 2
Fore
SplineSet
736.666992188 148.778320312 m 0,0,1
 737 75 737 75 727.15625 6.5068359375 c 0,2,3
 676.449885061 -318.526294601 676.449885061 -318.526294601 434.887695312 -494.53515625 c 0,4,5
 366 -545 366 -545 288.25390625 -543.631835938 c 0,6,7
 210 -542 210 -542 100.905273438 -510.107421875 c 0,8,9
 44 -494 44 -494 33.548828125 -473.87890625 c 0,10,11
 26 -460 26 -460 43.4697265625 -454.553710938 c 0,12,13
 509 -314 509 -314 623.705078125 -8.09765625 c 1,14,15
 532 -27 532 -27 453.008789062 -22.7744140625 c 0,16,17
 299.857967697 -15.0931857495 299.857967697 -15.0931857495 232.994140625 66.0029296875 c 0,18,19
 186 123 186 123 182.541015625 217.600585938 c 0,20,21
 179 336 179 336 241.65625 480.232421875 c 0,22,23
 313.551174708 647.28065733 313.551174708 647.28065733 439.015625 649.486328125 c 0,24,25
 582 652 582 652 668.817382812 470.436523438 c 0,26,27
 735 332 735 332 736.666992188 148.778320312 c 0,0,1
589.900390625 314.053710938 m 0,28,29
 536 454 536 454 421.444335938 452.268554688 c 0,30,31
 335 451 335 451 298.680664062 340.623046875 c 0,32,33
 276 270 276 270 290.6171875 231.688476562 c 0,34,35
 322 151 322 151 624.254882812 194.728515625 c 1,36,37
 620 235 620 235 589.900390625 314.053710938 c 0,28,29
EndSplineSet
Substitution2: "'fina' Terminal Forms in Arabic lookup 9 subtable" uniFEEE
EndChar

StartChar: uni0649
Encoding: 1609 1609 41
Width: 1547
VWidth: 3805
GlyphClass: 2
Flags: W
AnchorPoint: "Anchor-7" 582.003 -826.57 basechar 0
AnchorPoint: "Anchor-10" 619.458 959.11 basechar 0
LayerCount: 2
Fore
SplineSet
691.081054688 -392.916015625 m 0,0,1
 1116 -393 1116 -393 1289.37597656 -196.108398438 c 0,2,3
 1299.10405581 -185.15574231 1299.10405581 -185.15574231 1299.10405581 -175.484716553 c 0,4,5
 1299.10405581 -149.76533852 1299.10405581 -149.76533852 1230.30175781 -133.110351562 c 2,6,-1
 892.436523438 -51.3232421875 l 2,7,8
 806.875248274 -30.4257653074 806.875248274 -30.4257653074 806.875248274 87.0949185108 c 0,9,10
 806.875248274 156.973423187 806.875248274 156.973423187 837.125976562 261.013671875 c 0,11,12
 918 540 918 540 1150.02734375 638.744140625 c 0,13,14
 1234.00494941 674.158659546 1234.00494941 674.158659546 1334.47106609 674.158659546 c 0,15,16
 1336.85783318 674.158659546 1336.85783318 674.158659546 1339.25390625 674.138671875 c 0,17,18
 1409 674 1409 674 1478.86132812 651.159179688 c 1,19,20
 1471 575 1471 575 1440.6015625 451.616210938 c 1,21,-1
 1394.73046875 456.012695312 l 2,22,23
 1356.24907436 459.718060372 1356.24907436 459.718060372 1320.68280262 459.718060372 c 0,24,25
 1135.60341277 459.718060372 1135.60341277 459.718060372 1029.46386719 359.37890625 c 0,26,27
 923 260 923 260 908.7578125 143.073242188 c 1,28,-1
 1281.49707031 50.4482421875 l 2,29,30
 1396.55048838 21.3663905234 1396.55048838 21.3663905234 1396.55048838 -86.2752630387 c 0,31,32
 1396.55048838 -226.86719836 1396.55048838 -226.86719836 1316.72265625 -336.67578125 c 0,33,34
 1132.53817984 -585.273606867 1132.53817984 -585.273606867 676.503290773 -585.273606867 c 0,35,36
 675.170774646 -585.273606867 675.170774646 -585.273606867 673.8359375 -585.271484375 c 0,37,38
 114.146631209 -583.998058383 114.146631209 -583.998058383 114.146631209 -150.869196557 c 0,39,40
 114.146631209 19.1266475488 114.146631209 19.1266475488 207.9921875 232.110351562 c 5,41,-1
 265 208.141601562 l 1,42,43
 214.162621247 33.1170456078 214.162621247 33.1170456078 214.162621247 -63.8862532293 c 0,44,45
 214.162621247 -392.999446738 214.162621247 -392.999446738 691.081054688 -392.916015625 c 0,0,1
EndSplineSet
Substitution2: "'fina' Terminal Forms in Arabic lookup 9 subtable" uniFEF0
Substitution2: "'medi' Medial Forms in Arabic lookup 11 subtable" uniFBE9
Substitution2: "'init' Initial Forms in Arabic lookup 13 subtable" uniFBE8
EndChar

StartChar: uni064B
Encoding: 1611 1611 43
Width: -25
VWidth: 2439
GlyphClass: 4
Flags: W
AnchorPoint: "Anchor-10" 647.657 1169.54 mark 0
AnchorPoint: "Anchor-9" 647.657 1169.54 mark 0
AnchorPoint: "Anchor-1" 605.155 1721.26 basemark 0
AnchorPoint: "Anchor-1" 647.657 1169.54 mark 0
LayerCount: 2
Fore
SplineSet
352.7578125 1150.01074219 m 1,0,-1
 352.7578125 1246.33984375 l 1,1,-1
 814.252929688 1435.49609375 l 1,2,-1
 814.252929688 1339.16308594 l 1,3,-1
 352.7578125 1150.01074219 l 1,0,-1
352.7578125 1409.04199219 m 1,4,-1
 352.7578125 1505.37207031 l 1,5,-1
 824.252929688 1694.52539062 l 1,6,-1
 814.252929688 1598.19628906 l 1,7,-1
 352.7578125 1409.04199219 l 1,4,-1
EndSplineSet
EndChar

StartChar: uni064C
Encoding: 1612 1612 44
Width: -25
VWidth: 2439
GlyphClass: 4
Flags: W
AnchorPoint: "Anchor-10" 718.761 1280.4 mark 0
AnchorPoint: "Anchor-9" 718.761 1280.4 mark 0
AnchorPoint: "Anchor-1" 603.525 2015.91 basemark 0
AnchorPoint: "Anchor-1" 718.761 1280.4 mark 0
LayerCount: 2
Fore
SplineSet
693.494140625 1835.87402344 m 1,0,1
 655.96875 1836.29199219 655.96875 1836.29199219 633.857421875 1812.07519531 c 0,2,3
 608.587890625 1784.69921875 608.587890625 1784.69921875 609.206054688 1740.05664062 c 0,4,5
 609.640625 1682.56640625 609.640625 1682.56640625 682.510742188 1655.80957031 c 0,6,7
 720.197265625 1644.66113281 720.197265625 1644.66113281 757.9921875 1634.52539062 c 1,8,9
 776.001953125 1675.1953125 776.001953125 1675.1953125 776.458007812 1728.56738281 c 0,10,11
 776.001953125 1789.96386719 776.001953125 1789.96386719 746.520507812 1816.28710938 c 0,12,13
 723.356445312 1837.34570312 723.356445312 1837.34570312 693.494140625 1835.87402344 c 1,0,1
346.204101562 1528.88378906 m 1,14,15
 347.463867188 1477.24707031 347.463867188 1477.24707031 352.782226562 1458.26953125 c 0,16,17
 385.369140625 1349.84375 385.369140625 1349.84375 469.095703125 1352.29589844 c 0,18,19
 599.111328125 1355.10839844 599.111328125 1355.10839844 723.569335938 1563.20996094 c 1,20,21
 533.830078125 1596.2265625 533.830078125 1596.2265625 534.110351562 1745.68652344 c 0,22,23
 533.830078125 1807.86328125 533.830078125 1807.86328125 566.470703125 1855.24511719 c 0,24,25
 611.74609375 1919.47363281 611.74609375 1919.47363281 693.505859375 1919.53417969 c 0,26,27
 805.483398438 1919.47363281 805.483398438 1919.47363281 845.625976562 1811.625 c 0,28,29
 872.87109375 1739.42382812 872.87109375 1739.42382812 834.951171875 1620.22070312 c 5,30,31
 888.6640625 1617.28515625 888.6640625 1617.28515625 928.849609375 1616.40527344 c 1,32,-1
 928.849609375 1534.64941406 l 5,33,34
 853.91796875 1535.15722656 853.91796875 1535.15722656 795.239257812 1544.57519531 c 5,35,36
 646.493164062 1272.98046875 646.493164062 1272.98046875 477.899414062 1272.76660156 c 0,37,38
 294.817382812 1271.92773438 294.817382812 1271.92773438 288.890625 1528.88378906 c 1,39,-1
 346.204101562 1528.88378906 l 1,14,15
EndSplineSet
EndChar

StartChar: uni064D
Encoding: 1613 1613 45
Width: -24
VWidth: 2264
GlyphClass: 4
Flags: W
AnchorPoint: "Anchor-7" 543.708 68.8115 mark 0
AnchorPoint: "Anchor-6" 543.708 68.8115 mark 0
AnchorPoint: "Anchor-0" 595.264 -434.663 basemark 0
AnchorPoint: "Anchor-0" 543.708 68.8115 mark 0
LayerCount: 2
Fore
SplineSet
328.03125 -452.739257812 m 1,0,-1
 328.03125 -352.15234375 l 1,1,-1
 772.180664062 -174.180664062 l 1,2,-1
 772.180664062 -274.765625 l 1,3,-1
 328.03125 -452.739257812 l 1,0,-1
328.03125 -215.236328125 m 1,4,-1
 328.03125 -114.649414062 l 1,5,-1
 772.180664062 63.3232421875 l 1,6,-1
 772.180664062 -37.263671875 l 1,7,-1
 328.03125 -215.236328125 l 1,4,-1
EndSplineSet
EndChar

StartChar: uni064E
Encoding: 1614 1614 46
Width: -24
VWidth: 2264
GlyphClass: 4
Flags: W
AnchorPoint: "Anchor-10" 550.08 1333.49 mark 0
AnchorPoint: "Anchor-9" 550.08 1333.49 mark 0
AnchorPoint: "Anchor-1" 529.16 1653.22 basemark 0
AnchorPoint: "Anchor-1" 550.08 1333.49 mark 0
LayerCount: 2
Fore
SplineSet
292.70703125 1331.77832031 m 5,0,-1
 292.70703125 1432.36425781 l 5,1,-1
 736.857421875 1610.33691406 l 1,2,-1
 736.857421875 1509.75195312 l 1,3,-1
 292.70703125 1331.77832031 l 5,0,-1
EndSplineSet
EndChar

StartChar: uni064F
Encoding: 1615 1615 47
Width: -24
VWidth: 2264
GlyphClass: 4
Flags: W
AnchorPoint: "Anchor-10" 607.967 1279.7 mark 0
AnchorPoint: "Anchor-9" 607.967 1279.7 mark 0
AnchorPoint: "Anchor-1" 537.701 1886.46 basemark 0
AnchorPoint: "Anchor-1" 607.967 1279.7 mark 0
LayerCount: 2
Fore
SplineSet
803.758789062 1440.69628906 m 5,0,1
 750.42578125 1441.63574219 750.42578125 1441.63574219 676.884765625 1449.57324219 c 5,2,3
 548.0078125 1266.4140625 548.0078125 1266.4140625 311.676757812 1253.69433594 c 5,4,-1
 311.676757812 1329.57714844 l 5,5,6
 507.5078125 1350.89648438 507.5078125 1350.89648438 592.797851562 1473.30957031 c 5,7,8
 546.591796875 1483.76953125 546.591796875 1483.76953125 510.045898438 1502.57617188 c 4,9,10
 420.615234375 1547.37402344 420.615234375 1547.37402344 419.806640625 1639.109375 c 4,11,12
 420.192382812 1719.48730469 420.192382812 1719.48730469 485.002929688 1772.27246094 c 4,13,14
 519.262695312 1800.33691406 519.262695312 1800.33691406 579.288085938 1800.51464844 c 4,15,16
 642.245117188 1800.33691406 642.245117188 1800.33691406 692.081054688 1751.44726562 c 4,17,18
 737.899414062 1705.82226562 737.899414062 1705.82226562 738.169921875 1627.46289062 c 4,19,20
 737.901367188 1594.52734375 737.901367188 1594.52734375 723.650390625 1548.72265625 c 6,21,-1
 714.869140625 1520.49902344 l 5,22,-1
 744.385742188 1518.75488281 l 6,23,24
 777.754882812 1516.79199219 777.754882812 1516.79199219 803.758789062 1516.6015625 c 5,25,-1
 803.758789062 1440.69628906 l 5,0,1
577.790039062 1719.51269531 m 4,26,27
 547.73046875 1719.48730469 547.73046875 1719.48730469 526.09375 1699.86230469 c 4,28,29
 505.59765625 1681.90820312 505.59765625 1681.90820312 499.880859375 1657.99511719 c 4,30,31
 489.655273438 1610.16894531 489.655273438 1610.16894531 519.262695312 1584.62597656 c 4,32,33
 542.037109375 1564.61914062 542.037109375 1564.61914062 591.125 1547.79980469 c 4,34,35
 608.083984375 1541.84472656 608.083984375 1541.84472656 635.416015625 1533.63574219 c 5,36,37
 661.611328125 1594.7421875 661.611328125 1594.7421875 662.155273438 1636.10058594 c 4,38,39
 661.603515625 1676.21484375 661.603515625 1676.21484375 635.834960938 1697.84472656 c 4,40,41
 609.22265625 1719.48730469 609.22265625 1719.48730469 577.790039062 1719.51269531 c 4,26,27
EndSplineSet
EndChar

StartChar: uni0650
Encoding: 1616 1616 48
Width: -24
VWidth: 2264
GlyphClass: 4
Flags: W
AnchorPoint: "Anchor-7" 558.236 -21.6328 mark 0
AnchorPoint: "Anchor-6" 558.236 -21.6328 mark 0
AnchorPoint: "Anchor-0" 605.101 -327.362 basemark 0
AnchorPoint: "Anchor-0" 558.236 -21.6328 mark 0
LayerCount: 2
Fore
SplineSet
338.421875 -324.326171875 m 5,0,-1
 338.421875 -223.739257812 l 5,1,-1
 782.5703125 -45.7685546875 l 1,2,-1
 782.5703125 -146.353515625 l 1,3,-1
 338.421875 -324.326171875 l 5,0,-1
EndSplineSet
EndChar

StartChar: uni0651
Encoding: 1617 1617 49
Width: -24
VWidth: 2264
GlyphClass: 4
Flags: W
AnchorPoint: "Anchor-10" 599.685 1372.1 mark 0
AnchorPoint: "Anchor-9" 599.685 1372.1 mark 0
AnchorPoint: "Anchor-1" 527.39 1784.95 basemark 0
AnchorPoint: "Anchor-1" 599.685 1372.1 mark 0
LayerCount: 2
Fore
SplineSet
769.141601562 1619.25878906 m 4,0,1
 769 1684 769 1684 762.215820312 1726.38085938 c 1,2,3
 787 1774 787 1774 820.208984375 1727.35839844 c 1,4,5
 831 1649 831 1649 830.720703125 1606.8515625 c 0,6,7
 831 1414 831 1414 694.700195312 1413.89550781 c 0,8,9
 606 1414 606 1414 575.6875 1477.41308594 c 1,10,11
 544 1342 544 1342 419.053710938 1342.31835938 c 0,12,13
 292 1342 292 1342 291.206054688 1507 c 0,14,15
 291 1559 291 1559 303.84765625 1637.54394531 c 1,16,17
 337 1689 337 1689 361.657226562 1636.62695312 c 1,18,19
 352 1565 352 1565 351.595703125 1542.91992188 c 0,20,21
 352 1445 352 1445 427.614257812 1445.16503906 c 0,22,23
 523 1445 523 1445 528.045898438 1575.83789062 c 0,24,25
 530 1619 530 1619 529.3125 1692.88574219 c 1,26,27
 563 1738 563 1738 586.540039062 1692.70410156 c 1,28,29
 588 1637 588 1637 588.47265625 1633.45605469 c 0,30,31
 588 1523 588 1523 688.552734375 1522.43066406 c 0,32,33
 769 1522 769 1522 769.141601562 1619.25878906 c 4,0,1
EndSplineSet
EndChar

StartChar: uni0652
Encoding: 1618 1618 50
Width: -31
VWidth: 2832
GlyphClass: 4
Flags: W
AnchorPoint: "Anchor-10" 723.79 1531.84 mark 0
AnchorPoint: "Anchor-9" 723.79 1531.84 mark 0
AnchorPoint: "Anchor-1" 714.718 2113.23 basemark 0
AnchorPoint: "Anchor-1" 723.79 1531.84 mark 0
LayerCount: 2
Fore
SplineSet
821.180664062 1692.31152344 m 0,0,1
 840.725585938 1711.85546875 840.725585938 1711.85546875 850.427734375 1735.515625 c 128,-1,2
 860.12890625 1759.17675781 860.12890625 1759.17675781 860.12890625 1787.33984375 c 128,-1,3
 860.12890625 1815.50390625 860.12890625 1815.50390625 850.427734375 1839.16503906 c 128,-1,4
 840.727539062 1862.82714844 840.727539062 1862.82714844 821.18359375 1882.37207031 c 0,5,6
 808.154296875 1895.40039062 808.154296875 1895.40039062 793.231445312 1904.04492188 c 128,-1,7
 778.307617188 1912.68847656 778.307617188 1912.68847656 761.361328125 1917.00390625 c 128,-1,8
 744.4140625 1921.31933594 744.4140625 1921.31933594 725.356445312 1921.31933594 c 128,-1,9
 706.29296875 1921.31933594 706.29296875 1921.31933594 689.387695312 1917.04492188 c 128,-1,10
 672.482421875 1912.77148438 672.482421875 1912.77148438 657.653320312 1904.21679688 c 128,-1,11
 642.82421875 1895.66210938 642.82421875 1895.66210938 629.93359375 1882.76953125 c 128,-1,12
 617.040039062 1869.87695312 617.040039062 1869.87695312 608.485351562 1855.046875 c 128,-1,13
 599.9296875 1840.21679688 599.9296875 1840.21679688 595.65625 1823.30957031 c 128,-1,14
 591.381835938 1806.40332031 591.381835938 1806.40332031 591.381835938 1787.33984375 c 0,15,16
 591.381835938 1773.04003906 591.381835938 1773.04003906 593.78125 1759.96679688 c 128,-1,17
 596.180664062 1746.89355469 596.180664062 1746.89355469 600.998046875 1734.98535156 c 128,-1,18
 605.81640625 1723.07714844 605.81640625 1723.07714844 613.040039062 1712.32910156 c 128,-1,19
 620.263671875 1701.58007812 620.263671875 1701.58007812 629.932617188 1691.91113281 c 0,20,21
 637.666015625 1684.17675781 637.666015625 1684.17675781 646.08984375 1678.00976562 c 128,-1,22
 654.512695312 1671.84179688 654.512695312 1671.84179688 663.668945312 1667.21484375 c 128,-1,23
 672.82421875 1662.58789062 672.82421875 1662.58789062 682.717773438 1659.51269531 c 128,-1,24
 692.612304688 1656.43652344 692.612304688 1656.43652344 703.265625 1654.90039062 c 128,-1,25
 713.919921875 1653.36328125 713.919921875 1653.36328125 725.361328125 1653.36328125 c 0,26,27
 734.891601562 1653.36328125 734.891601562 1653.36328125 743.884765625 1654.43945312 c 128,-1,28
 752.877929688 1655.51660156 752.877929688 1655.51660156 761.358398438 1657.67578125 c 128,-1,29
 769.837890625 1659.83398438 769.837890625 1659.83398438 777.801757812 1663.07324219 c 128,-1,30
 785.764648438 1666.31152344 785.764648438 1666.31152344 793.239257812 1670.64257812 c 128,-1,31
 800.712890625 1674.97265625 800.712890625 1674.97265625 807.690429688 1680.38574219 c 128,-1,32
 814.66796875 1685.79785156 814.66796875 1685.79785156 821.180664062 1692.31152344 c 0,0,1
942.500976562 1787.86523438 m 0,33,34
 942.500976562 1757.65136719 942.500976562 1757.65136719 935.51171875 1730.40332031 c 128,-1,35
 928.522460938 1703.15527344 928.522460938 1703.15527344 914.563476562 1678.96777344 c 128,-1,36
 900.603515625 1654.78027344 900.603515625 1654.78027344 879.729492188 1633.7734375 c 0,37,38
 848.435546875 1602.28125 848.435546875 1602.28125 809.9375 1586.46386719 c 128,-1,39
 771.438476562 1570.64746094 771.438476562 1570.64746094 726.127929688 1570.64746094 c 0,40,41
 695.930664062 1570.64746094 695.930664062 1570.64746094 668.741210938 1577.67578125 c 128,-1,42
 641.552734375 1584.70507812 641.552734375 1584.70507812 617.46875 1598.74414062 c 128,-1,43
 593.385742188 1612.78222656 593.385742188 1612.78222656 572.529296875 1633.7734375 c 128,-1,44
 551.655273438 1654.78125 551.655273438 1654.78125 537.6953125 1678.96875 c 128,-1,45
 523.735351562 1703.15625 523.735351562 1703.15625 516.74609375 1730.40429688 c 128,-1,46
 509.755859375 1757.65234375 509.755859375 1757.65234375 509.755859375 1787.86523438 c 0,47,48
 509.755859375 1805.98339844 509.755859375 1805.98339844 512.272460938 1823.02929688 c 128,-1,49
 514.7890625 1840.07519531 514.7890625 1840.07519531 519.817382812 1856.01660156 c 128,-1,50
 524.846679688 1871.95800781 524.846679688 1871.95800781 532.375 1886.77929688 c 128,-1,51
 539.903320312 1901.60058594 539.903320312 1901.60058594 549.939453125 1915.29101562 c 128,-1,52
 559.975585938 1928.98144531 559.975585938 1928.98144531 572.494140625 1941.50292969 c 0,53,54
 603.793945312 1972.80175781 603.793945312 1972.80175781 642.299804688 1988.52050781 c 128,-1,55
 680.805664062 2004.23828125 680.805664062 2004.23828125 726.127929688 2004.23828125 c 128,-1,56
 771.451171875 2004.23828125 771.451171875 2004.23828125 809.95703125 1988.52050781 c 128,-1,57
 848.462890625 1972.80175781 848.462890625 1972.80175781 879.762695312 1941.50195312 c 128,-1,58
 911.063476562 1910.19628906 911.063476562 1910.19628906 926.782226562 1871.68945312 c 128,-1,59
 942.500976562 1833.18359375 942.500976562 1833.18359375 942.500976562 1787.86523438 c 0,33,34
EndSplineSet
EndChar

StartChar: uni0653
Encoding: 1619 1619 51
Width: -3
VWidth: 2798
GlyphClass: 4
Flags: W
AnchorPoint: "Anchor-10" 493.436 1585.5 mark 0
AnchorPoint: "Anchor-9" 493.436 1585.5 mark 0
AnchorPoint: "Anchor-1" 462.688 2058.18 basemark 0
AnchorPoint: "Anchor-1" 493.436 1585.5 mark 0
LayerCount: 2
Fore
SplineSet
826.241210938 1818.10449219 m 4,0,1
 787.583984375 1759.4296875 787.583984375 1759.4296875 738.362304688 1724.1640625 c 0,2,3
 688.609375 1688.88378906 688.609375 1688.88378906 583.765625 1689.1640625 c 0,4,5
 501.189453125 1688.88378906 501.189453125 1688.88378906 426.556640625 1692.64160156 c 0,6,7
 374.83984375 1695.20117188 374.83984375 1695.20117188 368.489257812 1696.11914062 c 0,8,9
 277.970703125 1695.20117188 277.970703125 1695.20117188 179.919921875 1607.88964844 c 1,10,11
 154.779296875 1623.60253906 154.779296875 1623.60253906 141.338867188 1642.35644531 c 1,12,13
 181.102539062 1754.16503906 181.102539062 1754.16503906 228.884765625 1800.45410156 c 4,14,15
 280.077148438 1849.98046875 280.077148438 1849.98046875 333.83984375 1849.65039062 c 4,16,17
 388.52734375 1849.98046875 388.52734375 1849.98046875 472.192382812 1839.06835938 c 4,18,19
 547.518554688 1828.921875 547.518554688 1828.921875 638.15625 1828.49023438 c 4,20,21
 720.197265625 1827.86914062 720.197265625 1827.86914062 797.500976562 1847.69921875 c 4,22,23
 854.970703125 1862.61523438 854.970703125 1862.61523438 826.241210938 1818.10449219 c 4,0,1
EndSplineSet
EndChar

StartChar: uni0657
Encoding: 1623 1623 54
Width: -24
VWidth: 2264
GlyphClass: 4
Flags: W
AnchorPoint: "Anchor-10" 696.444 1378.84 mark 0
AnchorPoint: "Anchor-9" 696.444 1378.84 mark 0
AnchorPoint: "Anchor-1" 726.444 1989.36 basemark 0
AnchorPoint: "Anchor-1" 696.444 1378.84 mark 0
LayerCount: 2
Fore
SplineSet
441.529296875 1779.81835938 m 1,0,1
 494.862304688 1778.87890625 494.862304688 1778.87890625 568.403320312 1770.94140625 c 1,2,3
 697.280273438 1954.10058594 697.280273438 1954.10058594 933.611328125 1966.8203125 c 1,4,-1
 933.611328125 1890.9375 l 1,5,6
 737.780273438 1869.61816406 737.780273438 1869.61816406 652.490234375 1747.20507812 c 1,7,8
 698.696289062 1736.74511719 698.696289062 1736.74511719 735.2421875 1717.93847656 c 0,9,10
 824.672851562 1673.140625 824.672851562 1673.140625 825.481445312 1581.40527344 c 0,11,12
 825.095703125 1501.02734375 825.095703125 1501.02734375 760.28515625 1448.2421875 c 0,13,14
 726.025390625 1420.17773438 726.025390625 1420.17773438 666 1420 c 0,15,16
 603.04296875 1420.17773438 603.04296875 1420.17773438 553.20703125 1469.06738281 c 0,17,18
 507.388671875 1514.69238281 507.388671875 1514.69238281 507.118164062 1593.05175781 c 0,19,20
 507.38671875 1625.98730469 507.38671875 1625.98730469 521.637695312 1671.79199219 c 2,21,-1
 530.418945312 1700.015625 l 1,22,-1
 500.90234375 1701.75976562 l 2,23,24
 467.533203125 1703.72265625 467.533203125 1703.72265625 441.529296875 1703.91308594 c 1,25,-1
 441.529296875 1779.81835938 l 1,0,1
667.498046875 1501.00195312 m 0,26,27
 697.557617188 1501.02734375 697.557617188 1501.02734375 719.194335938 1520.65234375 c 0,28,29
 739.690429688 1538.60644531 739.690429688 1538.60644531 745.407226562 1562.51953125 c 0,30,31
 755.6328125 1610.34570312 755.6328125 1610.34570312 726.025390625 1635.88867188 c 0,32,33
 703.250976562 1655.89550781 703.250976562 1655.89550781 654.163085938 1672.71484375 c 0,34,35
 637.204101562 1678.66992188 637.204101562 1678.66992188 609.872070312 1686.87890625 c 1,36,37
 583.676757812 1625.77246094 583.676757812 1625.77246094 583.1328125 1584.4140625 c 0,38,39
 583.684570312 1544.29980469 583.684570312 1544.29980469 609.453125 1522.66992188 c 0,40,41
 636.065429688 1501.02734375 636.065429688 1501.02734375 667.498046875 1501.00195312 c 0,26,27
EndSplineSet
EndChar

StartChar: uni065A
Encoding: 1626 1626 55
Width: 1497
VWidth: 3058
GlyphClass: 4
Flags: W
AnchorPoint: "Anchor-10" 756.444 1784.84 mark 0
AnchorPoint: "Anchor-9" 756.444 1784.84 mark 0
AnchorPoint: "Anchor-1" 753.443 2460.2 basemark 0
AnchorPoint: "Anchor-1" 756.444 1784.84 mark 0
LayerCount: 2
Fore
SplineSet
661.96875 1907.13671875 m 1,0,-1
 404.297851562 2337.91015625 l 1,1,-1
 545.697265625 2337.91015625 l 1,2,-1
 756.443359375 2021.77929688 l 1,3,-1
 967.192382812 2337.91015625 l 1,4,-1
 1108.59277344 2337.91015625 l 1,5,-1
 850.91796875 1907.13671875 l 1,6,-1
 661.96875 1907.13671875 l 1,0,-1
EndSplineSet
EndChar

StartChar: afii57392
Encoding: 1632 1632 56
Width: 992
VWidth: 3370
GlyphClass: 2
Flags: W
LayerCount: 2
Fore
SplineSet
507.176757812 862.424804688 m 5,0,-1
 731.428710938 638.171875 l 5,1,-1
 501.780273438 408.5234375 l 5,2,-1
 277.528320312 632.77734375 l 5,3,-1
 507.176757812 862.424804688 l 5,0,-1
EndSplineSet
EndChar

StartChar: afii57393
Encoding: 1633 1633 57
Width: 762
VWidth: 3360
GlyphClass: 2
Flags: W
LayerCount: 2
Fore
SplineSet
287.970703125 1439.34179688 m 0,0,1
 522.709960938 827.609375 522.709960938 827.609375 523.985351562 274 c 0,2,3
 524.528320312 38.248046875 524.528320312 38.248046875 445.610351562 18.2919921875 c 1,4,5
 444 571 444 571 141.784179688 1304.95214844 c 1,6,-1
 245.854492188 1445.65917969 l 2,7,8
 272.205078125 1481.90625 272.205078125 1481.90625 287.970703125 1439.34179688 c 0,0,1
EndSplineSet
EndChar

StartChar: afii57394
Encoding: 1634 1634 58
Width: 1088
VWidth: 3360
GlyphClass: 2
Flags: W
LayerCount: 2
Fore
SplineSet
446.208984375 927.709960938 m 5,0,1
 525 569 525 569 524.3515625 262 c 4,2,3
 524.005859375 35.2177734375 524.005859375 35.2177734375 445.201171875 18.4755859375 c 5,4,5
 445 572 445 572 142.486328125 1298.22363281 c 1,6,-1
 253.025390625 1445.65917969 l 2,7,8
 271 1470 271 1470 283.426757812 1442.96289062 c 0,9,10
 295 1417 295 1417 298.076171875 1406.96386719 c 0,11,12
 302 1397 302 1397 314.172851562 1364.12597656 c 0,13,14
 352 1267 352 1267 364.616210938 1237.15527344 c 0,15,16
 411 1123 411 1123 611.551757812 1122.86523438 c 0,17,18
 850.216796875 1121.99902344 850.216796875 1121.99902344 878.193359375 1393.91699219 c 2,19,-1
 883.350585938 1444.04296875 l 1,20,-1
 969.889648438 1430.69921875 l 1,21,-1
 967.53125 1373.82128906 l 2,22,23
 949 920 949 920 578.09375 920.0078125 c 0,24,25
 512 920 512 920 446.208984375 927.709960938 c 5,0,1
EndSplineSet
EndChar

StartChar: afii57395
Encoding: 1635 1635 59
Width: 1275
VWidth: 3360
GlyphClass: 2
Flags: W
LayerCount: 2
Fore
SplineSet
446.208984375 927.709960938 m 1,0,1
 525 569 525 569 524.3515625 262 c 0,2,3
 524 35 524 35 445.201171875 18.4755859375 c 1,4,5
 446 570 446 570 141.680664062 1298.22558594 c 1,6,-1
 255.245117188 1449.81640625 l 2,7,8
 274 1475 274 1475 284.525390625 1443.23242188 c 0,9,10
 321 1339 321 1339 345.694335938 1276.40625 c 0,11,12
 404 1123 404 1123 551.098632812 1122.87597656 c 0,13,14
 705.915039062 1122 705.915039062 1122 714.248046875 1295 c 2,15,-1
 719.434570312 1402.68261719 l 1,16,-1
 817.502929688 1400.1171875 l 1,17,-1
 822.467773438 1294.57617188 l 2,18,19
 831 1121 831 1121 935.24609375 1120.45117188 c 0,20,21
 1086.02539062 1121 1086.02539062 1121 1086.66699219 1376.2109375 c 2,22,-1
 1086.796875 1427.84277344 l 1,23,-1
 1183.73925781 1422.32128906 l 1,24,-1
 1183.60058594 1346.62109375 l 2,25,26
 1183 933 1183 933 939.889648438 932.266601562 c 0,27,28
 815 932 815 932 744.71875 1046.60546875 c 1,29,30
 647 898 647 898 446.208984375 927.709960938 c 1,0,1
EndSplineSet
EndChar

StartChar: afii57396
Encoding: 1636 1636 60
Width: 978
VWidth: 3367
GlyphClass: 2
Flags: W
LayerCount: 2
Fore
SplineSet
336.405273438 324.625976562 m 4,0,1
 517.5078125 283.235351562 517.5078125 283.235351562 834.029296875 336.5859375 c 5,2,-1
 829.725585938 148.1171875 l 6,3,4
 829.171875 105.291992188 829.171875 105.291992188 793.012695312 102.012695312 c 4,5,6
 696.50390625 92.6572265625 696.50390625 92.6572265625 610.1640625 93.330078125 c 4,7,8
 145.827148438 98.974609375 145.827148438 98.974609375 156.05078125 305.346679688 c 4,9,10
 164.779296875 489.607421875 164.779296875 489.607421875 462.627929688 700.16015625 c 5,11,12
 383.786132812 767.579101562 383.786132812 767.579101562 296.39453125 829.216796875 c 4,13,14
 142.66796875 938.151367188 142.66796875 938.151367188 142.513671875 1022.38574219 c 4,15,16
 142.66796875 1121.359375 142.66796875 1121.359375 242.6953125 1210.75195312 c 4,17,18
 341.669921875 1299.30371094 341.669921875 1299.30371094 633.329101562 1420.74511719 c 4,19,20
 713.747070312 1454.24804688 713.747070312 1454.24804688 700.014648438 1389.85449219 c 6,21,-1
 682.140625 1306.046875 l 6,22,23
 669.127929688 1243.49804688 669.127929688 1243.49804688 654.955078125 1178.078125 c 5,24,25
 530.142578125 1170.84667969 530.142578125 1170.84667969 342.72265625 1108.03613281 c 4,26,27
 262.701171875 1081.34863281 262.701171875 1081.34863281 354.3046875 1014.41601562 c 4,28,29
 385.892578125 990.797851562 385.892578125 990.797851562 516.454101562 892.677734375 c 4,30,31
 715.456054688 742.30859375 715.456054688 742.30859375 526.983398438 598.1796875 c 4,32,33
 431.16796875 524.354492188 431.16796875 524.354492188 317.453125 406.61328125 c 4,34,35
 256.3828125 343.251953125 256.3828125 343.251953125 336.405273438 324.625976562 c 4,0,1
EndSplineSet
EndChar

StartChar: afii57397
Encoding: 1637 1637 61
Width: 1062
VWidth: 3707
GlyphClass: 2
Flags: W
LayerCount: 2
Fore
SplineSet
506.013671875 1048.05273438 m 1,0,1
 217.424804688 717.038085938 217.424804688 717.038085938 217.060546875 506.517578125 c 0,2,3
 216.372070312 276.91796875 216.372070312 276.91796875 517.637695312 280.55078125 c 0,4,5
 833.383789062 284.288085938 833.383789062 284.288085938 830.056640625 526.827148438 c 0,6,7
 826.012695312 754.943359375 826.012695312 754.943359375 506.013671875 1048.05273438 c 1,0,1
115.48046875 492.766601562 m 0,8,9
 115.291992188 776.001953125 115.291992188 776.001953125 397.72265625 1135.72753906 c 1,10,-1
 315.166015625 1197.64648438 l 1,11,-1
 446.006835938 1422.17089844 l 1,12,13
 946.045898438 953.9453125 946.045898438 953.9453125 946.10546875 520.633789062 c 0,14,15
 946.045898438 63.1748046875 946.045898438 63.1748046875 509.624023438 62.267578125 c 0,16,17
 116.344726562 61.0693359375 116.344726562 61.0693359375 115.48046875 492.766601562 c 0,8,9
EndSplineSet
EndChar

StartChar: afii57398
Encoding: 1638 1638 62
Width: 1380
VWidth: 3370
GlyphClass: 2
Flags: W
LayerCount: 2
Fore
SplineSet
940.560546875 1365.17675781 m 5,0,1
 960.787109375 412.745117188 960.787109375 412.745117188 1159.1875 203.022460938 c 5,2,-1
 1047.78515625 16.5419921875 l 5,3,4
 947.098632812 117.926757812 947.098632812 117.926757812 888.3671875 347.71484375 c 4,5,6
 829.171875 580.159179688 829.171875 580.159179688 819.784179688 1164.82324219 c 5,7,8
 537.512695312 1046.60253906 537.512695312 1046.60253906 162.42578125 1149.21777344 c 4,9,10
 118.451171875 1161.37109375 118.451171875 1161.37109375 115.6796875 1391.51074219 c 4,11,12
 115.291992188 1425.65332031 115.291992188 1425.65332031 142.405273438 1415.95605469 c 4,13,14
 449.067382812 1300.35644531 449.067382812 1300.35644531 940.560546875 1365.17675781 c 5,0,1
EndSplineSet
EndChar

StartChar: afii57399
Encoding: 1639 1639 63
Width: 1181
VWidth: 3371
GlyphClass: 2
Flags: W
LayerCount: 2
Fore
SplineSet
116.21875 1253.15332031 m 5,0,1
 217.922851562 1457.00976562 l 5,2,3
 229.104492188 1468.86328125 229.104492188 1468.86328125 240.930664062 1447.35546875 c 4,4,5
 444.856445312 1089.77246094 444.856445312 1089.77246094 591.407226562 425.049804688 c 5,6,7
 729.14453125 1027.65039062 729.14453125 1027.65039062 963.625 1452.61425781 c 4,8,9
 976.580078125 1478.29980469 976.580078125 1478.29980469 984.109375 1458.50292969 c 6,10,-1
 1065.921875 1254.55175781 l 5,11,12
 723.879882812 651.7578125 723.879882812 651.7578125 628.52734375 20.775390625 c 5,13,-1
 554.03125 20.775390625 l 5,14,15
 460.649414062 661.233398438 460.649414062 661.233398438 116.21875 1253.15332031 c 5,0,1
EndSplineSet
EndChar

StartChar: afii57400
Encoding: 1640 1640 64
Width: 1181
VWidth: 3371
GlyphClass: 2
Flags: W
LayerCount: 2
Fore
SplineSet
116.21875 226.125 m 1,0,1
 460.649414062 818.044921875 460.649414062 818.044921875 554.03125 1458.50292969 c 1,2,-1
 628.52734375 1458.50292969 l 1,3,4
 723.879882812 827.521484375 723.879882812 827.521484375 1065.921875 224.7265625 c 1,5,-1
 984.109375 20.775390625 l 2,6,7
 976.580078125 0.978515625 976.580078125 0.978515625 963.625 26.6640625 c 0,8,9
 729.14453125 451.62890625 729.14453125 451.62890625 591.407226562 1054.22851562 c 1,10,11
 444.856445312 389.506835938 444.856445312 389.506835938 240.930664062 31.9228515625 c 0,12,13
 229.10546875 10.4150390625 229.10546875 10.4150390625 217.922851562 22.2685546875 c 1,14,-1
 116.21875 226.125 l 1,0,1
EndSplineSet
EndChar

StartChar: afii57401
Encoding: 1641 1641 65
Width: 1077
VWidth: 3371
GlyphClass: 2
Flags: W
LayerCount: 2
Fore
SplineSet
641.448242188 751.02734375 m 1,0,1
 518.560546875 721.25 518.560546875 721.25 425.903320312 721.112304688 c 0,2,3
 130.033203125 719.14453125 130.033203125 719.14453125 142.528320312 1005.50683594 c 0,4,5
 145.827148438 1081.34863281 145.827148438 1081.34863281 178.466796875 1191.90527344 c 0,6,7
 255.330078125 1447.76464844 255.330078125 1447.76464844 434.327148438 1449.62988281 c 0,8,9
 548.041992188 1450.92382812 548.041992188 1450.92382812 625.984375 1362.70117188 c 0,10,11
 731.25 1241.39257812 731.25 1241.39257812 751.3828125 909.72265625 c 0,12,13
 788.107421875 322.193359375 788.107421875 322.193359375 926.813476562 191.696289062 c 1,14,-1
 827.7109375 16.845703125 l 1,15,16
 763.890625 71.5986328125 763.890625 71.5986328125 720.640625 177.6015625 c 0,17,18
 653.333984375 340.092773438 653.333984375 340.092773438 641.448242188 751.02734375 c 1,0,1
295.212890625 937.037109375 m 0,19,20
 400.633789062 890.770507812 400.633789062 890.770507812 620.321289062 938.5859375 c 1,21,-1
 614.323242188 1000.90527344 l 2,22,23
 591.211914062 1238.234375 591.211914062 1238.234375 415.86328125 1238.14648438 c 0,24,25
 322.716796875 1238.234375 322.716796875 1238.234375 279.547851562 1151.89453125 c 0,26,27
 241.642578125 1077.13671875 241.642578125 1077.13671875 242.779296875 1012.90917969 c 0,28,29
 243.748046875 959.209960938 243.748046875 959.209960938 295.212890625 937.037109375 c 0,19,20
EndSplineSet
EndChar

StartChar: afii57381
Encoding: 1642 1642 66
Width: 1127
VWidth: 3613
GlyphClass: 2
Flags: W
LayerCount: 2
Fore
SplineSet
690 260 m 128,-1,1
 690 305 690 305 722 337 c 128,-1,2
 754 369 754 369 799 369 c 128,-1,3
 844 369 844 369 876 337 c 128,-1,4
 908 305 908 305 908 260 c 128,-1,5
 908 215 908 215 876 183 c 128,-1,6
 844 151 844 151 799 151 c 128,-1,7
 754 151 754 151 722 183 c 128,-1,0
 690 215 690 215 690 260 c 128,-1,1
238 1210 m 128,-1,9
 238 1255 238 1255 270 1287 c 128,-1,10
 302 1319 302 1319 347 1319 c 128,-1,11
 392 1319 392 1319 424 1287 c 128,-1,12
 456 1255 456 1255 456 1210 c 128,-1,13
 456 1165 456 1165 424 1133 c 128,-1,14
 392 1101 392 1101 347 1101 c 128,-1,15
 302 1101 302 1101 270 1133 c 128,-1,8
 238 1165 238 1165 238 1210 c 128,-1,9
796 1352.65722656 m 1,16,-1
 912.795898438 1352.55957031 l 1,17,-1
 296 0 l 1,18,-1
 169 0 l 5,19,-1
 796 1352.65722656 l 1,16,-1
EndSplineSet
EndChar

StartChar: uni066B
Encoding: 1643 1643 67
Width: 903
VWidth: 3616
GlyphClass: 2
Flags: W
LayerCount: 2
Fore
SplineSet
659.204101562 585.09765625 m 5,0,-1
 766 585 l 5,1,-1
 214.8046875 -411.223632812 l 1,2,-1
 105.8046875 -411.223632812 l 1,3,-1
 659.204101562 585.09765625 l 5,0,-1
EndSplineSet
EndChar

StartChar: uni066C
Encoding: 1644 1644 68
Width: 611
VWidth: 3440
GlyphClass: 2
Flags: W
LayerCount: 2
Fore
SplineSet
304.892578125 -60.833984375 m 5,0,-1
 276.36328125 -56.40234375 l 5,1,2
 216.958007812 -51.8623046875 216.958007812 -51.8623046875 188.791992188 -10.681640625 c 4,3,4
 158.551757812 33.5673828125 158.551757812 33.5673828125 171.55078125 97.9990234375 c 4,5,6
 182.287109375 150.486328125 182.287109375 150.486328125 227.13671875 182.16015625 c 4,7,8
 270.771484375 211.811523438 270.771484375 211.811523438 327.2109375 201.80078125 c 4,9,10
 379.509765625 192.51953125 379.509765625 192.51953125 412.182617188 146.091796875 c 4,11,12
 442.75390625 102.043945312 442.75390625 102.043945312 435.63671875 16.607421875 c 4,13,14
 415.87109375 -215.158203125 415.87109375 -215.158203125 167.368164062 -362.666992188 c 4,15,16
 139.50390625 -379.197265625 139.50390625 -379.197265625 130.495117188 -371.419921875 c 4,17,-1
 130.310546875 -371.266601562 l 6,18,19
 123.572265625 -366.8125 123.572265625 -366.8125 124.947265625 -360.731445312 c 132,-1,20
 126.321289062 -354.649414062 126.321289062 -354.649414062 137.75390625 -345.736328125 c 4,21,22
 210.591796875 -292.08203125 210.591796875 -292.08203125 261.727539062 -211.614257812 c 4,23,24
 313.6484375 -130.13671875 313.6484375 -130.13671875 305.33984375 -64.3740234375 c 6,25,-1
 304.892578125 -60.833984375 l 5,0,-1
EndSplineSet
EndChar

StartChar: uni066E
Encoding: 1646 1646 69
Width: 1830
VWidth: 3805
GlyphClass: 2
Flags: W
AnchorPoint: "Anchor-10" 682.879 1289.77 basechar 0
AnchorPoint: "Anchor-7" 538.407 -219.096 basechar 0
LayerCount: 2
Fore
SplineSet
812.381835938 -86.7607421875 m 0,0,1
 105 -87 105 -87 106.370117188 314.828125 c 4,2,3
 107 491 107 491 210.0703125 647.333007812 c 1,4,-1
 268.84375 623.546875 l 1,5,6
 216 490 216 490 214.10546875 404.04296875 c 0,7,8
 209 110 209 110 817.440429688 110.59375 c 0,9,10
 1238 111 1238 111 1446.73242188 196.661132812 c 0,11,12
 1616 266 1616 266 1605.23632812 316.994140625 c 0,13,14
 1580 434 1580 434 1518.77539062 552.366210938 c 1,15,-1
 1601.64550781 702.803710938 l 2,16,17
 1617 731 1617 731 1633.2734375 702.803710938 c 0,18,19
 1715 557 1715 557 1729.53613281 388.379882812 c 0,20,21
 1747 188 1747 188 1516 50.7370214113 c 0,22,23
 1282 -87 1282 -87 812.381835938 -86.7607421875 c 0,0,1
EndSplineSet
Substitution2: "'init' Initial Forms in Arabic lookup 13 subtable" uni066E.init
Substitution2: "'medi' Medial Forms in Arabic lookup 11 subtable" uni066E.medi
Substitution2: "'fina' Terminal Forms in Arabic lookup 9 subtable" uni066E.fina
EndChar

StartChar: uni066F
Encoding: 1647 1647 70
Width: 1384
VWidth: 3833
GlyphClass: 2
Flags: W
AnchorPoint: "Anchor-10" 586.456 1182.77 basechar 0
AnchorPoint: "Anchor-7" 607.438 -689.222 basechar 0
LayerCount: 2
Fore
SplineSet
668.990234375 -271.0625 m 0,0,1
 1033 -268 1033 -268 1181.66503906 -39.2216796875 c 1,2,3
 1198 42 1198 42 1181.37207031 144.7109375 c 1,4,5
 1092 114 1092 114 996.754882812 109.130859375 c 0,6,7
 839 101 839 101 771.986328125 168.599609375 c 0,8,9
 669 273 669 273 745.935546875 522.46484375 c 0,10,11
 818 755 818 755 979.416015625 754.07421875 c 0,12,13
 1116 754 1116 754 1192.20605469 617.442382812 c 0,14,15
 1249 517 1249 517 1268.25585938 356.939453125 c 0,16,17
 1291 168 1291 168 1276.81445312 31 c 0,18,19
 1254 -194 1254 -194 1099 -327.389648438 c 0,20,21
 935 -469 935 -469 658.168945312 -468.904296875 c 0,22,23
 116 -469 116 -469 115.147460938 -51.8583984375 c 0,24,25
 114.86156665 118.479689844 114.86156665 118.479689844 208.9921875 332.110351562 c 5,26,-1
 266 308.141601562 l 1,27,28
 216 136 216 136 215.18359375 40.4931640625 c 0,29,30
 212 -275 212 -275 668.990234375 -271.0625 c 0,0,1
1120.70605469 464.28515625 m 0,31,32
 1075 564 1075 564 971.084960938 563.481445312 c 0,33,34
 845 563 845 563 815.284179688 421.151367188 c 0,35,36
 809 391 809 391 808.930664062 373.172851562 c 0,37,38
 810 326 810 326 857.084960938 313.431640625 c 0,39,40
 906 301 906 301 970.110351562 300.719726562 c 0,41,42
 1088 302 1088 302 1162.28027344 339.486328125 c 1,43,44
 1151 398 1151 398 1120.70605469 464.28515625 c 0,31,32
EndSplineSet
Substitution2: "'init' Initial Forms in Arabic lookup 13 subtable" uni066F.init
Substitution2: "'medi' Medial Forms in Arabic lookup 11 subtable" uni066F.medi
Substitution2: "'fina' Terminal Forms in Arabic lookup 9 subtable" uni066F.fina
EndChar

StartChar: uni0670
Encoding: 1648 1648 71
Width: 0
VWidth: 3021
GlyphClass: 4
Flags: W
AnchorPoint: "Anchor-10" 768.713 1776.23 mark 0
AnchorPoint: "Anchor-9" 768.713 1776.23 mark 0
AnchorPoint: "Anchor-1" 756.758 2485.27 basemark 0
AnchorPoint: "Anchor-1" 768.713 1776.23 mark 0
LayerCount: 2
Fore
SplineSet
751.905273438 1838.15917969 m 1,0,-1
 696.809570312 2328.62207031 l 1,1,-1
 793 2385.26810159 l 2,2,3
 816.948242188 2399.37109375 816.948242188 2399.37109375 816.948242188 2370 c 6,4,-1
 816.948242188 1859.79492188 l 1,5,-1
 751.905273438 1838.15917969 l 1,0,-1
EndSplineSet
EndChar

StartChar: uni0674
Encoding: 1652 1652 72
Width: 814
VWidth: 2798
GlyphClass: 2
Flags: W
LayerCount: 2
Fore
SplineSet
626.256835938 2042.2734375 m 2,0,-1
 579.895507812 1947.32324219 l 1,1,2
 410.638671875 1915.26171875 410.638671875 1915.26171875 210.3359375 1802.06835938 c 1,3,-1
 231.486328125 1947.07324219 l 1,4,5
 272.706054688 1966.85449219 272.706054688 1966.85449219 313.591796875 1987.890625 c 1,6,7
 219.0078125 2031.08300781 219.0078125 2031.08300781 218.552734375 2123.09082031 c 0,8,9
 219.0078125 2251.14257812 219.0078125 2251.14257812 294.986328125 2335.26074219 c 0,10,11
 352.728515625 2399.60449219 352.728515625 2399.60449219 432.198242188 2399.56542969 c 0,12,13
 548.571289062 2399.60449219 548.571289062 2399.60449219 601.90234375 2273.44335938 c 1,14,-1
 579.640625 2236.15820312 l 1,15,16
 499.083984375 2272.20117188 499.083984375 2272.20117188 444.647460938 2271.78613281 c 0,17,18
 347.463867188 2271.1484375 347.463867188 2271.1484375 303.219726562 2202.80761719 c 0,19,20
 276.91796875 2161.64453125 276.91796875 2161.64453125 292.381835938 2127.62011719 c 0,21,22
 317.981445312 2070.04101562 317.981445312 2070.04101562 415.682617188 2046.81933594 c 0,23,24
 472.817382812 2032.89160156 472.817382812 2032.89160156 570.610351562 2069.71484375 c 0,25,26
 654.407226562 2101.26757812 654.407226562 2101.26757812 626.256835938 2042.2734375 c 2,0,-1
EndSplineSet
EndChar

StartChar: uni06A1
Encoding: 1697 1697 76
Width: 1746
VWidth: 3833
GlyphClass: 2
Flags: W
AnchorPoint: "Anchor-10" 762.25 1469.37 basechar 0
AnchorPoint: "Anchor-7" 545.276 -280.135 basechar 0
LayerCount: 2
Fore
SplineSet
1478.57226562 743.73046875 m 0,0,1
 1433.54003906 847 1433.54003906 847 1328.95117188 842.926757812 c 0,2,3
 1203.62402344 837.240234375 1203.62402344 837.240234375 1173.15136719 700.596679688 c 0,4,5
 1165.66699219 665.887695312 1165.66699219 665.887695312 1165.74414062 655.77734375 c 0,6,7
 1166.75195312 607.32421875 1166.75195312 607.32421875 1214.95214844 593.9296875 c 0,8,9
 1279.54003906 576.958007812 1279.54003906 576.958007812 1349.03613281 580.165039062 c 0,10,11
 1445.46972656 584.549804688 1445.46972656 584.549804688 1520.1484375 618.931640625 c 1,12,13
 1509.45507812 672.39453125 1509.45507812 672.39453125 1478.57226562 743.73046875 c 0,0,1
1634.94238281 465.420898438 m 24,14,15
 1640 299 1640 299 1613.56835938 214.733398438 c 0,16,17
 1516 -87 1516 -87 801.537109375 -86.7607421875 c 0,18,19
 107 -86 107 -86 106.305664062 311.669921875 c 4,20,21
 106 490 106 490 210.0703125 647.333007812 c 5,22,-1
 268.84375 623.546875 l 5,23,24
 216 490 216 490 214.10546875 404.04296875 c 4,25,26
 209 110 209 110 817.440429688 110.59375 c 0,27,28
 1221 111 1221 111 1402.08984375 193.041992188 c 0,29,30
 1563 266 1563 266 1533.07910156 424.15625 c 1,31,32
 1459 399 1459 399 1354.62207031 393.998046875 c 0,33,34
 1191 386 1191 386 1129.85351562 448.044921875 c 0,35,36
 1026 553 1026 553 1103.80273438 801.911132812 c 0,37,38
 1176 1033 1176 1033 1337.28222656 1033.51953125 c 0,39,40
 1470 1034 1470 1034 1550.07324219 896.887695312 c 0,41,42
 1625 768 1625 768 1634.94238281 465.420898438 c 24,14,15
1317.76171875 1033.51953125 m 1024,43,-1
EndSplineSet
Substitution2: "'init' Initial Forms in Arabic lookup 13 subtable" uni06A1.init
Substitution2: "'medi' Medial Forms in Arabic lookup 11 subtable" uni06A1.medi
Substitution2: "'fina' Terminal Forms in Arabic lookup 9 subtable" uni06A1.fina
EndChar

StartChar: uni06A9
Encoding: 1705 1705 77
Width: 2019
VWidth: 3805
GlyphClass: 2
Flags: W
AnchorPoint: "Anchor-7" 636.157 -327.146 basechar 0
AnchorPoint: "Anchor-10" 1167.31 1529.92 basechar 0
LayerCount: 2
Fore
SplineSet
1264.36035156 1136.62695312 m 1,0,1
 1898 579 1898 579 1725.0078125 266.7890625 c 0,2,3
 1581 6 1581 6 1136.56445312 -63.4091796875 c 0,4,5
 990 -86 990 -86 812.381835938 -86.7607421875 c 4,6,7
 111 -86 111 -86 106.33984375 306.405273438 c 4,8,9
 104 487 104 487 210.0703125 647.333007812 c 5,10,-1
 268.84375 623.546875 l 5,11,12
 216 490 216 490 214.10546875 404.04296875 c 4,13,14
 210 111 210 111 817.440429688 110.59375 c 4,15,16
 1415 111 1415 111 1611.83886719 314.5078125 c 0,17,18
 1671 376 1671 376 1664.17675781 440.689453125 c 0,19,20
 1657 508 1657 508 1388.16992188 778.676757812 c 0,21,22
 1257 911 1257 911 1124.24609375 1045.28125 c 0,23,24
 1099 1071 1099 1071 1098.34521504 1092 c 1,25,26
 1139.08886719 1230.97949219 l 2,27,28
 1144.03975332 1249.14586757 1144.03975332 1249.14586757 1156.14941406 1254.25195312 c 2,29,-1
 1952.17773438 1589.90039062 l 2,30,31
 1973.6976373 1598.87391857 1973.6976373 1598.87391857 1970.59765625 1578.96972656 c 2,32,-1
 1944.5859375 1411.95507812 l 1,33,-1
 1264.36035156 1136.62695312 l 1,0,1
EndSplineSet
Substitution2: "'init' Initial Forms in Arabic lookup 13 subtable" uniFB90
Substitution2: "'medi' Medial Forms in Arabic lookup 11 subtable" uniFB91
Substitution2: "'fina' Terminal Forms in Arabic lookup 9 subtable" uniFB8F
EndChar

StartChar: afii57509
Encoding: 1711 1711 78
Width: 2035
VWidth: 3805
GlyphClass: 2
Flags: W
AnchorPoint: "Anchor-7" 636.157 -327.146 basechar 0
AnchorPoint: "Anchor-10" 1173.95 1649.92 basechar 0
LayerCount: 2
Fore
SplineSet
817.440429688 110.59375 m 4,0,1
 1418 111 1418 111 1611.83886719 314.5078125 c 0,2,3
 1677 383 1677 383 1662.45214844 411.727539062 c 24,4,5
 1597 538 1597 538 1409.86035156 702.76171875 c 0,6,7
 1315 786 1315 786 1115.50585938 949.782226562 c 0,8,9
 1085 975 1085 975 1091.78222656 1009.81347656 c 0,10,11
 1099.32356767 1049.10664426 1099.32356767 1049.10664426 1130.34765625 1135.47949219 c 0,12,13
 1137.15361244 1154.42766588 1137.15361244 1154.42766588 1147.40917969 1158.75195312 c 2,14,-1
 1943.4375 1494.39941406 l 2,15,16
 1964.89248811 1502.95711697 1964.89248811 1502.95711697 1961.85742188 1483.46972656 c 2,17,-1
 1935.84570312 1316.45507812 l 1,18,-1
 1265.62011719 1041.12695312 l 1,19,20
 1609 777 1609 777 1712.46191406 553.8359375 c 0,21,22
 1805 356 1805 356 1679.40722656 198.848632812 c 0,23,24
 1517 -5 1517 -5 1136.56445312 -63.4091796875 c 0,25,26
 990 -86 990 -86 812.381835938 -86.7607421875 c 4,27,28
 111 -86 111 -86 106.33984375 306.405273438 c 4,29,30
 104 487 104 487 210.0703125 647.333007812 c 5,31,-1
 268.84375 623.546875 l 5,32,33
 216 490 216 490 214.10546875 404.04296875 c 4,34,35
 210 111 210 111 817.440429688 110.59375 c 4,0,1
EndSplineSet
Refer: 269 -1 N 1.1342 0 0 1.1342 1087.22 -709.869 2
Substitution2: "'init' Initial Forms in Arabic lookup 13 subtable" uniFB94
Substitution2: "'medi' Medial Forms in Arabic lookup 11 subtable" uniFB95
Substitution2: "'fina' Terminal Forms in Arabic lookup 9 subtable" uniFB93
EndChar

StartChar: afii57514
Encoding: 1722 1722 79
Width: 1378
VWidth: 3805
GlyphClass: 2
Flags: W
LayerCount: 2
Fore
SplineSet
668.51953125 -292.752929688 m 0,0,1
 1033 -291 1033 -291 1181.66503906 -60.9111328125 c 1,2,3
 1176 80 1176 80 1013.65722656 377.977539062 c 1,4,-1
 1098.31835938 512.857421875 l 2,5,6
 1121 549 1121 549 1141.31152344 512.959960938 c 0,7,8
 1207 399 1207 399 1243.27734375 261.567382812 c 0,9,10
 1337 -98 1337 -98 1141.62011719 -311.845703125 c 0,11,12
 979 -491 979 -491 657.168945312 -491.045898438 c 0,13,14
 115 -491 115 -491 114.147460938 -74 c 0,15,16
 114 14 114 14 140.059570312 117 c 0,17,18
 163 208 163 208 207.9921875 309.96875 c 1,19,-1
 265 286 l 1,20,21
 215 114 215 114 214.18359375 18.3515625 c 0,22,23
 211 -295 211 -295 668.51953125 -292.752929688 c 0,0,1
EndSplineSet
Substitution2: "'init' Initial Forms in Arabic lookup 13 subtable" uni06BA.init
Substitution2: "'medi' Medial Forms in Arabic lookup 11 subtable" uni06BA.medi
Substitution2: "'fina' Terminal Forms in Arabic lookup 9 subtable" uniFB9F
EndChar

StartChar: uni06F4
Encoding: 1780 1780 86
Width: 1187
VWidth: 3081
GlyphClass: 2
Flags: W
LayerCount: 2
Fore
SplineSet
445.201171875 18.4755859375 m 1,0,1
 445 558 445 558 142.291992188 1293.66210938 c 1,2,-1
 260.091796875 1450.78515625 l 1,3,-1
 269.0859375 1457.63769531 l 1,4,5
 278.631835938 1459.91210938 278.631835938 1459.91210938 283.969726562 1443.7890625 c 2,6,-1
 349.92578125 1244.58105469 l 2,7,8
 388 1129 388 1129 524.1875 1068.97265625 c 1,9,10
 494.380859375 1170.09863281 494.380859375 1170.09863281 538.095703125 1277.33300781 c 0,11,12
 604 1439 604 1439 777.623046875 1438.14160156 c 0,13,14
 937 1437 937 1437 995.96875 1264.92578125 c 1,15,-1
 974.479492188 1237.01171875 l 1,16,17
 760 1319 760 1319 664.516601562 1205.45800781 c 0,18,19
 618 1150 618 1150 618.818359375 1088.82617188 c 0,20,21
 620 1007 620 1007 691.567382812 986.595703125 c 0,22,23
 835 946 835 946 1033.04589844 1008.3984375 c 1,24,-1
 1058.66113281 957.3203125 l 1,25,26
 920 799 920 799 768.155273438 801.375 c 0,27,28
 562 804 562 804 446.208984375 947.709960938 c 1,29,30
 525 589 525 589 524.3515625 262 c 0,31,32
 524 35 524 35 445.201171875 18.4755859375 c 1,0,1
EndSplineSet
EndChar

StartChar: uni06F5
Encoding: 1781 1781 87
Width: 1133
VWidth: 3160
GlyphClass: 2
Flags: W
LayerCount: 2
Fore
SplineSet
590.791992188 490.31640625 m 1,0,1
 622.799804688 352.728515625 622.799804688 352.728515625 677.185546875 286.696289062 c 0,2,3
 731.25 220.060546875 731.25 220.060546875 811.971679688 220.991210938 c 0,4,5
 1013.43261719 222.166015625 1013.43261719 222.166015625 881.587890625 576.420898438 c 0,6,7
 782.84375 843.388671875 782.84375 843.388671875 527.150390625 1106.95019531 c 1,8,9
 443.802734375 981.321289062 443.802734375 981.321289062 355.49609375 814.1953125 c 0,10,11
 141.615234375 406.426757812 141.615234375 406.426757812 203.3359375 278.321289062 c 0,12,13
 231.11328125 220.060546875 231.11328125 220.060546875 313.737304688 220.8828125 c 0,14,15
 472.231445312 222.166015625 472.231445312 222.166015625 538.795898438 491.501953125 c 1,16,-1
 590.791992188 490.31640625 l 1,0,1
566.786132812 226.65234375 m 1,17,18
 493 27 493 27 302.965820312 26.580078125 c 0,19,20
 98 26 98 26 94.3291015625 326.75 c 0,21,22
 90 651 90 651 451 1196 c 5,23,-1
 403.762695312 1238.50097656 l 5,24,-1
 490.969726562 1408.40820312 l 2,25,26
 507.12109375 1439.87695312 507.12109375 1439.87695312 536.555664062 1410.11816406 c 0,27,28
 1039 914 1039 914 1039.32714844 357.716796875 c 0,29,30
 1040 27 1040 27 819.884765625 27.00390625 c 0,31,32
 649 27 649 27 566.786132812 226.65234375 c 1,17,18
EndSplineSet
EndChar

StartChar: uni06F6
Encoding: 1782 1782 88
Width: 1105
VWidth: 3371
GlyphClass: 2
Flags: W
LayerCount: 2
Fore
SplineSet
804.560546875 1241.43359375 m 1,0,1
 662.810546875 1278.24511719 662.810546875 1278.24511719 590.1796875 1278.04101562 c 0,2,3
 453.279296875 1278.24511719 453.279296875 1278.24511719 371.09765625 1174.89941406 c 0,4,5
 282.706054688 1063.44921875 282.706054688 1063.44921875 347.03515625 1006.40429688 c 0,6,7
 428.008789062 932.88671875 428.008789062 932.88671875 690.149414062 937.44921875 c 0,8,9
 731.25 938.151367188 731.25 938.151367188 788.431640625 961.782226562 c 0,10,11
 878.659179688 999.220703125 878.659179688 999.220703125 926.653320312 1017.19042969 c 0,12,13
 1011.78515625 1049.53515625 1011.78515625 1049.53515625 978.783203125 958.786132812 c 2,14,-1
 938.375976562 847.676757812 l 1,15,16
 537.512695312 680.186523438 537.512695312 680.186523438 206.090820312 12.8662109375 c 1,17,18
 146.62890625 67.9375 146.62890625 67.9375 213.7265625 227.430664062 c 0,19,20
 358.690429688 572.009765625 358.690429688 572.009765625 519.868164062 743.071289062 c 1,21,22
 214.266601562 820.224609375 214.266601562 820.224609375 214.153320312 1064.97753906 c 0,23,24
 214.266601562 1121.359375 214.266601562 1121.359375 248.40625 1201.59960938 c 0,25,26
 364.833984375 1470.9296875 364.833984375 1470.9296875 580.724609375 1470.34375 c 0,27,28
 761.78515625 1469.87597656 761.78515625 1469.87597656 845.350585938 1287.71777344 c 1,29,-1
 804.560546875 1241.43359375 l 1,0,1
EndSplineSet
EndChar

StartChar: uniFB8F
Encoding: 64399 64399 103
Width: 2324
VWidth: 3805
GlyphClass: 2
Flags: W
AnchorPoint: "Anchor-10" 1167.31 1529.92 basechar 0
AnchorPoint: "Anchor-7" 636.157 -327.146 basechar 0
LayerCount: 2
Fore
SplineSet
1265.41308594 1136.62695312 m 1,0,1
 1592 810 1592 810 1818.71875 529.555664062 c 24,2,3
 2085.99842074 199.001953125 2085.99842074 199.001953125 2307.19433594 199.001953125 c 2,4,-1
 2330.11230469 199.001953125 l 2,5,6
 2368.85449219 199.000007308 2368.85449219 199.000007308 2368.85449219 102.1328125 c 2,7,-1
 2368.85449219 94.7626953125 l 2,8,9
 2369 0 2369 0 2330.11230469 0 c 2,10,-1
 2307.62597656 0 l 2,11,12
 2003 0 2003 0 1766.56835938 371.065429688 c 1,13,14
 1756 321 1756 321 1730.67773438 275.46484375 c 0,15,16
 1536 -87 1536 -87 812.381835938 -86.7607421875 c 0,17,18
 104 -86 104 -86 106.30859375 314.828125 c 4,19,20
 107 492 107 492 210.0703125 647.333007812 c 5,21,-1
 268.84375 623.546875 l 5,22,23
 216 490 216 490 214.10546875 404.04296875 c 4,24,25
 210 111 210 111 817.440429688 110.59375 c 0,26,27
 1417 111 1417 111 1610.49316406 313.459960938 c 0,28,29
 1675 381 1675 381 1667.3359375 441.7421875 c 0,30,31
 1659 505 1659 505 1389.22265625 778.676757812 c 0,32,33
 1131 1039 1131 1039 1125.29882812 1045.28125 c 0,34,35
 1098 1076 1098 1076 1098.33911646 1094 c 1,36,37
 1140.14160156 1230.97949219 l 2,38,39
 1146.19911538 1249.61248143 1146.19911538 1249.61248143 1157.20214844 1254.25195312 c 2,40,-1
 1953.23046875 1589.90039062 l 2,41,42
 1974.75399291 1598.89716965 1974.75399291 1598.89716965 1971.65039062 1578.96972656 c 2,43,-1
 1945.63867188 1411.95507812 l 1,44,-1
 1265.41308594 1136.62695312 l 1,0,1
EndSplineSet
EndChar

StartChar: uniFB93
Encoding: 64403 64403 107
Width: 2237
VWidth: 3805
GlyphClass: 2
Flags: W
AnchorPoint: "Anchor-7" 636.157 -327.146 basechar 0
AnchorPoint: "Anchor-10" 1187.01 1591.92 basechar 0
LayerCount: 2
Fore
SplineSet
1265.62011719 1041.12695312 m 1,0,1
 1549 807 1549 807 1798.38769531 500.13671875 c 0,2,3
 2043.998407 199.001953125 2043.998407 199.001953125 2219.80175781 199.001953125 c 2,4,-1
 2242.71972656 199.001953125 l 2,5,6
 2281.46191406 198.999976432 2281.46191406 198.999976432 2281.46191406 102.1328125 c 2,7,-1
 2281.46191406 94.7626953125 l 2,8,9
 2281 0 2281 0 2242.71972656 0 c 2,10,-1
 2220.234375 0 l 2,11,12
 1981 0 1981 0 1735.07519531 304.74609375 c 1,13,14
 1719 248 1719 248 1679.40722656 198.848632812 c 0,15,16
 1517 -5 1517 -5 1136.56445312 -63.4091796875 c 0,17,18
 990 -86 990 -86 812.381835938 -86.7607421875 c 0,19,20
 111 -88 111 -88 106.33984375 306.405273438 c 4,21,22
 104 487 104 487 210.0703125 647.333007812 c 5,23,-1
 268.84375 623.546875 l 5,24,25
 216 490 216 490 214.10546875 404.04296875 c 4,26,27
 210 111 210 111 817.440429688 110.59375 c 0,28,29
 1412 111 1412 111 1611.83886719 314.5078125 c 0,30,31
 1680 384 1680 384 1663.50488281 415.939453125 c 0,32,33
 1607 528 1607 528 1409.86035156 702.76171875 c 0,34,35
 1261 835 1261 835 1115.50585938 949.782226562 c 0,36,37
 1085 974 1085 974 1091.78222656 1009.81347656 c 0,38,39
 1099 1049 1099 1049 1130.34765625 1135.47949219 c 0,40,41
 1137.15361244 1154.42766588 1137.15361244 1154.42766588 1147.40917969 1158.75195312 c 2,42,-1
 1943.4375 1494.39941406 l 2,43,44
 1964.89248811 1502.95711697 1964.89248811 1502.95711697 1961.85742188 1483.46972656 c 2,45,-1
 1935.84570312 1316.45507812 l 1,46,-1
 1265.62011719 1041.12695312 l 1,0,1
EndSplineSet
Refer: 269 -1 N 1.1342 0 0 1.1342 1087.22 -709.869 2
EndChar

StartChar: uniFB94
Encoding: 64404 64404 108
Width: 946
VWidth: 3805
GlyphClass: 2
Flags: W
AnchorPoint: "Anchor-7" 340.687 -298.871 basechar 0
AnchorPoint: "Anchor-10" 294.851 1724.67 basechar 0
LayerCount: 2
Fore
SplineSet
-5.2646484375 199.001953125 m 2,0,-1
 98.1884765625 199.001953125 l 2,1,2
 391.686523438 199.001953125 391.686523438 199.001953125 523.362304688 311.229492188 c 0,3,4
 580.159179688 360.098632812 580.159179688 360.098632812 577.944335938 411.727539062 c 0,5,6
 573.569335938 491.40234375 573.569335938 491.40234375 325.352539062 702.76171875 c 0,7,8
 109.50390625 886.55859375 109.50390625 886.55859375 30.998046875 949.782226562 c 0,9,10
 1.5478515625 975.8359375 1.5478515625 975.8359375 7.2744140625 1009.81347656 c 0,11,12
 15.7939453125 1053.97265625 15.7939453125 1053.97265625 45.83984375 1135.47949219 c 0,13,14
 52.83203125 1154.50585938 52.83203125 1154.50585938 62.9013671875 1158.75195312 c 2,15,-1
 858.9296875 1494.39941406 l 2,16,17
 880.497070312 1503.6796875 880.497070312 1503.6796875 877.349609375 1483.46972656 c 2,18,-1
 851.337890625 1316.45507812 l 1,19,-1
 181.112304688 1041.12695312 l 1,20,21
 674.921875 661.233398438 674.921875 661.233398438 671.848632812 368.732421875 c 0,22,23
 668.604492188 0 668.604492188 0 98.16796875 0 c 2,24,-1
 -5.2646484375 0 l 2,25,26
 -84.2080078125 0 -84.2080078125 0 -84.2080078125 93.7099609375 c 2,27,-1
 -84.2080078125 104.239257812 l 2,28,29
 -84.2333984375 199.001953125 -84.2333984375 199.001953125 -5.2646484375 199.001953125 c 2,0,-1
EndSplineSet
Refer: 269 -1 N 1.1342 0 0 1.1342 -2.54317 -709.869 2
EndChar

StartChar: uniFB95
Encoding: 64405 64405 109
Width: 1154
VWidth: 3805
GlyphClass: 2
Flags: W
AnchorPoint: "Anchor-7" 340.687 -298.871 basechar 0
AnchorPoint: "Anchor-10" 285.102 1697.03 basechar 0
LayerCount: 2
Fore
SplineSet
181.112304688 1041.12695312 m 1,0,1
 470 804 470 804 708.615234375 505.401367188 c 0,2,3
 953.998435819 199.001953125 953.998435819 199.001953125 1135.66894531 199.001953125 c 2,4,-1
 1158.5859375 199.001953125 l 2,5,6
 1197.32910156 198.999983267 1197.32910156 198.999983267 1197.32910156 102.1328125 c 2,7,-1
 1197.32910156 94.7626953125 l 2,8,9
 1197 0 1197 0 1158.5859375 0 c 2,10,-1
 1136.10058594 0 l 2,11,12
 911 0 911 0 666.498046875 304.520507812 c 1,13,14
 616 0 616 0 98.16796875 0 c 2,15,-1
 -5.2646484375 0 l 2,16,17
 -84.2080078125 0 -84.2080078125 0 -84.2080078125 93.7099609375 c 2,18,-1
 -84.2080078125 104.239257812 l 2,19,20
 -83.9999957127 199.001953125 -83.9999957127 199.001953125 -5.2646484375 199.001953125 c 2,21,-1
 98.1884765625 199.001953125 l 2,22,23
 381 199 381 199 523.362304688 311.229492188 c 0,24,25
 580 356 580 356 577.944335938 411.727539062 c 0,26,27
 575 486 575 486 325.352539062 702.76171875 c 24,28,29
 164 842 164 842 30.998046875 949.782226562 c 0,30,31
 1 974 1 974 7.2744140625 1009.81347656 c 0,32,33
 16 1054 16 1054 45.83984375 1135.47949219 c 0,34,35
 53.2665254235 1154.68939643 53.2665254235 1154.68939643 62.9013671875 1158.75195312 c 2,36,-1
 858.9296875 1494.39941406 l 2,37,38
 880.417922969 1503.1705899 880.417922969 1503.1705899 877.349609375 1483.46972656 c 2,39,-1
 851.337890625 1316.45507812 l 1,40,-1
 181.112304688 1041.12695312 l 1,0,1
EndSplineSet
Refer: 269 -1 N 1.1342 0 0 1.1342 -2.54317 -709.869 2
EndChar

StartChar: uniFB9F
Encoding: 64415 64415 111
Width: 1503
VWidth: 3805
GlyphClass: 2
Flags: W
AnchorPoint: "Anchor-10" 568.681 1020.29 basechar 0
AnchorPoint: "Anchor-7" 441.809 -1027.56 basechar 0
LayerCount: 2
Fore
SplineSet
1508.6484375 0 m 6,0,-1
 1476.38183594 0 l 6,1,2
 1339 0 1339 0 1266.828125 60.6728515625 c 5,3,4
 1309 -237 1309 -237 1141.62011719 -420.295898438 c 4,5,6
 979 -599 979 -599 657.168945312 -599.045898438 c 4,7,8
 115 -599 115 -599 114.147460938 -182 c 4,9,10
 113.861530395 -11.3657414983 113.861530395 -11.3657414983 207.9921875 201.96875 c 5,11,-1
 265 178 l 5,12,13
 215 6 215 6 214.18359375 -89.6484375 c 4,14,15
 211 -403 211 -403 667.990234375 -401.204101562 c 4,16,17
 1033 -399 1033 -399 1181.66503906 -169.361328125 c 5,18,19
 1176 -28 1176 -28 1013.65722656 269.52734375 c 5,20,-1
 1098.31835938 404.40625 l 6,21,22
 1122 442 1122 442 1141.31152344 404.509765625 c 4,23,24
 1190 309 1190 309 1213.85742188 268.958007812 c 20,25,26
 1254.82000748 202.292931103 1254.82000748 202.292931103 1466.46875 199.548828125 c 6,27,-1
 1508.6484375 199.001953125 l 6,28,29
 1547.39160156 197.98976922 1547.39160156 197.98976922 1547.39160156 102.1328125 c 6,30,-1
 1547.39160156 94.7626953125 l 6,31,32
 1547 0 1547 0 1508.6484375 0 c 6,0,-1
EndSplineSet
EndChar

StartChar: uniFBE8
Encoding: 64488 64488 114
Width: 621
VWidth: 3804
GlyphClass: 2
Flags: W
AnchorPoint: "Anchor-10" 328.669 1291.79 basechar 0
AnchorPoint: "Anchor-7" 356.746 -264.901 basechar 0
LayerCount: 2
Fore
SplineSet
-5.2646484375 199.001953125 m 6,0,-1
 99.4423828125 199.001953125 l 6,1,2
 385 199 385 199 399.243164062 271.548828125 c 4,3,4
 406 308 406 308 370.013671875 403.744140625 c 4,5,6
 344 473 344 473 307 551 c 5,7,-1
 388.204101562 701.267578125 l 6,8,9
 406 734 406 734 419.234375 707.774414062 c 4,10,11
 521 515 521 515 520.557617188 330.74609375 c 4,12,13
 520 216 520 216 446.634765625 128.038085938 c 4,14,15
 341 0 341 0 102.392578125 0 c 6,16,-1
 -5.2646484375 0 l 6,17,18
 -84.2080078125 0 -84.2080078125 0 -84.2080078125 93.7099609375 c 2,19,-1
 -84.2080078125 104.239257812 l 2,20,21
 -84 199 -84 199 -5.2646484375 199.001953125 c 6,0,-1
EndSplineSet
EndChar

StartChar: uniFBE9
Encoding: 64489 64489 115
Width: 833
VWidth: 3804
GlyphClass: 2
Flags: W
AnchorPoint: "Anchor-10" 403.594 1177.75 basechar 0
AnchorPoint: "Anchor-7" 377.531 -223.18 basechar 0
LayerCount: 2
Fore
SplineSet
816.012695312 0 m 6,0,1
 555 0 555 0 463.48828125 158.046875 c 5,2,3
 355 0 355 0 45.8779296875 0 c 6,4,-1
 -5.2646484375 0 l 2,5,6
 -84.2080078125 0 -84.2080078125 0 -84.2080078125 93.7099609375 c 2,7,-1
 -84.2080078125 104.239257812 l 2,8,9
 -83.9999957127 199.001953125 -83.9999957127 199.001953125 -5.2646484375 199.001953125 c 2,10,-1
 41.873046875 199.001953125 l 6,11,12
 409.522657173 199.000002533 409.522657173 199.000002533 414.938476562 395.639648438 c 6,13,-1
 417.547851562 490.381835938 l 5,14,-1
 497.930664062 490.381835938 l 5,15,-1
 502.577148438 398.885742188 l 6,16,17
 512.999898156 199.001953125 512.999898156 199.001953125 815.581054688 199.001953125 c 6,18,-1
 838.499023438 199.001953125 l 6,19,20
 877.241210938 198.999987764 877.241210938 198.999987764 877.241210938 102.1328125 c 6,21,-1
 877.241210938 94.7626953125 l 6,22,23
 877 0 877 0 838.499023438 0 c 6,24,-1
 816.012695312 0 l 6,0,1
EndSplineSet
EndChar

StartChar: uniFE73
Encoding: 65139 65139 123
Width: 942
VWidth: 3616
GlyphClass: 2
Flags: W
AnchorPoint: "Anchor-10" 348.849 2090.98 basechar 0
AnchorPoint: "Anchor-7" 348.849 -211.072 basechar 0
LayerCount: 2
Fore
SplineSet
441.3203125 520.219726562 m 2,0,1
 441.3203125 407.901367188 441.3203125 407.901367188 534.015625 314.649414062 c 128,-1,2
 626.711914062 221.397460938 626.711914062 221.397460938 851.754882812 221.397460938 c 2,3,-1
 947.8203125 221.397460938 l 1,4,-1
 947.8203125 2.7548828125 l 1,5,-1
 754.358398438 2.7548828125 l 2,6,7
 518.453125 3.2294921875 518.453125 3.2294921875 370.420898438 144.850585938 c 0,8,9
 222.681640625 286.631835938 222.681640625 286.631835938 222.681640625 498.971679688 c 2,10,-1
 222.681640625 538.368164062 l 1,11,-1
 441.3203125 538.368164062 l 1,12,-1
 441.3203125 520.219726562 l 2,0,1
EndSplineSet
EndChar

StartChar: uniFE8E
Encoding: 65166 65166 149
Width: 588
VWidth: 3764
GlyphClass: 2
Flags: W
AnchorPoint: "Anchor-10" 245.76 1723.01 basechar 0
AnchorPoint: "Anchor-7" 305.139 -234.32 basechar 0
LayerCount: 2
Fore
SplineSet
572.356445312 199.001953125 m 2,0,1
 593.16796875 199.001953125 l 2,2,3
 631.911132812 199.00000447 631.911132812 199.00000447 631.911132812 102.1328125 c 6,4,-1
 631.911132812 94.7626953125 l 6,5,6
 632 0 632 0 593.16796875 0 c 2,7,-1
 572.788085938 0 l 2,8,9
 322 0 322 0 249.016601562 130.140625 c 0,10,11
 200 217 200 217 201.64453125 529.239257812 c 0,12,13
 205 1185 205 1185 173.521484375 1463.63378906 c 1,14,-1
 285.541992188 1581.32910156 l 2,15,16
 336 1634 336 1634 336.456054688 1554.73144531 c 0,17,18
 339 1401 339 1401 335.068359375 1202 c 0,19,20
 326 662 326 662 324.487304688 616.696289062 c 0,21,22
 320 341 320 341 351.586914062 281.793945312 c 0,23,24
 395 199 395 199 572.356445312 199.001953125 c 2,0,1
EndSplineSet
EndChar

StartChar: uniFEA2
Encoding: 65186 65186 169
Width: 1337
VWidth: 3798
GlyphClass: 2
Flags: W
AnchorPoint: "Anchor-10" 572.798 1146.94 basechar 0
AnchorPoint: "Anchor-7" 428.792 -826.821 basechar 0
LayerCount: 2
Fore
SplineSet
1292.98535156 0 m 2,0,1
 913.548833467 0 913.548833467 0 889.11328125 392.752929688 c 2,2,-1
 886.55859375 433.814453125 l 1,3,4
 717 406 717 406 576.313476562 335.451171875 c 0,5,6
 206 149 206 149 206.896484375 -151.811523438 c 0,7,8
 207 -294 207 -294 347.887695312 -375.379882812 c 0,9,10
 485 -455 485 -455 767.83203125 -454.5 c 0,11,12
 930 -454 930 -454 1148.97460938 -427.982421875 c 0,13,14
 1191 -423 1191 -423 1196.60839844 -422.328125 c 1,15,16
 1200 -427 1200 -427 1191.3125 -446.153320312 c 0,17,18
 1096 -646 1096 -646 757.233398438 -646.188476562 c 0,19,20
 399 -647 399 -647 251.985351562 -508.235351562 c 0,21,22
 113 -377 113 -377 113.118164062 -156.7421875 c 0,23,24
 114 76 114 76 242.423828125 257.155273438 c 0,25,26
 430 519 430 519 771.084960938 577.084960938 c 1,27,28
 660 598 660 598 610.577148438 609.078125 c 0,29,30
 498 635 498 635 395.845703125 646.493164062 c 0,31,32
 273 660 273 660 164.352539062 526.86328125 c 1,33,-1
 104.905273438 563.408203125 l 1,34,35
 217 833 217 833 393.026367188 824.318359375 c 0,36,37
 485 820 485 820 972.803710938 675.006835938 c 0,38,39
 1074 645 1074 645 1199.46484375 643.3125 c 0,40,41
 1217.96056657 643.000664842 1217.96056657 643.000664842 1212.34179688 630.541015625 c 2,42,-1
 1139.81738281 469.717773438 l 1,43,44
 1122 468 1122 468 980.39453125 447.184570312 c 1,45,-1
 981.470703125 429.638671875 l 2,46,47
 995.999876961 199.001953125 995.999876961 199.001953125 1292.55371094 199.001953125 c 2,48,-1
 1341.7890625 199.001953125 l 2,49,50
 1380.53125 199.000023349 1380.53125 199.000023349 1380.53125 102.1328125 c 2,51,-1
 1380.53125 94.7626953125 l 2,52,53
 1381 0 1381 0 1341.7890625 0 c 2,54,-1
 1292.98535156 0 l 2,0,1
EndSplineSet
EndChar

StartChar: uniFEA3
Encoding: 65187 65187 170
Width: 1472
VWidth: 3805
GlyphClass: 2
Flags: W
AnchorPoint: "Anchor-10" 578.444 1217.68 basechar 0
AnchorPoint: "Anchor-7" 548.039 -238.817 basechar 0
LayerCount: 2
Fore
SplineSet
51.353515625 199.001953125 m 6,0,1
 379.843577023 199.001953125 379.843577023 199.001953125 669.633789062 325.112304688 c 6,2,-1
 952.635742188 448.268554688 l 5,3,4
 783 522 783 522 730.673828125 540.504882812 c 4,5,6
 535 612 535 612 456.8359375 611.649414062 c 4,7,8
 299 612 299 612 192.806640625 479.004882812 c 5,9,-1
 133.359375 515.55078125 l 5,10,11
 270 810 270 810 475.064453125 808.073242188 c 4,12,13
 588 807 588 807 834.89453125 692.471679688 c 4,14,15
 1085 576 1085 576 1200.87988281 560.6875 c 4,16,17
 1279 550 1279 550 1371.31054688 549.158203125 c 4,18,19
 1401.37906179 548.997980133 1401.37906179 548.997980133 1385.60742188 519.529296875 c 6,20,-1
 1307.71386719 373.98828125 l 5,21,22
 1247 373 1247 373 1202.98046875 370.936523438 c 4,23,24
 1106 367 1106 367 1007.13671875 319.791992188 c 4,25,26
 810 225 810 225 721.9609375 176.751953125 c 4,27,28
 396 0 396 0 51.3330078125 0 c 6,29,-1
 -5.2646484375 0 l 2,30,31
 -84.2080078125 0 -84.2080078125 0 -84.2080078125 93.7099609375 c 2,32,-1
 -84.2080078125 104.239257812 l 2,33,34
 -83.9999957127 199.001953125 -83.9999957127 199.001953125 -5.2646484375 199.001953125 c 2,35,-1
 51.353515625 199.001953125 l 6,0,1
EndSplineSet
EndChar

StartChar: uniFEA4
Encoding: 65188 65188 171
Width: 1510
VWidth: 3805
GlyphClass: 2
Flags: W
AnchorPoint: "Anchor-10" 578.444 1217.68 basechar 0
AnchorPoint: "Anchor-7" 548.039 -238.817 basechar 0
LayerCount: 2
Fore
SplineSet
1306.78710938 199.001953125 m 6,0,1
 1515.01855469 199.001953125 l 6,2,3
 1553.76171875 199.000011939 1553.76171875 199.000011939 1553.76171875 102.1328125 c 6,4,-1
 1553.76171875 94.7626953125 l 6,5,6
 1554 0 1554 0 1515.01855469 0 c 6,7,-1
 1307.21972656 0 l 6,8,9
 957 0 957 0 969.7265625 313.334960938 c 5,10,11
 846 246 846 246 722 179.525390625 c 4,12,13
 386 0 386 0 51.3330078125 0 c 6,14,-1
 -5.2646484375 0 l 2,15,16
 -84.2080078125 0 -84.2080078125 0 -84.2080078125 93.7099609375 c 2,17,-1
 -84.2080078125 104.239257812 l 2,18,19
 -83.9999957127 199.001953125 -83.9999957127 199.001953125 -5.2646484375 199.001953125 c 2,20,-1
 51.353515625 199.001953125 l 6,21,22
 379.839091116 199.000000956 379.839091116 199.000000956 669.633789062 325.112304688 c 6,23,-1
 952.635742188 448.268554688 l 5,24,25
 783 522 783 522 730.673828125 540.504882812 c 4,26,27
 535 612 535 612 456.8359375 611.649414062 c 4,28,29
 297 610 297 610 192.806640625 479.004882812 c 5,30,-1
 133.359375 515.55078125 l 5,31,32
 270 810 270 810 475.064453125 808.073242188 c 4,33,34
 588 807 588 807 834.89453125 692.471679688 c 4,35,36
 1085 576 1085 576 1200.87988281 560.6875 c 4,37,38
 1279 550 1279 550 1371.31054688 549.158203125 c 4,39,40
 1401.37906179 548.997980133 1401.37906179 548.997980133 1385.60742188 519.529296875 c 6,41,-1
 1307.71386719 373.98828125 l 5,42,43
 1103 367 1103 367 1070.90136719 344.715820312 c 5,44,45
 1058 199 1058 199 1306.78710938 199.001953125 c 6,0,1
EndSplineSet
EndChar

StartChar: uniFEAA
Encoding: 65194 65194 177
Width: 1223
VWidth: 3796
GlyphClass: 2
Flags: W
AnchorPoint: "Anchor-7" 429.505 -231.64 basechar 0
AnchorPoint: "Anchor-10" 717.225 1306.18 basechar 0
LayerCount: 2
Fore
SplineSet
1203.48730469 0 m 2,0,1
 965 0 965 0 847.591796875 236.845703125 c 1,2,-1
 759.155273438 96.2333984375 l 1,3,4
 630 0 630 0 417.026367188 0.1572265625 c 0,5,6
 113 -0 113 -0 113.741210938 259.197265625 c 0,7,8
 114 311 114 311 136.294921875 403.462890625 c 1,9,-1
 191.530273438 392.500976562 l 1,10,11
 187 360 187 360 187.958984375 340.588867188 c 0,12,13
 193 203 193 203 430.833007812 202.641601562 c 0,14,15
 652 202 652 202 734.186523438 249.8984375 c 0,16,17
 806.847126822 291.911607027 806.847126822 291.911607027 784.655273438 387.765625 c 6,18,-1
 670 883 l 1,19,-1
 738.36328125 981.81640625 l 2,20,21
 769.253248006 1027.3734948 769.253248006 1027.3734948 779.826171875 977.479492188 c 2,22,-1
 895.287109375 432.615234375 l 2,23,24
 944.999584379 199.001953125 944.999584379 199.001953125 1203.05566406 199.001953125 c 2,25,-1
 1228.07910156 199.001953125 l 2,26,27
 1266.82128906 199.000008968 1266.82128906 199.000008968 1266.82128906 102.1328125 c 2,28,-1
 1266.82128906 94.7626953125 l 2,29,30
 1267 0 1267 0 1228.07910156 0 c 2,31,-1
 1203.48730469 0 l 2,0,1
EndSplineSet
EndChar

StartChar: uniFEAE
Encoding: 65198 65198 181
Width: 922
VWidth: 3804
GlyphClass: 2
Flags: W
AnchorPoint: "Anchor-10" 550.105 897.34 basechar 0
AnchorPoint: "Anchor-7" 331.096 -783.978 basechar 0
LayerCount: 2
Fore
SplineSet
902.352539062 0 m 2,0,1
 767 0 767 0 709.330078125 50.9716796875 c 1,2,3
 675 -302 675 -302 413.197265625 -494.53515625 c 0,4,5
 345 -545 345 -545 266.564453125 -543.631835938 c 0,6,7
 187 -542 187 -542 79.2158203125 -510.107421875 c 0,8,9
 23 -494 23 -494 11.8583984375 -473.87890625 c 0,10,11
 4 -460 4 -460 21.7802734375 -454.553710938 c 0,12,13
 457 -324 457 -324 601.099609375 -4.6689453125 c 16,14,15
 647 97 647 97 500.635742188 262.168945312 c 1,16,17
 527 313 527 313 584.803710938 436.9765625 c 0,18,19
 596 461 596 461 613.88671875 431.952148438 c 0,20,21
 642 385 642 385 673.952148438 324.267578125 c 0,22,23
 685.64519831 302.235952406 685.64519831 302.235952406 696.702762954 284 c 0,24,25
 748.242237122 199.001953125 748.242237122 199.001953125 901.920898438 199.001953125 c 2,26,-1
 926.944335938 199.001953125 l 2,27,28
 965.686523438 199.000015677 965.686523438 199.000015677 965.686523438 102.1328125 c 2,29,-1
 965.686523438 94.7626953125 l 2,30,31
 966 0 966 0 926.944335938 0 c 2,32,-1
 902.352539062 0 l 2,0,1
EndSplineSet
PairPos2: "'kern' Horizontal Kerning lookup 15-1" uniFEF3 dx=74 dy=0 dh=74 dv=0 dx=0 dy=0 dh=0 dv=0
PairPos2: "'kern' Horizontal Kerning lookup 15-1" uniFB58 dx=56 dy=0 dh=56 dv=0 dx=0 dy=0 dh=0 dv=0
PairPos2: "'kern' Horizontal Kerning lookup 15-1" uniFBFE dx=74 dy=0 dh=74 dv=0 dx=0 dy=0 dh=0 dv=0
PairPos2: "'kern' Horizontal Kerning lookup 15-4" uni0621 dx=-206 dy=0 dh=-206 dv=0 dx=0 dy=0 dh=0 dv=0
PairPos2: "'kern' Horizontal Kerning lookup 15-3" uni0648 dx=-45 dy=0 dh=-45 dv=0 dx=0 dy=0 dh=0 dv=0
PairPos2: "'kern' Horizontal Kerning lookup 15-1" uni0644 dx=-45 dy=0 dh=-45 dv=0 dx=0 dy=0 dh=0 dv=0
PairPos2: "'kern' Horizontal Kerning lookup 15-1" uni0642 dx=-45 dy=0 dh=-45 dv=0 dx=0 dy=0 dh=0 dv=0
PairPos2: "'kern' Horizontal Kerning lookup 15-1" uni0632 dx=-45 dy=0 dh=-45 dv=0 dx=0 dy=0 dh=0 dv=0
PairPos2: "'kern' Horizontal Kerning lookup 15-1" uni0631 dx=-45 dy=0 dh=-45 dv=0 dx=0 dy=0 dh=0 dv=0
PairPos2: "'kern' Horizontal Kerning lookup 15-1" uniFB8A dx=-45 dy=0 dh=-45 dv=0 dx=0 dy=0 dh=0 dv=0
PairPos2: "'kern' Horizontal Kerning lookup 15-1" afii57508 dx=-45 dy=0 dh=-45 dv=0 dx=0 dy=0 dh=0 dv=0
PairPos2: "'kern' Horizontal Kerning lookup 15-1" uniFB7C dx=-135 dy=0 dh=-135 dv=0 dx=0 dy=0 dh=0 dv=0
PairPos2: "'kern' Horizontal Kerning lookup 15-1" uni06CC dx=-45 dy=0 dh=-45 dv=0 dx=0 dy=0 dh=0 dv=0
PairPos2: "'kern' Horizontal Kerning lookup 15-1" uniFEEB dx=-135 dy=0 dh=-135 dv=0 dx=0 dy=0 dh=0 dv=0
PairPos2: "'kern' Horizontal Kerning lookup 15-1" uniFEDF dx=-135 dy=0 dh=-135 dv=0 dx=0 dy=0 dh=0 dv=0
PairPos2: "'kern' Horizontal Kerning lookup 15-1" uniFB90 dx=-224 dy=0 dh=-224 dv=0 dx=0 dy=0 dh=0 dv=0
PairPos2: "'kern' Horizontal Kerning lookup 15-1" uni06A9 dx=-224 dy=0 dh=-224 dv=0 dx=0 dy=0 dh=0 dv=0
PairPos2: "'kern' Horizontal Kerning lookup 15-1" uni0649 dx=-45 dy=0 dh=-45 dv=0 dx=0 dy=0 dh=0 dv=0
PairPos2: "'kern' Horizontal Kerning lookup 15-1" uni0647 dx=-135 dy=0 dh=-135 dv=0 dx=0 dy=0 dh=0 dv=0
PairPos2: "'kern' Horizontal Kerning lookup 15-1" uniFEE7 dx=-135 dy=0 dh=-135 dv=0 dx=0 dy=0 dh=0 dv=0
PairPos2: "'kern' Horizontal Kerning lookup 15-1" uniFEE3 dx=-135 dy=0 dh=-135 dv=0 dx=0 dy=0 dh=0 dv=0
PairPos2: "'kern' Horizontal Kerning lookup 15-1" uni0645 dx=-135 dy=0 dh=-135 dv=0 dx=0 dy=0 dh=0 dv=0
PairPos2: "'kern' Horizontal Kerning lookup 15-1" uniFEDB dx=-224 dy=0 dh=-224 dv=0 dx=0 dy=0 dh=0 dv=0
PairPos2: "'kern' Horizontal Kerning lookup 15-1" uniFED7 dx=-135 dy=0 dh=-135 dv=0 dx=0 dy=0 dh=0 dv=0
PairPos2: "'kern' Horizontal Kerning lookup 15-1" uniFED3 dx=-135 dy=0 dh=-135 dv=0 dx=0 dy=0 dh=0 dv=0
PairPos2: "'kern' Horizontal Kerning lookup 15-1" uni0641 dx=-135 dy=0 dh=-135 dv=0 dx=0 dy=0 dh=0 dv=0
PairPos2: "'kern' Horizontal Kerning lookup 15-1" uniFECF dx=-135 dy=0 dh=-135 dv=0 dx=0 dy=0 dh=0 dv=0
PairPos2: "'kern' Horizontal Kerning lookup 15-1" uniFECB dx=-135 dy=0 dh=-135 dv=0 dx=0 dy=0 dh=0 dv=0
PairPos2: "'kern' Horizontal Kerning lookup 15-1" uniFEC7 dx=-135 dy=0 dh=-135 dv=0 dx=0 dy=0 dh=0 dv=0
PairPos2: "'kern' Horizontal Kerning lookup 15-1" uni0638 dx=-135 dy=0 dh=-135 dv=0 dx=0 dy=0 dh=0 dv=0
PairPos2: "'kern' Horizontal Kerning lookup 15-1" uniFEC3 dx=-135 dy=0 dh=-135 dv=0 dx=0 dy=0 dh=0 dv=0
PairPos2: "'kern' Horizontal Kerning lookup 15-1" uni0637 dx=-135 dy=0 dh=-135 dv=0 dx=0 dy=0 dh=0 dv=0
PairPos2: "'kern' Horizontal Kerning lookup 15-1" uniFEBF dx=-135 dy=0 dh=-135 dv=0 dx=0 dy=0 dh=0 dv=0
PairPos2: "'kern' Horizontal Kerning lookup 15-1" uni0636 dx=-135 dy=0 dh=-135 dv=0 dx=0 dy=0 dh=0 dv=0
PairPos2: "'kern' Horizontal Kerning lookup 15-1" uniFEBB dx=-135 dy=0 dh=-135 dv=0 dx=0 dy=0 dh=0 dv=0
PairPos2: "'kern' Horizontal Kerning lookup 15-1" uni0635 dx=-135 dy=0 dh=-135 dv=0 dx=0 dy=0 dh=0 dv=0
PairPos2: "'kern' Horizontal Kerning lookup 15-1" uniFEB7 dx=-135 dy=0 dh=-135 dv=0 dx=0 dy=0 dh=0 dv=0
PairPos2: "'kern' Horizontal Kerning lookup 15-1" uni0634 dx=-135 dy=0 dh=-135 dv=0 dx=0 dy=0 dh=0 dv=0
PairPos2: "'kern' Horizontal Kerning lookup 15-1" uniFEB3 dx=-135 dy=0 dh=-135 dv=0 dx=0 dy=0 dh=0 dv=0
PairPos2: "'kern' Horizontal Kerning lookup 15-1" uni0633 dx=-135 dy=0 dh=-135 dv=0 dx=0 dy=0 dh=0 dv=0
PairPos2: "'kern' Horizontal Kerning lookup 15-1" uni0630 dx=-135 dy=0 dh=-135 dv=0 dx=0 dy=0 dh=0 dv=0
PairPos2: "'kern' Horizontal Kerning lookup 15-1" uni062F dx=-135 dy=0 dh=-135 dv=0 dx=0 dy=0 dh=0 dv=0
PairPos2: "'kern' Horizontal Kerning lookup 15-1" uniFEA7 dx=-135 dy=0 dh=-135 dv=0 dx=0 dy=0 dh=0 dv=0
PairPos2: "'kern' Horizontal Kerning lookup 15-1" uniFEA3 dx=-135 dy=0 dh=-135 dv=0 dx=0 dy=0 dh=0 dv=0
PairPos2: "'kern' Horizontal Kerning lookup 15-1" uniFE9F dx=-135 dy=0 dh=-135 dv=0 dx=0 dy=0 dh=0 dv=0
PairPos2: "'kern' Horizontal Kerning lookup 15-1" uniFE9B dx=-135 dy=0 dh=-135 dv=0 dx=0 dy=0 dh=0 dv=0
PairPos2: "'kern' Horizontal Kerning lookup 15-1" uni062B dx=-135 dy=0 dh=-135 dv=0 dx=0 dy=0 dh=0 dv=0
PairPos2: "'kern' Horizontal Kerning lookup 15-1" uniFE97 dx=-135 dy=0 dh=-135 dv=0 dx=0 dy=0 dh=0 dv=0
PairPos2: "'kern' Horizontal Kerning lookup 15-1" uni062A dx=-135 dy=0 dh=-135 dv=0 dx=0 dy=0 dh=0 dv=0
PairPos2: "'kern' Horizontal Kerning lookup 15-1" uni0629 dx=-135 dy=0 dh=-135 dv=0 dx=0 dy=0 dh=0 dv=0
PairPos2: "'kern' Horizontal Kerning lookup 15-1" uni0628 dx=-135 dy=0 dh=-135 dv=0 dx=0 dy=0 dh=0 dv=0
PairPos2: "'kern' Horizontal Kerning lookup 15-1" uni0627 dx=-206 dy=0 dh=-206 dv=0 dx=0 dy=0 dh=0 dv=0
PairPos2: "'kern' Horizontal Kerning lookup 15-1" uni0622 dx=-206 dy=0 dh=-206 dv=0 dx=0 dy=0 dh=0 dv=0
PairPos2: "'kern' Horizontal Kerning lookup 15-1" uniFB94 dx=-247 dy=0 dh=-247 dv=0 dx=0 dy=0 dh=0 dv=0
PairPos2: "'kern' Horizontal Kerning lookup 15-1" afii57509 dx=-247 dy=0 dh=-247 dv=0 dx=0 dy=0 dh=0 dv=0
PairPos2: "'kern' Horizontal Kerning lookup 15-1" uniFB56 dx=-135 dy=0 dh=-135 dv=0 dx=0 dy=0 dh=0 dv=0
PairPos2: "'kern' Horizontal Kerning lookup 15-1" afii57506 dx=-135 dy=0 dh=-135 dv=0 dx=0 dy=0 dh=0 dv=0
EndChar

StartChar: uniFEB2
Encoding: 65202 65202 185
Width: 2579
VWidth: 3804
GlyphClass: 2
Flags: W
AnchorPoint: "Anchor-7" 596.427 -814.57 basechar 0
AnchorPoint: "Anchor-10" 1701.94 1031.52 basechar 0
LayerCount: 2
Fore
SplineSet
2516.99707031 0 m 2,0,1
 2263 0 2263 0 2204.24316406 153.018554688 c 1,2,3
 2101 -1 2101 -1 1924.20800781 -0.24609375 c 0,4,5
 1740 1 1740 1 1664.47851562 154.500976562 c 1,6,7
 1551 0 1551 0 1424.796875 -0.5869140625 c 0,8,9
 1311 -1 1311 -1 1266.828125 60.6728515625 c 1,10,11
 1309 -237 1309 -237 1141.62011719 -420.295898438 c 0,12,13
 979 -599 979 -599 657.168945312 -599.045898438 c 0,14,15
 115 -599 115 -599 114.147805511 -182 c 0,16,17
 113.861208059 -11.3664720293 113.861208059 -11.3664720293 207.9921875 201.96875 c 5,18,-1
 265 178 l 1,19,20
 215 6 215 6 214.18359375 -89.6484375 c 0,21,22
 211 -403 211 -403 667.990234375 -401.204101562 c 0,23,24
 1033 -399 1033 -399 1181.66503906 -169.361328125 c 1,25,26
 1176 -28 1176 -28 1013.65722656 269.52734375 c 1,27,-1
 1098.31835938 404.40625 l 2,28,29
 1122 442 1122 442 1141.31152344 404.509765625 c 0,30,31
 1180 329 1180 329 1213.85742188 268.958007812 c 24,32,33
 1253 200 1253 200 1433.84570312 201.231445312 c 0,34,35
 1610.71192884 201.998750251 1610.71192884 201.998750251 1639.953125 374.483398438 c 2,36,-1
 1657.57324219 478.418945312 l 1,37,-1
 1741.80273438 465.981445312 l 1,38,-1
 1732.34472656 387.481445312 l 2,39,40
 1710 200 1710 200 1931.37792969 199.90625 c 0,41,42
 2133.95814266 199.999980633 2133.95814266 199.999980633 2139.61328125 399.8515625 c 2,43,-1
 2142.22265625 492.06640625 l 1,44,-1
 2222.60546875 492.06640625 l 1,45,-1
 2227.25097656 399.938476562 l 2,46,47
 2236.99990524 199.001953125 2236.99990524 199.001953125 2516.56542969 199.001953125 c 2,48,-1
 2583.70507812 199.001953125 l 2,49,50
 2622.44726562 198.999977188 2622.44726562 198.999977188 2622.44726562 102.1328125 c 2,51,-1
 2622.44726562 94.7626953125 l 2,52,53
 2622 0 2622 0 2583.70507812 0 c 2,54,-1
 2516.99707031 0 l 2,0,1
EndSplineSet
EndChar

StartChar: uniFEB3
Encoding: 65203 65203 186
Width: 1607
VWidth: 3804
GlyphClass: 2
Flags: W
AnchorPoint: "Anchor-10" 931.855 1043.01 basechar 0
AnchorPoint: "Anchor-7" 806.234 -294.015 basechar 0
LayerCount: 2
Fore
SplineSet
49.236328125 199.001953125 m 2,0,1
 355.859787284 199.001953125 355.859787284 199.001953125 382.9453125 350.232421875 c 2,2,-1
 401.606445312 454.42578125 l 1,3,-1
 481.780273438 442.198242188 l 1,4,-1
 470.13671875 364.310546875 l 2,5,6
 445 199 445 199 667.190429688 198.802734375 c 0,7,8
 875.545232285 198.999570374 875.545232285 198.999570374 904.884765625 372.0546875 c 2,9,-1
 922.505859375 475.990234375 l 1,10,-1
 1006.73535156 463.552734375 l 1,11,-1
 997.276367188 385.052734375 l 2,12,13
 975 200 975 200 1198.03613281 199.90625 c 0,14,15
 1335 200 1335 200 1365.82128906 255.619140625 c 0,16,17
 1386 293 1386 293 1352.26855469 386.083984375 c 0,18,19
 1325 462 1325 462 1291.4375 534.9296875 c 1,20,-1
 1372.640625 681.198242188 l 2,21,22
 1390 713 1390 713 1403.67089844 687.704101562 c 0,23,24
 1498 509 1498 509 1499.234375 326.74609375 c 0,25,26
 1500 217 1500 217 1418.31054688 118.038085938 c 24,27,28
 1319 0 1319 0 1191.39550781 -0.24609375 c 0,29,30
 1013 -1 1013 -1 929.41015625 152.072265625 c 1,31,32
 818 0 818 0 658.141601562 0.142578125 c 0,33,34
 462 1 462 1 394.493164062 152.373046875 c 1,35,36
 304 0 304 0 49.2158203125 0 c 2,37,-1
 -5.2646484375 0 l 2,38,39
 -84.2080078125 0 -84.2080078125 0 -84.2080078125 93.7099609375 c 2,40,-1
 -84.2080078125 104.239257812 l 2,41,42
 -83.9999957127 199.001953125 -83.9999957127 199.001953125 -5.2646484375 199.001953125 c 2,43,-1
 49.236328125 199.001953125 l 2,0,1
EndSplineSet
EndChar

StartChar: uniFEB4
Encoding: 65204 65204 187
Width: 1844
VWidth: 3804
GlyphClass: 2
Flags: W
AnchorPoint: "Anchor-7" 806.234 -289.803 basechar 0
AnchorPoint: "Anchor-10" 931.855 1039.01 basechar 0
LayerCount: 2
Fore
SplineSet
1783.12792969 0 m 2,0,1
 1529 0 1529 0 1470.90039062 153.018554688 c 1,2,3
 1378 0 1378 0 1190.86621094 -0.24609375 c 24,4,5
 1002 0 1002 0 929.41015625 152.072265625 c 1,6,7
 817 -2 817 -2 658.141601562 -0.91015625 c 0,8,9
 462 0 462 0 394.493164062 152.373046875 c 1,10,11
 304 0 304 0 49.2158203125 0 c 2,12,-1
 -5.2646484375 0 l 2,13,14
 -84.2080078125 0 -84.2080078125 0 -84.2080078125 93.7099609375 c 2,15,-1
 -84.2080078125 104.239257812 l 2,16,17
 -83.9999957127 199.001953125 -83.9999957127 199.001953125 -5.2646484375 199.001953125 c 2,18,-1
 49.236328125 199.001953125 l 2,19,20
 355.859437638 199.000000895 355.859437638 199.000000895 382.9453125 350.232421875 c 2,21,-1
 401.606445312 454.42578125 l 1,22,-1
 481.780273438 442.198242188 l 1,23,-1
 470.13671875 364.310546875 l 2,24,25
 445 199 445 199 667.190429688 198.802734375 c 0,26,27
 875.37552053 197.998549426 875.37552053 197.998549426 904.884765625 372.0546875 c 2,28,-1
 922.505859375 475.990234375 l 1,29,-1
 1006.73535156 463.552734375 l 1,30,-1
 997.276367188 385.052734375 l 2,31,32
 975 200 975 200 1198.03613281 199.90625 c 0,33,34
 1400.85623811 199.999933596 1400.85623811 199.999933596 1406.27148438 396.692382812 c 2,35,-1
 1408.87988281 491.434570312 l 1,36,-1
 1489.26367188 491.434570312 l 1,37,-1
 1493.90917969 399.938476562 l 2,38,39
 1503.99990192 199.001953125 1503.99990192 199.001953125 1782.69628906 199.001953125 c 2,40,-1
 1849.83691406 199.001953125 l 2,41,42
 1888.57910156 199.000020991 1888.57910156 199.000020991 1888.57910156 102.1328125 c 2,43,-1
 1888.57910156 94.7626953125 l 2,44,45
 1889 0 1889 0 1849.83691406 0 c 2,46,-1
 1783.12792969 0 l 2,0,1
EndSplineSet
EndChar

StartChar: uniFEBA
Encoding: 65210 65210 193
Width: 2651
VWidth: 3805
GlyphClass: 2
Flags: W
AnchorPoint: "Anchor-7" 596.427 -814.57 basechar 0
AnchorPoint: "Anchor-10" 2051.94 1235.14 basechar 0
LayerCount: 2
Fore
SplineSet
1536.95507812 201.372070312 m 1,0,-1
 1629.45214844 201.372070312 l 2,1,2
 2344.03320312 200.755859375 2344.03320312 200.755859375 2344.12402344 353.581054688 c 0,3,4
 2344.08496094 381 2344.08496094 381 2331.20898438 416.978515625 c 0,5,6
 2276.08496094 560 2276.08496094 560 2084.47558594 560.045898438 c 0,7,8
 1910.08496094 560 1910.08496094 560 1694.03222656 363.733398438 c 0,9,10
 1571.08496094 252 1571.08496094 252 1536.95507812 201.372070312 c 1,0,-1
1524.0859375 0 m 2,11,12
 1340.03086308 -0.0255911316107 1340.03086308 -0.0255911316107 1266.828125 60.6728515625 c 1,13,14
 1309 -237 1309 -237 1141.62011719 -420.295898438 c 0,15,16
 979 -599 979 -599 657.168945312 -599.045898438 c 0,17,18
 115 -599 115 -599 114.147460938 -182 c 0,19,20
 113.861530395 -11.3657414983 113.861530395 -11.3657414983 207.9921875 201.96875 c 5,21,-1
 265 178 l 1,22,23
 215 6 215 6 214.18359375 -89.6484375 c 0,24,25
 211 -403 211 -403 667.990234375 -401.204101562 c 0,26,27
 1033 -399 1033 -399 1181.66503906 -169.361328125 c 1,28,29
 1176 -28 1176 -28 1013.65722656 269.52734375 c 1,30,-1
 1098.31835938 404.40625 l 2,31,32
 1122 442 1122 442 1141.31152344 404.509765625 c 0,33,34
 1181 329 1181 329 1213.85742188 268.958007812 c 16,35,36
 1248 205 1248 205 1429.92871094 204.473632812 c 1,37,38
 1784 759 1784 759 2133.30371094 758.71875 c 0,39,40
 2285 759 2285 759 2377.84667969 671.467773438 c 0,41,42
 2465 588 2465 588 2464.78710938 449.642578125 c 0,43,44
 2465 341 2465 341 2409.08496094 253.334960938 c 0,45,46
 2391 225 2391 225 2367.08496094 199 c 1,47,-1
 2658.16015625 199.001953125 l 2,48,49
 2696.90332031 199.000004862 2696.90332031 199.000004862 2696.90332031 102.1328125 c 2,50,-1
 2696.90332031 94.7626953125 l 2,51,52
 2697 0 2697 0 2658.16015625 0 c 2,53,-1
 2549.3359375 0 l 2,54,55
 2311 0 2311 0 2210.74804688 87.5458984375 c 1,56,57
 2185 74 2185 74 2156.60644531 63.322265625 c 0,58,59
 1995.16716283 0.0654994255106 1995.16716283 0.0654994255106 1622.41601562 0.013671875 c 2,60,-1
 1524.0859375 0 l 2,11,12
EndSplineSet
EndChar

StartChar: uniFEBB
Encoding: 65211 65211 194
Width: 1844
VWidth: 3805
GlyphClass: 2
Flags: W
AnchorPoint: "Anchor-10" 1286.92 1258.35 basechar 0
AnchorPoint: "Anchor-7" 768.645 -284.314 basechar 0
LayerCount: 2
Fore
SplineSet
790.000976562 0 m 6,0,1
 497.028821399 -0.0407350300158 497.028821399 -0.0407350300158 389.553710938 151.860351562 c 5,2,3
 291 0 291 0 37.0986328125 0 c 2,4,-1
 -5.2646484375 0 l 2,5,6
 -84.2080078125 0 -84.2080078125 0 -84.2080078125 93.7099609375 c 2,7,-1
 -84.2080078125 104.239257812 l 2,8,9
 -83.9999957127 199.001953125 -83.9999957127 199.001953125 -5.2646484375 199.001953125 c 2,10,-1
 37.119140625 199.001953125 l 2,11,12
 336.307545282 198.99999799 336.307545282 198.99999799 342.075195312 397.51171875 c 6,13,-1
 344.747070312 489.47265625 l 5,14,-1
 426.026367188 489.47265625 l 5,15,-1
 430.671875 397.978515625 l 6,16,17
 440 217 440 217 695.84375 204.473632812 c 5,18,19
 1050 759 1050 759 1399.21875 758.71875 c 4,20,21
 1551 759 1551 759 1643.76171875 671.467773438 c 4,22,23
 1731 588 1731 588 1730.70214844 449.642578125 c 4,24,25
 1731 341 1731 341 1675 253.334960938 c 4,26,27
 1598 132 1598 132 1422.52148438 63.322265625 c 4,28,29
 1261.16710506 0.0655112304996 1261.16710506 0.0655112304996 888.331054688 0.013671875 c 6,30,-1
 790.000976562 0 l 6,0,1
802.870117188 201.372070312 m 5,31,-1
 895.3671875 201.372070312 l 6,32,33
 1610 201 1610 201 1610.0390625 353.581054688 c 4,34,35
 1610 381 1610 381 1597.12402344 416.978515625 c 4,36,37
 1542 560 1542 560 1350.390625 560.045898438 c 4,38,39
 1176 560 1176 560 959.947265625 363.733398438 c 4,40,41
 837 252 837 252 802.870117188 201.372070312 c 5,31,-1
EndSplineSet
EndChar

StartChar: uniFEBC
Encoding: 65212 65212 195
Width: 1919
VWidth: 3805
GlyphClass: 2
Flags: W
AnchorPoint: "Anchor-10" 1286.92 1258.35 basechar 0
AnchorPoint: "Anchor-7" 768.645 -284.314 basechar 0
LayerCount: 2
Fore
SplineSet
802.870117188 201.372070312 m 5,0,-1
 895.3671875 201.372070312 l 6,1,2
 1609.94824219 200.755859375 1609.94824219 200.755859375 1610.0390625 353.581054688 c 4,3,4
 1610 381 1610 381 1597.12402344 416.978515625 c 4,5,6
 1542 560 1542 560 1350.390625 560.045898438 c 4,7,8
 1176 560 1176 560 959.947265625 363.733398438 c 4,9,10
 837 252 837 252 802.870117188 201.372070312 c 5,0,-1
1476.66308594 87.5458984375 m 5,11,12
 1451 74 1451 74 1422.52148438 63.322265625 c 4,13,14
 1261.16710506 0.0655112304996 1261.16710506 0.0655112304996 888.331054688 0.013671875 c 6,15,-1
 790.000976562 0 l 6,16,17
 497 -0 497 -0 389.553710938 151.860351562 c 1,18,19
 291 0 291 0 37.0986328125 0 c 2,20,-1
 -5.2646484375 0 l 2,21,22
 -84.2080078125 0 -84.2080078125 0 -84.2080078125 93.7099609375 c 2,23,-1
 -84.2080078125 104.239257812 l 2,24,25
 -83.9999957127 199.001953125 -83.9999957127 199.001953125 -5.2646484375 199.001953125 c 2,26,-1
 37.119140625 199.001953125 l 2,27,28
 336.307545282 198.99999799 336.307545282 198.99999799 342.075195312 397.51171875 c 2,29,-1
 344.747070312 489.47265625 l 1,30,-1
 426.026367188 489.47265625 l 1,31,-1
 430.671875 397.978515625 l 2,32,33
 440 217 440 217 695.84375 204.473632812 c 5,34,35
 1050 759 1050 759 1399.21875 758.71875 c 4,36,37
 1551 759 1551 759 1643.76171875 671.467773438 c 4,38,39
 1731 588 1731 588 1730.70214844 449.642578125 c 4,40,41
 1731 341 1731 341 1675 253.334960938 c 4,42,43
 1657 225 1657 225 1633 199 c 5,44,-1
 1924.07519531 199.001953125 l 6,45,46
 1962.81835938 199.000009114 1962.81835938 199.000009114 1962.81835938 102.1328125 c 6,47,-1
 1962.81835938 94.7626953125 l 6,48,49
 1963 0 1963 0 1924.07519531 0 c 6,50,-1
 1815.25097656 0 l 6,51,52
 1577 0 1577 0 1476.66308594 87.5458984375 c 5,11,12
EndSplineSet
EndChar

StartChar: uniFEC2
Encoding: 65218 65218 201
Width: 1676
VWidth: 3805
GlyphClass: 2
Flags: W
AnchorPoint: "Anchor-10" 525.377 1728.21 basechar 0
AnchorPoint: "Anchor-7" 713.854 -293.52 basechar 0
LayerCount: 2
Fore
SplineSet
559.20703125 201.372070312 m 5,0,-1
 651.704101562 201.372070312 l 6,1,2
 1365.97167969 201 1365.97167969 201 1366.37597656 353.581054688 c 4,3,4
 1365.91796875 384.659179688 1365.91796875 384.659179688 1353.4609375 416.978515625 c 4,5,6
 1297.97167969 560 1297.97167969 560 1106.72753906 560.045898438 c 4,7,8
 931.971679688 560 931.971679688 560 716.284179688 363.733398438 c 4,9,10
 592.971679688 252 592.971679688 252 559.20703125 201.372070312 c 5,0,-1
644.66796875 0.013671875 m 6,11,-1
 385.000976562 -1.2265625 l 6,12,13
 275 -2 275 -2 209.309570312 53.095703125 c 4,14,15
 104 140 104 140 92.8681640625 159.916015625 c 4,16,17
 72 199 72 199 114.95703125 199.202148438 c 6,18,-1
 447.842773438 201.219726562 l 5,19,20
 490 254 490 254 531.793945312 305.881835938 c 5,21,22
 530 342 530 342 519.37109375 867.89453125 c 4,23,24
 511 1318 511 1318 487.107421875 1419.96386719 c 5,25,-1
 625.419921875 1588.06054688 l 6,26,27
 649.050345516 1616.77954012 649.050345516 1616.77954012 659.571289062 1570.70898438 c 6,28,-1
 711.6796875 1333.41601562 l 6,29,30
 725.31293395 1271.33248167 725.31293395 1271.33248167 685.556640625 1229.09277344 c 6,31,-1
 644.282226562 1185.59960938 l 5,32,-1
 644.11328125 425.0546875 l 21,33,34
 933 759 933 759 1155.55566406 758.71875 c 4,35,36
 1307 759 1307 759 1400.09863281 671.467773438 c 4,37,38
 1487 588 1487 588 1487.0390625 449.642578125 c 4,39,40
 1487 338 1487 338 1431.33691406 253.334960938 c 4,41,42
 1413 225 1413 225 1388.453125 199 c 5,43,-1
 1677.46484375 199.001953125 l 6,44,45
 1715.99999527 199.002213543 1715.99999527 199.002213543 1716.20703125 102.1328125 c 6,46,-1
 1716.20703125 94.7626953125 l 6,47,48
 1716.20703125 0 1716.20703125 0 1677.46484375 0 c 6,49,-1
 1568.63964844 0 l 6,50,51
 1331 0 1331 0 1231.97167969 86.4443359375 c 5,52,53
 1207 74 1207 74 1178.85839844 63.322265625 c 4,54,55
 1014.41122705 1.77965797513 1014.41122705 1.77965797513 644.66796875 0.013671875 c 6,11,-1
EndSplineSet
EndChar

StartChar: uniFEC3
Encoding: 65219 65219 202
Width: 1320
VWidth: 3805
GlyphClass: 2
Flags: W
AnchorPoint: "Anchor-10" 262.146 1728.21 basechar 0
AnchorPoint: "Anchor-7" 450.623 -295.625 basechar 0
LayerCount: 2
Fore
SplineSet
362.696289062 0.013671875 m 6,0,-1
 -5.2646484375 0 l 5,1,2
 -84 1 -84 1 -84.2080078125 93.7099609375 c 6,3,-1
 -84.2080078125 104.239257812 l 6,4,5
 -84.2080078125 197.99735298 -84.2080078125 197.99735298 -5.2646484375 199.001953125 c 6,6,-1
 165.87109375 201.219726562 l 5,7,8
 208 254 208 254 249.822265625 305.881835938 c 5,9,10
 248 342 248 342 237.399414062 867.89453125 c 4,11,12
 229 1318 229 1318 205.135742188 1419.96386719 c 5,13,-1
 343.448242188 1588.06054688 l 6,14,15
 367.056616424 1616.75274261 367.056616424 1616.75274261 377.599609375 1570.70898438 c 6,16,-1
 429.708007812 1333.41601562 l 6,17,18
 443.335851102 1271.35708675 443.335851102 1271.35708675 403.584960938 1229.09277344 c 6,19,-1
 362.310546875 1185.59960938 l 5,20,-1
 362.141601562 425.0546875 l 21,21,22
 651 759 651 759 873.583984375 758.71875 c 4,23,24
 1025 759 1025 759 1118.12695312 671.467773438 c 4,25,26
 1205 588 1205 588 1205.06738281 449.642578125 c 4,27,28
 1205 341 1205 341 1149.36523438 253.334960938 c 4,29,30
 1072 132 1072 132 896.88671875 63.322265625 c 4,31,32
 735.070324945 0.0275077221049 735.070324945 0.0275077221049 362.696289062 0.013671875 c 6,0,-1
277.235351562 201.372070312 m 5,33,-1
 369.732421875 201.372070312 l 6,34,35
 1084 201 1084 201 1084.40429688 353.581054688 c 4,36,37
 1083.94604933 384.658871614 1083.94604933 384.658871614 1071.48925781 416.978515625 c 4,38,39
 1016 560 1016 560 824.755859375 560.045898438 c 4,40,41
 650 560 650 560 434.3125 363.733398438 c 4,42,43
 311 252 311 252 277.235351562 201.372070312 c 5,33,-1
EndSplineSet
EndChar

StartChar: uniFEC4
Encoding: 65220 65220 203
Width: 1390
VWidth: 3805
GlyphClass: 2
Flags: W
AnchorPoint: "Anchor-10" 262.146 1728.21 basechar 0
AnchorPoint: "Anchor-7" 450.623 -293.52 basechar 0
LayerCount: 2
Fore
SplineSet
277.235351562 201.372070312 m 5,0,-1
 369.732421875 201.372070312 l 6,1,2
 1084 201 1084 201 1084.40429688 353.581054688 c 4,3,4
 1083.94604933 384.658871614 1083.94604933 384.658871614 1071.48925781 416.978515625 c 4,5,6
 1016 560 1016 560 824.755859375 560.045898438 c 4,7,8
 650 560 650 560 434.3125 363.733398438 c 4,9,10
 311 252 311 252 277.235351562 201.372070312 c 5,0,-1
950 86.4443359375 m 5,11,12
 925 74 925 74 896.88671875 63.322265625 c 4,13,14
 730 0 730 0 362.696289062 0.013671875 c 6,15,-1
 -5.2646484375 0 l 1,16,17
 -84 1 -84 1 -84.2080078125 93.7099609375 c 2,18,-1
 -84.2080078125 104.239257812 l 2,19,20
 -84.2080078125 197.99735298 -84.2080078125 197.99735298 -5.2646484375 199.001953125 c 2,21,-1
 165.87109375 201.219726562 l 5,22,23
 208 254 208 254 249.822265625 305.881835938 c 5,24,25
 248 342 248 342 237.399414062 867.89453125 c 4,26,27
 229 1318 229 1318 205.135742188 1419.96386719 c 5,28,-1
 343.448242188 1588.06054688 l 6,29,30
 367.056616424 1616.75274261 367.056616424 1616.75274261 377.599609375 1570.70898438 c 6,31,-1
 429.708007812 1333.41601562 l 6,32,33
 443.335851102 1271.35708675 443.335851102 1271.35708675 403.584960938 1229.09277344 c 6,34,-1
 362.310546875 1185.59960938 l 5,35,-1
 362.141601562 425.0546875 l 21,36,37
 651 759 651 759 873.583984375 758.71875 c 4,38,39
 1025 759 1025 759 1118.12695312 671.467773438 c 4,40,41
 1205 588 1205 588 1205.06738281 449.642578125 c 4,42,43
 1205 338 1205 338 1149.36523438 253.334960938 c 4,44,45
 1131 225 1131 225 1106.48144531 199 c 5,46,-1
 1395.49316406 199.001953125 l 6,47,48
 1433.99999462 199.002213352 1433.99999462 199.002213352 1434.23535156 102.1328125 c 6,49,-1
 1434.23535156 94.7626953125 l 6,50,51
 1434.23535156 0 1434.23535156 0 1395.49316406 0 c 6,52,-1
 1286.66796875 0 l 6,53,54
 1049 0 1049 0 950 86.4443359375 c 5,11,12
EndSplineSet
EndChar

StartChar: uniFECA
Encoding: 65226 65226 209
Width: 1356
VWidth: 3798
GlyphClass: 2
Flags: W
AnchorPoint: "Anchor-7" 428.792 -826.821 basechar 0
AnchorPoint: "Anchor-10" 720.062 1174.07 basechar 0
LayerCount: 2
Fore
SplineSet
1331.51171875 199.001953125 m 2,0,-1
 1360.74707031 199.001953125 l 2,1,2
 1399.48925781 198.999975019 1399.48925781 198.999975019 1399.48925781 102.1328125 c 2,3,-1
 1399.48925781 94.7626953125 l 2,4,5
 1399 0 1399 0 1360.74707031 0 c 2,6,-1
 1331.94335938 0 l 2,7,8
 829 0 829 0 750.163085938 397.056640625 c 1,9,10
 662 378 662 378 576.313476562 335.451171875 c 0,11,12
 206 152 206 152 206.896484375 -151.811523438 c 0,13,14
 207 -294 207 -294 347.887695312 -375.379882812 c 0,15,16
 485 -455 485 -455 767.83203125 -454.5 c 0,17,18
 930 -454 930 -454 1148.97460938 -427.982421875 c 0,19,20
 1191 -423 1191 -423 1196.60839844 -422.328125 c 1,21,22
 1200 -427 1200 -427 1191.3125 -446.153320312 c 0,23,24
 1096 -646 1096 -646 757.233398438 -646.188476562 c 0,25,26
 399 -647 399 -647 251.985351562 -508.235351562 c 0,27,28
 113 -377 113 -377 113.118164062 -156.7421875 c 0,29,30
 114 47 114 47 232.059570312 212.869140625 c 0,31,32
 393 438 393 438 676.370117188 523.2734375 c 1,33,34
 638 621 638 621 357.352539062 622.423828125 c 1,35,-1
 357.227539062 718.319335938 l 1,36,37
 460 785 460 785 766.901367188 783.3203125 c 0,38,39
 1054 781 1054 781 1054.69238281 637.20703125 c 0,40,41
 1056 522 1056 522 828.690429688 433.823242188 c 1,42,43
 887 199 887 199 1331.51171875 199.001953125 c 2,0,-1
EndSplineSet
EndChar

StartChar: uniFECB
Encoding: 65227 65227 210
Width: 1148
VWidth: 3798
GlyphClass: 2
Flags: W
AnchorPoint: "Anchor-10" 572.49 1273.27 basechar 0
AnchorPoint: "Anchor-7" 516.566 -289.979 basechar 0
LayerCount: 2
Fore
SplineSet
30.0009765625 199.51171875 m 1,0,-1
 335.112304688 199.548828125 l 1,1,2
 168.466796875 311.6640625 168.466796875 311.6640625 237.423828125 533.440429688 c 0,3,4
 339.040039062 861.288085938 339.040039062 861.288085938 617.400390625 861.430664062 c 0,5,6
 824.436523438 861.288085938 824.436523438 861.288085938 933.37109375 639.225585938 c 1,7,-1
 897.529296875 595.899414062 l 1,8,9
 771.790039062 655.96875 771.790039062 655.96875 653.033203125 654.543945312 c 0,10,11
 503.295898438 651.7578125 503.295898438 651.7578125 401.340820312 562.073242188 c 0,12,13
 326.405273438 495.92578125 326.405273438 495.92578125 328.659179688 448.932617188 c 0,14,15
 331.669921875 394.844726562 331.669921875 394.844726562 443.563476562 312.337890625 c 0,16,17
 531.724609375 247.436523438 531.724609375 247.436523438 543.383789062 246.944335938 c 0,18,19
 584.370117188 244.27734375 584.370117188 244.27734375 856.633789062 303.065429688 c 2,20,-1
 1000.55664062 334.19140625 l 2,21,22
 1054.78027344 345.91796875 1054.78027344 345.91796875 1038.13574219 312.555664062 c 2,23,-1
 950.344726562 135.563476562 l 1,24,25
 526.459960938 0 526.459960938 0 66.5810546875 0 c 2,26,-1
 -5.2646484375 0 l 2,27,28
 -84.2333984375 0 -84.2333984375 0 -84.2080078125 93.7099609375 c 2,29,-1
 -84.2080078125 104.239257812 l 2,30,31
 -84.2333984375 197.94921875 -84.2333984375 197.94921875 -5.2646484375 199.001953125 c 2,32,-1
 30.0009765625 199.51171875 l 1,0,-1
EndSplineSet
EndChar

StartChar: uniFECC
Encoding: 65228 65228 211
Width: 1149
VWidth: 3801
GlyphClass: 2
Flags: W
AnchorPoint: "Anchor-10" 573.643 1082.02 basechar 0
AnchorPoint: "Anchor-7" 539.321 -289.701 basechar 0
LayerCount: 2
Fore
SplineSet
1049.76171875 0 m 2,0,1
 793 0 793 0 647.212890625 174.72265625 c 1,2,3
 452 0 452 0 170.819335938 0 c 2,4,-1
 -5.2646484375 0 l 2,5,6
 -84.2080078125 0 -84.2080078125 0 -84.2080078125 93.7099609375 c 2,7,-1
 -84.2080078125 104.239257812 l 2,8,9
 -83.9999957127 199.001953125 -83.9999957127 199.001953125 -5.2646484375 199.001953125 c 2,10,-1
 66.4521484375 199.001953125 l 2,11,12
 484 199 484 199 574.080078125 302.055664062 c 1,13,14
 480 458 480 458 254.293945312 484.82421875 c 1,15,-1
 254.19140625 588.8125 l 1,16,17
 345 649 345 649 656.045898438 649.084960938 c 0,18,19
 908 649 908 649 909.500976562 511.860351562 c 0,20,21
 911 408 911 408 739.452148438 294.734375 c 1,22,23
 825.998234294 199.001953125 825.998234294 199.001953125 1133.5625 199.001953125 c 2,24,-1
 1154.375 199.001953125 l 2,25,26
 1193.1171875 198.999994074 1193.1171875 198.999994074 1193.1171875 102.1328125 c 2,27,-1
 1193.1171875 94.7626953125 l 2,28,29
 1193 0 1193 0 1154.375 0 c 2,30,-1
 1049.76171875 0 l 2,0,1
EndSplineSet
EndChar

StartChar: uniFEDA
Encoding: 65242 65242 225
Width: 2047
VWidth: 3764
GlyphClass: 2
Flags: W
AnchorPoint: "Anchor-7" 636.157 -327.146 basechar 0
AnchorPoint: "Anchor-10" 965.19 1543.64 basechar 0
LayerCount: 2
Fore
SplineSet
2008.97167969 0 m 2,0,1
 1792 0 1792 0 1703.625 216.907226562 c 1,2,3
 1577 4 1577 4 1136.56445312 -63.4091796875 c 0,4,5
 990 -86 990 -86 812.381835938 -86.7607421875 c 0,6,7
 107 -88 107 -88 106.305664062 313.775390625 c 4,8,9
 106 491 106 491 210.0703125 647.333007812 c 5,10,-1
 268.84375 623.546875 l 5,11,12
 216 491 216 491 214.10546875 404.04296875 c 4,13,14
 210 111 210 111 817.440429688 110.59375 c 0,15,16
 1435 111 1435 111 1611.83886719 294.5078125 c 0,17,18
 1670 355 1670 355 1667.82519531 411.697265625 c 24,19,20
 1664 571 1664 571 1662.76757812 619.1171875 c 0,21,22
 1636 1346 1636 1346 1622.46582031 1436.02539062 c 1,23,-1
 1743.7890625 1583.06542969 l 2,24,25
 1779.64941406 1626.57463563 1779.64941406 1626.57463563 1779.64941406 1571.13574219 c 2,26,-1
 1779.64941406 405.624023438 l 2,27,28
 1779.99999669 199.001953125 1779.99999669 199.001953125 2008.5390625 199.001953125 c 2,29,-1
 2052.515625 199.001953125 l 2,30,31
 2091.2578125 198.999986916 2091.2578125 198.999986916 2091.2578125 102.1328125 c 2,32,-1
 2091.2578125 94.7626953125 l 2,33,34
 2091 0 2091 0 2052.515625 0 c 2,35,-1
 2008.97167969 0 l 2,0,1
1145.52636719 733.604492188 m 0,36,37
 1065.5546875 640.17578125 1065.5546875 640.17578125 904.116210938 646.065429688 c 0,38,39
 788.63671875 649.651367188 788.63671875 649.651367188 692.232421875 681.4140625 c 1,40,-1
 705.9765625 822.198242188 l 1,41,42
 814.959960938 783.372070312 814.959960938 783.372070312 933.72265625 784.620117188 c 0,43,44
 1092.93066406 786.53125 1092.93066406 786.53125 1104.26855469 857.575195312 c 0,45,46
 1111.88378906 906.564453125 1111.88378906 906.564453125 965.607421875 938.576171875 c 0,47,48
 789.690429688 976.056640625 789.690429688 976.056640625 794.797851562 1146.73730469 c 0,49,50
 798.11328125 1263.50390625 798.11328125 1263.50390625 920.05859375 1322.33007812 c 0,51,52
 990.797851562 1356.16113281 990.797851562 1356.16113281 1117.05859375 1371.87695312 c 0,53,54
 1174.18847656 1379.34863281 1174.18847656 1379.34863281 1159.67578125 1337.81640625 c 2,55,-1
 1122.75195312 1232.14160156 l 1,56,57
 873.923828125 1208.75195312 873.923828125 1208.75195312 872.231445312 1129.8828125 c 0,58,59
 870.764648438 1082.40136719 870.764648438 1082.40136719 1025.9609375 1055.63769531 c 0,60,61
 1187.69335938 1027.65039062 1187.69335938 1027.65039062 1191.07714844 870.252929688 c 0,62,63
 1192.95800781 787.583984375 1192.95800781 787.583984375 1145.52636719 733.604492188 c 0,36,37
EndSplineSet
EndChar

StartChar: uniFEDB
Encoding: 65243 65243 226
Width: 933
VWidth: 3805
GlyphClass: 2
Flags: W
AnchorPoint: "Anchor-10" 325.901 1616.83 basechar 0
AnchorPoint: "Anchor-7" 340.687 -298.871 basechar 0
LayerCount: 2
Fore
SplineSet
98.1884765625 199.001953125 m 2,0,1
 394.002251287 199.001953125 394.002251287 199.001953125 523.362304688 311.229492188 c 0,2,3
 579 359 579 359 577.944335938 411.727539062 c 0,4,5
 576 492 576 492 294.922851562 780.782226562 c 0,6,7
 200.76227417 874.773907906 200.76227417 874.773907906 30.998046875 1047.38671875 c 0,8,9
 -1 1080 -1 1080 7.2734375 1107.41894531 c 0,10,11
 16 1135 16 1135 45.8408203125 1233.0859375 c 0,12,13
 50.796317736 1251.25328069 50.796317736 1251.25328069 62.9013671875 1256.35742188 c 2,14,-1
 858.9296875 1592.00585938 l 2,15,16
 880.485067254 1601.20705735 880.485067254 1601.20705735 877.349609375 1581.07519531 c 2,17,-1
 851.337890625 1414.06152344 l 1,18,-1
 171.112304688 1138.73339844 l 1,19,20
 668 697 668 697 675.678710938 419.38671875 c 0,21,22
 688 0 688 0 98.16796875 0 c 2,23,-1
 -5.2646484375 0 l 2,24,25
 -84.2080078125 0 -84.2080078125 0 -84.2080078125 93.7099609375 c 2,26,-1
 -84.2080078125 104.239257812 l 2,27,28
 -83.9999957127 199.001953125 -83.9999957127 199.001953125 -5.2646484375 199.001953125 c 2,29,-1
 98.1884765625 199.001953125 l 2,0,1
EndSplineSet
EndChar

StartChar: uniFEDC
Encoding: 65244 65244 227
Width: 1231
VWidth: 3805
GlyphClass: 2
Flags: W
AnchorPoint: "Anchor-10" 325.901 1616.83 basechar 0
AnchorPoint: "Anchor-7" 340.687 -298.871 basechar 0
LayerCount: 2
Fore
SplineSet
171.112304688 1138.73339844 m 1,0,1
 508 810 508 810 729.025390625 527.951171875 c 0,2,3
 985.998474231 199.001953125 985.998474231 199.001953125 1213.58496094 199.001953125 c 2,4,-1
 1236.50195312 199.001953125 l 2,5,6
 1275.24511719 198.999987564 1275.24511719 198.999987564 1275.24511719 102.1328125 c 2,7,-1
 1275.24511719 94.7626953125 l 2,8,9
 1275 0 1275 0 1236.50195312 0 c 2,10,-1
 1214.01660156 0 l 2,11,12
 906 0 906 0 683.359375 352.842773438 c 1,13,14
 614 0 614 0 98.16796875 0 c 2,15,-1
 -5.2646484375 0 l 2,16,17
 -84.2080078125 0 -84.2080078125 0 -84.2080078125 93.7099609375 c 2,18,-1
 -84.2080078125 104.239257812 l 2,19,20
 -83.9999957127 199.001953125 -83.9999957127 199.001953125 -5.2646484375 199.001953125 c 2,21,-1
 98.1884765625 199.001953125 l 2,22,23
 394 199 394 199 522.27734375 309.060546875 c 0,24,25
 600 376 600 376 577.9453125 440.995117188 c 0,26,27
 548 528 548 528 294.922851562 780.782226562 c 16,28,29
 109 967 109 967 30.998046875 1047.38671875 c 0,30,31
 -1 1080 -1 1080 7.2734375 1107.41894531 c 0,32,33
 38 1206 38 1206 45.8408203125 1233.0859375 c 0,34,35
 51.1111789069 1251.38604313 51.1111789069 1251.38604313 62.9013671875 1256.35742188 c 2,36,-1
 858.9296875 1592.00585938 l 2,37,38
 880.485067254 1601.20705735 880.485067254 1601.20705735 877.349609375 1581.07519531 c 2,39,-1
 851.337890625 1414.06152344 l 1,40,-1
 171.112304688 1138.73339844 l 1,0,1
EndSplineSet
EndChar

StartChar: uniFEDE
Encoding: 65246 65246 229
Width: 1499
VWidth: 3805
GlyphClass: 2
Flags: W
AnchorPoint: "Anchor-10" 588.527 1410.82 basechar 0
AnchorPoint: "Anchor-7" 582.427 -800.57 basechar 0
LayerCount: 2
Fore
SplineSet
627.168945312 -599.045898438 m 0,0,1
 115 -599 115 -599 114.147460938 -182 c 0,2,3
 114 -94 114 -94 140.059570312 9 c 0,4,5
 163 100 163 100 207.9921875 201.96875 c 1,6,-1
 265 178 l 1,7,8
 215 6 215 6 214.18359375 -89.6484375 c 0,9,10
 211 -403 211 -403 637.990234375 -401.204101562 c 0,11,12
 1000 -399 1000 -399 1143.07128906 -178.944335938 c 1,13,14
 1092 1232 1092 1232 1054.90917969 1418.85253906 c 1,15,-1
 1191.34179688 1584.78125 l 2,16,17
 1216.89927432 1615.87744544 1216.89927432 1615.87744544 1227.52246094 1568.51367188 c 2,18,-1
 1281.06933594 1329.7734375 l 1,19,20
 1300.11290189 1261.59580133 1300.11290189 1261.59580133 1266.41113281 1232.53125 c 2,21,-1
 1212.1875 1185.76855469 l 1,22,-1
 1232.20117188 386.083984375 l 2,23,24
 1236.9999499 199.001953125 1236.9999499 199.001953125 1481.02636719 199.001953125 c 2,25,-1
 1503.94433594 199.001953125 l 2,26,27
 1542.68652344 199.000015677 1542.68652344 199.000015677 1542.68652344 102.1328125 c 2,28,-1
 1542.68652344 94.7626953125 l 2,29,30
 1543 0 1543 0 1503.94433594 0 c 2,31,-1
 1481.45800781 0 l 2,32,33
 1284 0 1284 0 1238.5078125 104.112304688 c 1,34,-1
 1242.2890625 -53.140625 l 2,35,36
 1248 -275 1248 -275 1111.62011719 -420.295898438 c 0,37,38
 946 -599 946 -599 627.168945312 -599.045898438 c 0,0,1
EndSplineSet
EndChar

StartChar: uniFEDF
Encoding: 65247 65247 230
Width: 554
VWidth: 3764
GlyphClass: 2
Flags: W
AnchorPoint: "Anchor-10" 242.792 1735.77 basechar 0
AnchorPoint: "Anchor-7" 196.901 -288.037 basechar 0
LayerCount: 2
Fore
SplineSet
16.041015625 0 m 2,0,1
 -5.2646484375 0 l 2,2,3
 -84.2333984375 0 -84.2333984375 0 -84.2080078125 93.7099609375 c 2,4,-1
 -84.2080078125 104.239257812 l 2,5,6
 -84.2080078125 199.001953125 -84.2080078125 199.001953125 -5.2646484375 199.001953125 c 2,7,-1
 16.0615234375 199.001953125 l 2,8,9
 199.001953125 199.001953125 199.001953125 199.001953125 260.442382812 288.028320312 c 0,10,11
 290.60546875 331.669921875 290.60546875 331.669921875 285.225585938 469.591796875 c 0,12,13
 257.965820312 1175.05859375 257.965820312 1175.05859375 208.994140625 1422.10644531 c 5,14,-1
 353.907226562 1591.28808594 l 6,15,16
 377.994140625 1619.40917969 377.994140625 1619.40917969 387.765625 1571.76660156 c 6,17,-1
 435.796875 1342.71875 l 6,18,19
 451.73828125 1266.69824219 451.73828125 1266.69824219 417.577148438 1232.73925781 c 6,20,-1
 372.857421875 1188.84472656 l 5,21,-1
 405.239257812 548.3671875 l 2,22,23
 417.619140625 303.510742188 417.619140625 303.510742188 354.985351562 177.720703125 c 0,24,25
 267.44140625 0 267.44140625 0 16.041015625 0 c 2,0,1
EndSplineSet
EndChar

StartChar: uniFEE0
Encoding: 65248 65248 231
Width: 677
VWidth: 3764
GlyphClass: 2
Flags: W
AnchorPoint: "Anchor-7" 239.019 -288.037 basechar 0
AnchorPoint: "Anchor-10" 292.953 1720.44 basechar 0
LayerCount: 2
Fore
SplineSet
640.17578125 0 m 2,0,1
 439 0 439 0 349.173828125 149.841796875 c 1,2,3
 237 0 237 0 65.52734375 0 c 2,4,-1
 -5.2646484375 0 l 2,5,6
 -84.2080078125 0 -84.2080078125 0 -84.2080078125 93.7099609375 c 2,7,-1
 -84.2080078125 104.239257812 l 2,8,9
 -83.9999957127 199.001953125 -83.9999957127 199.001953125 -5.2646484375 199.001953125 c 2,10,-1
 65.548828125 199.001953125 l 2,11,12
 302 199 302 199 297.490234375 429.390625 c 0,13,14
 279 1281 279 1281 242.61328125 1458.98046875 c 1,15,-1
 357.887695312 1577.14648438 l 2,16,17
 410.950195312 1631.94856254 410.950195312 1631.94856254 410.950195312 1551.16210938 c 2,18,-1
 410.950195312 424.703125 l 2,19,20
 410.999999569 199.001953125 410.999999569 199.001953125 639.743164062 199.001953125 c 2,21,-1
 681.61328125 199.001953125 l 2,22,23
 720.356445312 198.999981864 720.356445312 198.999981864 720.356445312 102.1328125 c 6,24,-1
 720.356445312 94.7626953125 l 6,25,26
 720 0 720 0 681.61328125 0 c 2,27,-1
 640.17578125 0 l 2,0,1
EndSplineSet
EndChar

StartChar: uniFEE2
Encoding: 65250 65250 233
Width: 1258
VWidth: 3842
GlyphClass: 2
Flags: W
AnchorPoint: "Anchor-10" 654.47 1032.19 basechar 0
AnchorPoint: "Anchor-7" 214.445 -867.926 basechar 0
LayerCount: 2
Fore
SplineSet
1250.86914062 0 m 2,0,1
 1120 0 1120 0 1023.4296875 94.5146484375 c 1,2,3
 971 -210 971 -210 772.266601562 -206.788085938 c 0,4,5
 519 -203 519 -203 516.567382812 197.620117188 c 0,6,7
 516 306 516 306 519.012695312 325.103515625 c 1,8,9
 312 267 312 267 242.508789062 145.401367188 c 1,10,-1
 257.912109375 -483.09375 l 2,11,12
 261.086676772 -617.674524973 261.086676772 -617.674524973 146.217383633 -746 c 0,13,14
 131 -763 131 -763 129.943730249 -730 c 2,15,-1
 115.051757812 -244.329101562 l 2,16,17
 108 -21 108 -21 120.705078125 91.0986328125 c 0,18,19
 137 246 137 246 248.244140625 360.653320312 c 0,20,21
 371 485 371 485 535.150390625 499.579101562 c 1,22,23
 557 601 557 601 580.75390625 648.752929688 c 0,24,25
 592.064615872 671.127823393 592.064615872 671.127823393 610.360351562 654.446289062 c 2,26,-1
 872.575195312 415.366210938 l 2,27,28
 1109.99785678 199.001953125 1109.99785678 199.001953125 1250.4375 199.001953125 c 2,29,-1
 1262.82519531 199.001953125 l 2,30,31
 1301.56738281 199.000021569 1301.56738281 199.000021569 1301.56738281 102.1328125 c 2,32,-1
 1301.56738281 94.7626953125 l 2,33,34
 1302 0 1302 0 1262.82519531 0 c 2,35,-1
 1250.86914062 0 l 2,0,1
627.224609375 407.069335938 m 1,36,37
 617.010742188 305.346679688 617.010742188 305.346679688 620.555664062 164.791015625 c 0,38,39
 625.434570312 -21.05859375 625.434570312 -21.05859375 797.595703125 -20.98828125 c 0,40,41
 866.552734375 -21.05859375 866.552734375 -21.05859375 896.372070312 41.7109375 c 0,42,43
 941.310546875 137.932617188 941.310546875 137.932617188 853.59765625 212.563476562 c 0,44,45
 740.203125 309.55859375 740.203125 309.55859375 627.224609375 407.069335938 c 1,36,37
EndSplineSet
EndChar

StartChar: uniFEE3
Encoding: 65251 65251 234
Width: 1039
VWidth: 3808
GlyphClass: 2
Flags: W
AnchorPoint: "Anchor-10" 521.194 1037.38 basechar 0
AnchorPoint: "Anchor-7" 517.225 -297.984 basechar 0
LayerCount: 2
Fore
SplineSet
23.5537109375 0 m 2,0,1
 -5.2646484375 0 l 2,2,3
 -84.2333984375 0 -84.2333984375 0 -84.2080078125 93.7099609375 c 2,4,-1
 -84.2080078125 104.239257812 l 2,5,6
 -84.2080078125 199.001953125 -84.2080078125 199.001953125 -5.2646484375 199.001953125 c 2,7,-1
 31.5380859375 199.001953125 l 2,8,9
 229.536132812 199.001953125 229.536132812 199.001953125 313.994140625 343.8125 c 0,10,11
 400.109375 489.607421875 400.109375 489.607421875 480.696289062 597.268554688 c 0,12,13
 544.359375 683.344726562 544.359375 683.344726562 632.247070312 690.23828125 c 0,14,15
 734.938476562 698.0859375 734.938476562 698.0859375 804.079101562 626.752929688 c 0,16,17
 909.72265625 519.08984375 909.72265625 519.08984375 925.678710938 324.376953125 c 0,18,19
 938.151367188 176.890625 938.151367188 176.890625 819.208007812 73.76171875 c 0,20,21
 719.14453125 -12.634765625 719.14453125 -12.634765625 567.004882812 45.08984375 c 0,22,23
 464.337890625 84.2333984375 464.337890625 84.2333984375 338.315429688 166.870117188 c 1,24,25
 239.012695312 0 239.012695312 0 23.5537109375 0 c 2,0,1
434.260742188 332.079101562 m 1,26,27
 721.1171875 121.275390625 721.1171875 121.275390625 805.108398438 223.987304688 c 0,28,29
 856.1328125 285.034179688 856.1328125 285.034179688 778.548828125 398.704101562 c 24,30,31
 670.817382812 556.627929688 670.817382812 556.627929688 566.375 492.250976562 c 0,32,33
 499.086914062 450.3125 499.086914062 450.3125 434.260742188 332.079101562 c 1,26,27
EndSplineSet
EndChar

StartChar: uniFEE4
Encoding: 65252 65252 235
Width: 1143
VWidth: 3808
GlyphClass: 2
Flags: W
AnchorPoint: "Anchor-10" 491.194 1016.32 basechar 0
AnchorPoint: "Anchor-7" 492.041 -296.178 basechar 0
LayerCount: 2
Fore
SplineSet
1127.25683594 199.001953125 m 2,0,1
 1148.06835938 199.001953125 l 2,2,3
 1186.81054688 199.000009504 1186.81054688 199.000009504 1186.81054688 102.1328125 c 2,4,-1
 1186.81054688 94.7626953125 l 2,5,6
 1187 0 1187 0 1148.06835938 0 c 2,7,-1
 1127.68847656 0 l 2,8,9
 1006 0 1006 0 881.633789062 99.5419921875 c 1,10,11
 840 23 840 23 800.51953125 -12.2412109375 c 0,12,13
 702 -100 702 -100 549.348632812 -48.8662109375 c 0,14,15
 482 -26 482 -26 316.92578125 76.1572265625 c 1,16,17
 196 0 196 0 44.6123046875 0 c 2,18,-1
 -5.2646484375 0 l 2,19,20
 -84.2080078125 0 -84.2080078125 0 -84.2080078125 93.7099609375 c 2,21,-1
 -84.2080078125 104.239257812 l 2,22,23
 -83.9999957127 199.001953125 -83.9999957127 199.001953125 -5.2646484375 199.001953125 c 2,24,-1
 42.0673828125 199.001953125 l 2,25,26
 155 199 155 199 227.965820312 214.346679688 c 0,27,28
 277 225 277 225 306.676757812 277.970703125 c 0,29,30
 385 419 385 419 426.049804688 476.555664062 c 0,31,32
 490 565 490 565 574.5859375 574.430664062 c 0,33,34
 680 585 680 585 751.3984375 510.231445312 c 0,35,36
 811 447 811 447 894.725585938 290.258789062 c 0,37,38
 943 199 943 199 1127.25683594 199.001953125 c 2,0,1
407.604492188 233.784179688 m 1,39,40
 700 34 700 34 781.681640625 137.463867188 c 0,41,42
 827 196 827 196 749.615234375 300.723632812 c 24,43,44
 637 454 637 454 515.001953125 374.461914062 c 0,45,46
 461 339 461 339 407.604492188 233.784179688 c 1,39,40
EndSplineSet
EndChar

StartChar: uniFEEA
Encoding: 65258 65258 241
Width: 1040
VWidth: 3791
GlyphClass: 2
Flags: W
AnchorPoint: "Anchor-10" 623.972 1334.12 basechar 0
AnchorPoint: "Anchor-7" 357.352 -224.97 basechar 0
LayerCount: 2
Fore
SplineSet
1020.90039062 199.001953125 m 2,0,-1
 1041.71191406 199.001953125 l 2,1,2
 1080.45507812 198.999976786 1080.45507812 198.999976786 1080.45507812 102.1328125 c 2,3,-1
 1080.45507812 94.7626953125 l 2,4,5
 1080 0 1080 0 1041.71191406 0 c 2,6,-1
 1021.33203125 0 l 2,7,8
 788 0 788 0 705.98828125 241.352539062 c 5,9,-1
 550.0078125 152.748046875 l 5,10,11
 346 154 346 154 279.09765625 167.123046875 c 0,12,13
 121 196 121 196 113.981445312 267.331054688 c 0,14,15
 104 373 104 373 130.705078125 452.424804688 c 0,16,17
 188 624 188 624 577.139648438 795.614257812 c 5,18,-1
 543.760742188 945.645507812 l 5,19,-1
 625.194335938 1030.75976562 l 6,20,21
 649.393237044 1056.41693419 649.393237044 1056.41693419 656.756835938 1019.91308594 c 6,22,-1
 783.11328125 393.521484375 l 6,23,24
 822 199 822 199 1020.90039062 199.001953125 c 2,0,-1
252.00390625 392.754882812 m 0,25,26
 298 344 298 344 541.45703125 344.82421875 c 4,27,28
 635 345 635 345 676.739257812 347.288085938 c 5,29,-1
 608.521484375 655.477539062 l 5,30,31
 360 579 360 579 271.287109375 487.858398438 c 0,32,33
 216 431 216 431 252.00390625 392.754882812 c 0,25,26
EndSplineSet
EndChar

StartChar: uniFEEB
Encoding: 65259 65259 242
Width: 1210
VWidth: 3798
GlyphClass: 2
Flags: W
AnchorPoint: "Anchor-10" 526.266 1368.54 basechar 0
AnchorPoint: "Anchor-7" 526.556 -249.307 basechar 0
LayerCount: 2
Fore
SplineSet
-5.2646484375 199.001953125 m 2,0,1
 49.4873046875 199.001953125 l 25,2,-1
 349.973632812 199.001953125 l 1,3,4
 231.642578125 232.6953125 231.642578125 232.6953125 184.955078125 312.333984375 c 0,5,6
 145.302734375 380.104492188 145.302734375 380.104492188 168.249023438 504.173828125 c 0,7,8
 206.372070312 709.66796875 206.372070312 709.66796875 376.659179688 807.571289062 c 1,9,-1
 255.944335938 849.169921875 l 1,10,-1
 317.424804688 1029.12792969 l 1,11,-1
 689.612304688 861.254882812 l 2,12,13
 1135.04785156 660.180664062 1135.04785156 660.180664062 1097.27636719 326.487304688 c 0,14,15
 1089.77246094 260.071289062 1089.77246094 260.071289062 1078.28710938 210.39453125 c 0,16,17
 1041.33789062 57.91015625 1041.33789062 57.91015625 856.760742188 68.0224609375 c 0,18,19
 707.5625 76.86328125 707.5625 76.86328125 491.139648438 125.411132812 c 1,20,21
 257.965820312 0 257.965820312 0 48.685546875 0 c 2,22,-1
 -5.2646484375 0 l 2,23,24
 -84.2080078125 0 -84.2080078125 0 -84.2080078125 93.7099609375 c 2,25,-1
 -84.2080078125 104.239257812 l 2,26,27
 -84.2333984375 199.001953125 -84.2333984375 199.001953125 -5.2646484375 199.001953125 c 2,0,1
632.465820312 276.002929688 m 1,28,29
 786.53125 224.271484375 786.53125 224.271484375 942.842773438 223.090820312 c 1,30,31
 1016.06738281 346.411132812 1016.06738281 346.411132812 981.317382812 442.895507812 c 0,32,33
 947.627929688 534.883789062 947.627929688 534.883789062 757.942382812 616.25 c 1,34,35
 770.737304688 419.0625 770.737304688 419.0625 632.465820312 276.002929688 c 1,28,29
509.743164062 323.53125 m 1,36,37
 595.39453125 380.662109375 595.39453125 380.662109375 630.61328125 526.331054688 c 0,38,39
 665.887695312 673.479492188 665.887695312 673.479492188 538.557617188 708.884765625 c 0,40,41
 414.282226562 743.97265625 414.282226562 743.97265625 308.3203125 575.5234375 c 0,42,43
 272.211914062 518.39453125 272.211914062 518.39453125 270.659179688 484.775390625 c 0,44,45
 264.620117188 392.591796875 264.620117188 392.591796875 413.729492188 348.102539062 c 0,46,47
 478.268554688 328.60546875 478.268554688 328.60546875 509.743164062 323.53125 c 1,36,37
EndSplineSet
EndChar

StartChar: uniFEEC
Encoding: 65260 65260 243
Width: 1116
VWidth: 3827
GlyphClass: 2
Flags: W
AnchorPoint: "Anchor-7" 369.778 -759.076 basechar 0
AnchorPoint: "Anchor-10" 551.603 1246.79 basechar 0
LayerCount: 2
Fore
SplineSet
1088.31445312 199.001953125 m 2,0,1
 1120.70898438 199.001953125 l 2,2,3
 1159.45117188 198.999976987 1159.45117188 198.999976987 1159.45117188 102.1328125 c 2,4,-1
 1159.45117188 94.7626953125 l 2,5,6
 1159 0 1159 0 1120.70898438 0 c 2,7,-1
 1088.74707031 0 l 2,8,9
 866 0 866 0 784.225585938 -84.591796875 c 0,10,11
 693 -180 693 -180 784.232421875 -480.186523438 c 1,12,-1
 650.473632812 -602.258789062 l 1,13,14
 305 -357 305 -357 252.616210938 0 c 1,15,-1
 -5.2646484375 0 l 2,16,17
 -84.2080078125 0 -84.2080078125 0 -84.2080078125 93.7099609375 c 2,18,19
 -84.2080078125 104.239257812 l 2,20,21
 -83.9999957127 199.001953125 -83.9999957127 199.001953125 -5.2646484375 199.001953125 c 2,22,-1
 244.955078125 199.001953125 l 1,23,24
 276 532 276 532 489.624023438 816.28125 c 0,25,26
 533 874 533 874 587.282226562 830.381835938 c 0,27,28
 805 655 805 655 801.775390625 399.250976562 c 0,29,30
 800 258 800 258 708.549804688 165.9296875 c 0,31,32
 564 20 564 20 350.973632812 -1.0703125 c 1,33,34
 389 -139 389 -139 595.8046875 -318.653320312 c 1,35,36
 671 199 671 199 1088.31445312 199.001953125 c 2,0,1
339.515625 199.001953125 m 1,37,38
 675 206 675 206 699.874023438 342.705078125 c 0,39,40
 715 425 715 425 525.569335938 635.622070312 c 1,41,42
 368 390 368 390 339.515625 199.001953125 c 1,37,38
EndSplineSet
EndChar

StartChar: uniFEEE
Encoding: 65262 65262 245
Width: 873
VWidth: 3833
GlyphClass: 2
Flags: W
AnchorPoint: "Anchor-7" 331.096 -783.978 basechar 0
AnchorPoint: "Anchor-10" 440.667 1026.67 basechar 0
LayerCount: 2
Fore
SplineSet
449.1875 660.248046875 m 24,0,1
 691 655 691 655 730.1328125 199.001953125 c 9,2,-1
 878.509765625 199.001953125 l 2,3,4
 917.251953125 198.999987215 917.251953125 198.999987215 917.251953125 102.1328125 c 2,5,-1
 917.251953125 94.7626953125 l 2,6,7
 917 0 917 0 878.509765625 0 c 2,8,-1
 724.451171875 0 l 1,9,10
 679 -305 679 -305 434.887695312 -494.53515625 c 0,11,12
 370 -545 370 -545 288.25390625 -543.631835938 c 0,13,14
 210 -542 210 -542 100.905273438 -510.107421875 c 0,15,16
 44 -494 44 -494 33.548828125 -473.87890625 c 0,17,18
 26 -460 26 -460 43.4697265625 -454.553710938 c 0,19,20
 506 -317 506 -317 627.126953125 -4.6689453125 c 9,21,-1
 476.408203125 -5.8837890625 l 2,22,23
 296 -7 296 -7 231.209960938 79.7763671875 c 0,24,25
 185 141 185 141 184.616210938 232.65234375 c 0,26,27
 184 335 184 335 251.336914062 486.95703125 c 0,28,29
 329 663 329 663 449.1875 660.248046875 c 24,0,1
589.62109375 339.182617188 m 0,30,31
 547 462 547 462 435.146484375 461.415039062 c 0,32,33
 344 461 344 461 310.168945312 364.154296875 c 0,34,35
 285 291 285 291 295.319335938 256.697265625 c 0,36,37
 315 194 315 194 479.352539062 193.01953125 c 0,38,39
 574 193 574 193 619.426757812 198.048828125 c 1,40,41
 612 274 612 274 589.62109375 339.182617188 c 0,30,31
EndSplineSet
EndChar

StartChar: uniFEF0
Encoding: 65264 65264 247
Width: 1567
VWidth: 3805
GlyphClass: 2
Flags: W
AnchorPoint: "Anchor-7" 664.427 -879.216 basechar 0
AnchorPoint: "Anchor-10" 713.282 621.5 basechar 0
LayerCount: 2
Fore
SplineSet
214.162450304 -143.352717032 m 0,0,1
 214 -433 214 -433 709.577148438 -433.325195312 c 4,2,3
 1150 -433 1150 -433 1298 -305.008789062 c 0,4,5
 1319 -287 1319 -287 1319.09375 -275.342773438 c 0,6,7
 1319 -264 1319 -264 1301.546875 -262.481445312 c 128,-1,8
 1284 -261 1284 -261 1269.90039062 -259.169921875 c 2,9,-1
 1055.640625 -237.211914062 l 2,10,11
 914 -223 914 -223 913.7421875 -111.236328125 c 0,12,13
 914 -71 914 -71 932.610351562 -17.3525390625 c 0,14,15
 1009.00068961 199.001953125 1009.00068961 199.001953125 1223.2578125 199.001953125 c 18,16,-1
 1571.84375 199.001953125 l 2,17,18
 1610.5859375 199.000020654 1610.5859375 199.000020654 1610.5859375 102.1328125 c 2,19,-1
 1610.5859375 94.7626953125 l 2,20,21
 1611 0 1611 0 1571.84375 0 c 2,22,-1
 1532.51171875 0 l 2,23,24
 1366 0 1366 0 1108.66699219 43.380859375 c 0,25,26
 1105 44 1105 44 1102.16113281 43.9736328125 c 0,27,28
 1054 44 1054 44 1031.30078125 -93.349609375 c 1,29,-1
 1289.77929688 -120.936523438 l 2,30,31
 1372 -130 1372 -130 1397.46582031 -172.2265625 c 0,32,33
 1440 -243 1440 -243 1376.34765625 -349.221679688 c 0,34,35
 1209 -626 1209 -626 699.8359375 -625.271484375 c 0,36,37
 114 -624 114 -624 114.146631209 -230.869196557 c 0,38,39
 114 -61 114 -61 207.9921875 152.110351562 c 1,40,-1
 265 128.141601562 l 1,41,42
 214 -47 214 -47 214.162450304 -143.352717032 c 0,0,1
EndSplineSet
EndChar

StartChar: uniFEFB
Encoding: 65275 65275 258
Width: 1263
VWidth: 3764
GlyphClass: 3
Flags: W
AnchorPoint: "Anchor-9" 182.848 1673.87 baselig 1
AnchorPoint: "Anchor-6" 316.134 -262.649 baselig 1
AnchorPoint: "Anchor-6" 1000.16 -214.8 baselig 0
AnchorPoint: "Anchor-9" 1013.97 1729.48 baselig 0
LayerCount: 2
Fore
SplineSet
322.193359375 13.798828125 m 0,0,1
 145.302734375 94.7626953125 145.302734375 94.7626953125 129.688476562 104.736328125 c 4,2,3
 62.1220703125 146.35546875 62.1220703125 146.35546875 136.963867188 152.830078125 c 4,4,5
 443.279296875 178.99609375 443.279296875 178.99609375 718.801757812 249.510742188 c 1,6,7
 565.41796875 750.732421875 565.41796875 750.732421875 133.39453125 1245.015625 c 1,8,-1
 236.620117188 1441.56542969 l 1,9,10
 660.180664062 865.5 660.180664062 865.5 802.536132812 282.296875 c 1,11,12
 997.115234375 371.680664062 997.115234375 371.680664062 993.431640625 505.9140625 c 0,13,14
 990.797851562 605.428710938 990.797851562 605.428710938 986.838867188 657.2109375 c 0,15,16
 941.310546875 1295.09179688 941.310546875 1295.09179688 916.408203125 1421.02148438 c 1,17,-1
 1063.08105469 1588.03515625 l 2,18,19
 1086.30566406 1613.78515625 1086.30566406 1613.78515625 1095.40039062 1570.68359375 c 2,20,-1
 1144.28417969 1339.03222656 l 2,21,22
 1160.28027344 1262.63085938 1160.28027344 1262.63085938 1126.06542969 1229.04980469 c 2,23,-1
 1081.3359375 1185.1484375 l 1,24,-1
 1103.41113281 623.591796875 l 2,25,26
 1127.67773438 3.1591796875 1127.67773438 3.1591796875 376.9453125 3.1552734375 c 0,27,28
 345.357421875 3.1591796875 345.357421875 3.1591796875 322.193359375 13.798828125 c 0,0,1
EndSplineSet
LCarets2: 1 0
Ligature2: "'rlig' Required Ligatures in Arabic lookup 16 subtable" uniFEDF uniFE8E
EndChar

StartChar: uniFEFC
Encoding: 65276 65276 259
Width: 1385
VWidth: 3764
GlyphClass: 3
Flags: W
AnchorPoint: "Anchor-9" 1013.97 1729.48 baselig 0
AnchorPoint: "Anchor-6" 1000.16 -214.8 baselig 0
AnchorPoint: "Anchor-6" 316.134 -262.649 baselig 1
AnchorPoint: "Anchor-9" 182.848 1673.87 baselig 1
LayerCount: 2
Fore
SplineSet
1350.46484375 199.001953125 m 2,0,1
 1390.22851562 199.001953125 l 2,2,3
 1428.97070312 199.000001476 1428.97070312 199.000001476 1428.97070312 102.1328125 c 6,4,-1
 1428.97070312 94.7626953125 l 6,5,6
 1429 0 1429 0 1390.22851562 0 c 2,7,-1
 1350.89648438 0 l 2,8,9
 1003 0 1003 0 998.778320312 433.911132812 c 1,10,11
 748 29 748 29 404.321289062 4.8125 c 0,12,13
 349.883723411 0.991839212549 349.883723411 0.991839212549 312.716796875 18.3896484375 c 2,14,-1
 150.74609375 94.2080078125 l 2,15,16
 49 142 49 142 147.493164062 152.830078125 c 0,17,18
 502 192 502 192 698.196289062 314.581054688 c 1,19,20
 559 737 559 737 134.478515625 1246.09863281 c 1,21,-1
 236.620117188 1441.56542969 l 1,22,23
 658 862 658 862 780.844726562 358.212890625 c 1,24,25
 986 512 986 512 982.586914062 603.518554688 c 0,26,27
 976 782 976 782 972.516601562 831.168945312 c 0,28,29
 938 1300 938 1300 916.408203125 1421.02148438 c 1,30,-1
 1063.08105469 1588.03515625 l 2,31,32
 1086.20953526 1614.23738223 1086.20953526 1614.23738223 1095.40039062 1570.68359375 c 2,33,-1
 1144.28417969 1339.03222656 l 2,34,35
 1160.11064525 1262.46470471 1160.11064525 1262.46470471 1126.06542969 1229.04980469 c 2,36,-1
 1081.3359375 1185.1484375 l 1,37,-1
 1108.3671875 419.8671875 l 2,38,39
 1116 199 1116 199 1350.46484375 199.001953125 c 2,0,1
EndSplineSet
LCarets2: 1 0
Ligature2: "'rlig' Required Ligatures in Arabic lookup 16 subtable" uniFEE0 uniFE8E
EndChar

StartChar: arabic_dot
Encoding: 65536 -1 260
Width: 236
VWidth: 3294
GlyphClass: 2
Flags: W
LayerCount: 2
Fore
SplineSet
117.973632812 275.751953125 m 1,0,-1
 264.407226562 129.318359375 l 1,1,-1
 117.973632812 -17.1181640625 l 1,2,-1
 -28.4609375 129.318359375 l 1,3,-1
 117.973632812 275.751953125 l 1,0,-1
EndSplineSet
EndChar

StartChar: arabic_2dots
Encoding: 65537 -1 261
Width: 622
VWidth: 3294
GlyphClass: 2
Flags: W
LayerCount: 2
Fore
SplineSet
472.920898438 264.084960938 m 1,0,-1
 612.040039062 124.966796875 l 1,1,-1
 472.920898438 -14.154296875 l 1,2,-1
 333.80078125 124.966796875 l 1,3,-1
 472.920898438 264.084960938 l 1,0,-1
150.079101562 264.084960938 m 5,4,-1
 289.200195312 124.966796875 l 5,5,-1
 150.079101562 -14.154296875 l 5,6,-1
 10.9599609375 124.966796875 l 5,7,-1
 150.079101562 264.084960938 l 5,4,-1
EndSplineSet
EndChar

StartChar: arabic_3dots
Encoding: 65538 -1 262
Width: 600
VWidth: 3294
GlyphClass: 2
Flags: W
LayerCount: 2
Fore
SplineSet
468.756835938 229.744140625 m 1,0,-1
 599.303710938 99.1962890625 l 1,1,-1
 468.756835938 -31.3505859375 l 1,2,-1
 338.2109375 99.1962890625 l 1,3,-1
 468.756835938 229.744140625 l 1,0,-1
132.716796875 229.744140625 m 5,4,-1
 263.263671875 99.1962890625 l 5,5,-1
 132.716796875 -31.3505859375 l 5,6,-1
 2.1708984375 99.1962890625 l 5,7,-1
 132.716796875 229.744140625 l 5,4,-1
300.5859375 490.60546875 m 1,8,-1
 431.130859375 360.05859375 l 1,9,-1
 300.5859375 229.510742188 l 1,10,-1
 170.040039062 360.05859375 l 1,11,-1
 300.5859375 490.60546875 l 1,8,-1
EndSplineSet
EndChar

StartChar: arabic_3dots_a
Encoding: 65539 -1 263
Width: 646
VWidth: 3294
GlyphClass: 2
Flags: W
LayerCount: 2
Fore
SplineSet
156.0390625 8.2900390625 m 5,0,-1
 25.4921875 138.836914062 l 5,1,-1
 156.0390625 269.383789062 l 5,2,-1
 286.584960938 138.836914062 l 5,3,-1
 156.0390625 8.2900390625 l 5,0,-1
492.079101562 8.2900390625 m 1,4,-1
 361.532226562 138.836914062 l 1,5,-1
 492.079101562 269.384765625 l 1,6,-1
 622.625976562 138.836914062 l 1,7,-1
 492.079101562 8.2900390625 l 1,4,-1
324.209960938 -252.572265625 m 1,8,-1
 193.665039062 -122.024414062 l 1,9,-1
 324.209960938 8.5224609375 l 1,10,-1
 454.755859375 -122.024414062 l 1,11,-1
 324.209960938 -252.572265625 l 1,8,-1
EndSplineSet
EndChar

StartChar: uni066E.fina
Encoding: 65540 -1 264
Width: 2054
VWidth: 3805
GlyphClass: 2
Flags: W
AnchorPoint: "Anchor-10" 1034.94 1819.73 basechar 0
AnchorPoint: "Anchor-7" 964.624 -384.904 basechar 0
LayerCount: 2
Fore
SplineSet
1684.35644531 158.046875 m 1,0,1
 1464 -87 1464 -87 832.381835938 -86.7607421875 c 0,2,3
 105 -86 105 -86 106.307617188 315.881835938 c 4,4,5
 107 493 107 493 210.0703125 647.333007812 c 5,6,-1
 268.84375 623.546875 l 5,7,8
 216 490 216 490 214.10546875 404.04296875 c 4,9,10
 207 111 207 111 837.440429688 110.59375 c 0,11,12
 1627.93959787 110.000045365 1627.93959787 110.000045365 1635.80664062 395.639648438 c 2,13,-1
 1638.41601562 490.381835938 l 1,14,-1
 1718.79882812 490.381835938 l 1,15,-1
 1723.4453125 398.885742188 l 2,16,17
 1733.99989687 199.001953125 1733.99989687 199.001953125 2036.44921875 199.001953125 c 2,18,-1
 2059.3671875 199.001953125 l 2,19,20
 2098.109375 198.99999447 2098.109375 198.99999447 2098.109375 102.1328125 c 2,21,-1
 2098.109375 94.7626953125 l 2,22,23
 2098 0 2098 0 2059.3671875 0 c 2,24,-1
 2036.88085938 0 l 2,25,26
 1776 0 1776 0 1684.35644531 158.046875 c 1,0,1
EndSplineSet
EndChar

StartChar: uni06A1.fina
Encoding: 65543 -1 265
Width: 2086
VWidth: 3799
GlyphClass: 2
Flags: W
AnchorPoint: "Anchor-10" 768.916 2002.79 basechar 0
AnchorPoint: "Anchor-7" 959.232 -471.314 basechar 0
LayerCount: 2
Fore
SplineSet
2018.44726562 0 m 2,0,1
 1792 0 1792 0 1588.21386719 121.87109375 c 1,2,3
 1298 -87 1298 -87 812.381835938 -86.7607421875 c 0,4,5
 109 -86 109 -86 106.307617188 310.6171875 c 4,6,7
 105 490 105 490 210.0703125 647.333007812 c 5,8,-1
 268.84375 623.546875 l 5,9,10
 216 490 216 490 214.10546875 404.04296875 c 4,11,12
 210 111 210 111 817.440429688 110.59375 c 0,13,14
 1259 111 1259 111 1438.08203125 211.7890625 c 1,15,16
 1290 345 1290 345 1289.82714844 499.610351562 c 0,17,18
 1290 620 1290 620 1359.61523438 724.049804688 c 0,19,20
 1456 871 1456 871 1587.13769531 870.124023438 c 0,21,22
 1706 870 1706 870 1788.59082031 742.887695312 c 0,23,24
 1857 637 1857 637 1857.09570312 521.647460938 c 0,25,26
 1857 363 1857 363 1732.88867188 235.627929688 c 1,27,28
 1837.99439511 199.001953125 1837.99439511 199.001953125 2018.015625 199.001953125 c 2,29,-1
 2091.47363281 199.001953125 l 2,30,31
 2130.21582031 198.999989059 2130.21582031 198.999989059 2130.21582031 102.1328125 c 2,32,-1
 2130.21582031 94.7626953125 l 2,33,34
 2130 0 2130 0 2091.47363281 0 c 2,35,-1
 2018.44726562 0 l 2,0,1
1446.62792969 591.27734375 m 0,36,37
 1405.6484375 539.094726562 1405.6484375 539.094726562 1404.47070312 485.049804688 c 0,38,39
 1403.54199219 414.850585938 1403.54199219 414.850585938 1449.60351562 369.65625 c 0,40,41
 1535.15722656 285.341796875 1535.15722656 285.341796875 1578.98632812 285.186523438 c 0,42,43
 1620.44433594 285.341796875 1620.44433594 285.341796875 1693.17382812 363.890625 c 0,44,45
 1740.4765625 414.850585938 1740.4765625 414.850585938 1742.42285156 477.904296875 c 0,46,47
 1743.63574219 539.094726562 1743.63574219 539.094726562 1696.05566406 596.26953125 c 0,48,49
 1625.70800781 678.080078125 1625.70800781 678.080078125 1568.52539062 670.801757812 c 0,50,51
 1502.51660156 662.287109375 1502.51660156 662.287109375 1446.62792969 591.27734375 c 0,36,37
EndSplineSet
EndChar

StartChar: uni06A1.init
Encoding: 65544 -1 266
Width: 799
VWidth: 3833
GlyphClass: 2
Flags: W
AnchorPoint: "Anchor-10" 495.194 2065.36 basechar 0
AnchorPoint: "Anchor-7" 398.773 -381.183 basechar 0
LayerCount: 2
Fore
SplineSet
-5.2646484375 199.001953125 m 6,0,-1
 148.790039062 199.548828125 l 2,1,2
 598.05859375 201.107421875 598.05859375 201.107421875 590.822265625 424.15625 c 1,3,4
 501.189453125 392.739257812 501.189453125 392.739257812 412.364257812 388.576171875 c 0,5,6
 252.701171875 381.157226562 252.701171875 381.157226562 187.595703125 448.044921875 c 0,7,8
 84.2333984375 551.73046875 84.2333984375 551.73046875 161.543945312 801.911132812 c 0,9,10
 233.748046875 1033.96777344 233.748046875 1033.96777344 395.025390625 1033.51953125 c 0,11,12
 529.619140625 1033.96777344 529.619140625 1033.96777344 607.814453125 896.887695312 c 0,13,14
 691.768554688 751.78515625 691.768554688 751.78515625 692.68359375 465.420898438 c 8,15,16
 693.874023438 0 693.874023438 0 173.653320312 0 c 2,17,-1
 -5.2646484375 0 l 6,18,19
 -84.2080078125 0 -84.2080078125 0 -84.2080078125 93.7099609375 c 6,20,-1
 -84.2080078125 104.239257812 l 6,21,22
 -84.2333984375 199.001953125 -84.2333984375 199.001953125 -5.2646484375 199.001953125 c 6,0,-1
536.314453125 743.73046875 m 0,23,24
 491.713867188 842.3359375 491.713867188 842.3359375 386.694335938 842.926757812 c 0,25,26
 262.247070312 842.140625 262.247070312 842.140625 230.892578125 700.596679688 c 0,27,28
 224.271484375 670.709960938 224.271484375 670.709960938 224.5390625 652.618164062 c 0,29,30
 225.325195312 605.428710938 225.325195312 605.428710938 272.694335938 592.876953125 c 0,31,32
 321.140625 580.159179688 321.140625 580.159179688 385.719726562 580.165039062 c 0,33,34
 503.295898438 581.211914062 503.295898438 581.211914062 577.889648438 618.931640625 c 1,35,36
 567.5234375 672.815429688 567.5234375 672.815429688 536.314453125 743.73046875 c 0,23,24
EndSplineSet
EndChar

StartChar: uni06A1.medi
Encoding: 65545 -1 267
Width: 1085
VWidth: 3799
GlyphClass: 2
Flags: W
AnchorPoint: "Anchor-10" 493.193 1502.44 basechar 0
AnchorPoint: "Anchor-7" 466.405 -213.618 basechar 0
LayerCount: 2
Fore
SplineSet
1017.12109375 0 m 2,0,1
 757 0 757 0 569.104492188 140.813476562 c 1,2,3
 366 0 366 0 82.234375 0 c 2,4,-1
 -5.2646484375 0 l 2,5,6
 -84.2080078125 0 -84.2080078125 0 -84.2080078125 93.7099609375 c 2,7,-1
 -84.2080078125 104.239257812 l 2,8,9
 -84.0010765106 198.509581184 -84.0010765106 198.509581184 -5.2646484375 199.001953125 c 2,10,-1
 82.1875 199.548828125 l 2,11,12
 291 201 291 201 407.108398438 243.692382812 c 1,13,14
 290.786394436 368.300051189 290.786394436 368.300051189 290.393554688 494.53515625 c 0,15,16
 290 621 290 621 357.291992188 724.049804688 c 0,17,18
 455 871 455 871 584.815429688 870.124023438 c 0,19,20
 702 870 702 870 786.267578125 742.887695312 c 0,21,22
 854 641 854 641 854.772460938 521.647460938 c 0,23,24
 856 363 856 363 730.565429688 235.627929688 c 1,25,26
 835.994377872 199.001953125 835.994377872 199.001953125 1016.68847656 199.001953125 c 2,27,-1
 1090.14648438 199.001953125 l 2,28,29
 1128.88867188 199.000005596 1128.88867188 199.000005596 1128.88867188 102.1328125 c 6,30,-1
 1128.88867188 94.7626953125 l 6,31,32
 1129 0 1129 0 1090.14648438 0 c 2,33,-1
 1017.12109375 0 l 2,0,1
444.3046875 591.27734375 m 0,34,35
 403.436523438 539 403.436523438 539 402.147460938 485.049804688 c 0,36,37
 401.267578125 415.366210938 401.267578125 415.366210938 447.280273438 369.65625 c 0,38,39
 532.494140625 285.225585938 532.494140625 285.225585938 576.6640625 285.186523438 c 0,40,41
 618.168945312 285.225585938 618.168945312 285.225585938 690.850585938 363.890625 c 0,42,43
 738.549804688 415.366210938 738.549804688 415.366210938 740.099609375 477.904296875 c 0,44,45
 741.802734375 539 741.802734375 539 693.732421875 596.26953125 c 0,46,47
 623.591796875 677.817382812 623.591796875 677.817382812 566.202148438 670.801757812 c 0,48,49
 499.958007812 662.633789062 499.958007812 662.633789062 444.3046875 591.27734375 c 0,34,35
EndSplineSet
EndChar

StartChar: uni066F.fina
Encoding: 65546 -1 268
Width: 1431
VWidth: 3833
GlyphClass: 2
Flags: W
AnchorPoint: "Anchor-10" 507.98 764.946 basechar 0
AnchorPoint: "Anchor-7" 427.924 -900.824 basechar 0
LayerCount: 2
Fore
SplineSet
1283.66894531 199.333007812 m 9,0,-1
 1436.70117188 199.001953125 l 2,1,2
 1475.44335938 198.99997739 1475.44335938 198.99997739 1475.44335938 102.1328125 c 2,3,-1
 1475.44335938 94.7626953125 l 2,4,5
 1475.0011994 0.256357929257 1475.0011994 0.256357929257 1436.70117188 0 c 2,6,-1
 1289.92675781 -0.982421875 l 1,7,8
 1289 -38 1289 -38 1287.96484375 -69 c 0,9,10
 1276 -305 1276 -305 1092 -459.526367188 c 0,11,12
 926 -599 926 -599 657.168945312 -599.045898438 c 0,13,14
 115 -599 115 -599 114.147460938 -182 c 0,15,16
 113.861530395 -11.3657414983 113.861530395 -11.3657414983 207.9921875 201.96875 c 5,17,-1
 265 178 l 1,18,19
 215 6 215 6 214.18359375 -89.6484375 c 0,20,21
 210.989716749 -404.012149497 210.989716749 -404.012149497 671.51953125 -401.204101562 c 0,22,23
 1033 -399 1033 -399 1181.66503906 -169.361328125 c 1,24,25
 1188 -95 1188 -95 1180.66308594 -4.337890625 c 9,26,-1
 1029.94433594 -5.552734375 l 2,27,28
 850 -7 850 -7 784.74609375 80.107421875 c 0,29,30
 739 141 739 141 738.15234375 232.983398438 c 0,31,32
 738 335 738 335 804.873046875 487.288085938 c 0,33,34
 883 663 883 663 1002.72363281 660.579101562 c 24,35,36
 1245 655 1245 655 1283.66894531 199.333007812 c 9,0,-1
1143.15722656 339.513671875 m 0,37,38
 1101 462 1101 462 988.682617188 461.74609375 c 0,39,40
 896 461 896 461 863.705078125 364.485351562 c 0,41,42
 839 291 839 291 848.85546875 257.028320312 c 0,43,44
 869 194 869 194 1032.88867188 193.350585938 c 0,45,46
 1128 193 1128 193 1172.96289062 198.379882812 c 1,47,48
 1166 274 1166 274 1143.15722656 339.513671875 c 0,37,38
EndSplineSet
EndChar

StartChar: arabic_gaf_bar
Encoding: 65550 -1 269
Width: 801
VWidth: 3184
GlyphClass: 2
Flags: W
LayerCount: 2
Fore
SplineSet
784.625 2173.2265625 m 2,0,-1
 766.747070312 2069.10351562 l 1,1,-1
 63.1748046875 1765.74707031 l 1,2,-1
 102.1328125 1895.25585938 l 5,3,-1
 769.684570312 2189.03710938 l 2,4,5
 788.625 2197.37207031 788.625 2197.37207031 784.625 2173.2265625 c 2,0,-1
EndSplineSet
EndChar

StartChar: guillemotleft
Encoding: 171 171 279
Width: 1149
VWidth: 3431
Flags: W
LayerCount: 2
Fore
SplineSet
492.060546875 10.927734375 m 5,0,1
 158.944335938 409.5859375 158.944335938 409.5859375 158.768554688 491.274414062 c 4,2,3
 158.944335938 572.788085938 158.944335938 572.788085938 492.030273438 982.708984375 c 5,4,-1
 622.4140625 982.708984375 l 5,5,6
 346.364257812 583.317382812 346.364257812 583.317382812 346.612304688 490.825195312 c 4,7,8
 346.364257812 408.533203125 346.364257812 408.533203125 622.451171875 10.927734375 c 5,9,-1
 492.060546875 10.927734375 l 5,0,1
860.58203125 10.927734375 m 5,10,11
 527.466796875 409.5859375 527.466796875 409.5859375 527.291015625 491.274414062 c 4,12,13
 527.466796875 572.788085938 527.466796875 572.788085938 860.552734375 982.708984375 c 5,14,-1
 990.936523438 982.708984375 l 5,15,16
 714.88671875 583.317382812 714.88671875 583.317382812 715.133789062 490.825195312 c 4,17,18
 714.88671875 408.533203125 714.88671875 408.533203125 990.973632812 10.927734375 c 5,19,-1
 860.58203125 10.927734375 l 5,10,11
EndSplineSet
EndChar

StartChar: guillemotright
Encoding: 187 187 280
Width: 1149
VWidth: 3431
Flags: W
LayerCount: 2
Fore
SplineSet
657.682617188 10.927734375 m 5,0,-1
 527.291015625 10.927734375 l 5,1,2
 803.377929688 408.533203125 803.377929688 408.533203125 803.129882812 490.825195312 c 4,3,4
 803.377929688 583.317382812 803.377929688 583.317382812 527.328125 982.708984375 c 5,5,-1
 657.711914062 982.708984375 l 5,6,7
 990.797851562 572.788085938 990.797851562 572.788085938 990.973632812 491.274414062 c 4,8,9
 990.797851562 409.5859375 990.797851562 409.5859375 657.682617188 10.927734375 c 5,0,-1
289.16015625 10.927734375 m 5,10,-1
 158.768554688 10.927734375 l 5,11,12
 434.856445312 408.533203125 434.856445312 408.533203125 434.608398438 490.825195312 c 4,13,14
 434.856445312 583.317382812 434.856445312 583.317382812 158.805664062 982.708984375 c 5,15,-1
 289.190429688 982.708984375 l 5,16,17
 622.275390625 572.788085938 622.275390625 572.788085938 622.451171875 491.274414062 c 4,18,19
 622.275390625 409.5859375 622.275390625 409.5859375 289.16015625 10.927734375 c 5,10,-1
EndSplineSet
EndChar

StartChar: exclam
Encoding: 33 33 289
Width: 585
VWidth: -1
Flags: W
LayerCount: 2
Fore
SplineSet
387.969726562 40.087890625 m 128,-1,1
 348.516601562 1.052734375 348.516601562 1.052734375 292.711914062 1.052734375 c 128,-1,2
 236.907226562 1.052734375 236.907226562 1.052734375 196.896484375 41.0634765625 c 128,-1,3
 156.884765625 81.0751953125 156.884765625 81.0751953125 157.938476562 135.827148438 c 128,-1,4
 158.991210938 190.578125 158.991210938 190.578125 197.94921875 229.009765625 c 128,-1,5
 236.907226562 267.44140625 236.907226562 267.44140625 292.711914062 267.44140625 c 128,-1,6
 348.516601562 267.44140625 348.516601562 267.44140625 387.969726562 229.078125 c 128,-1,7
 427.485351562 190.578125 427.485351562 190.578125 427.485351562 134.7734375 c 128,-1,0
 427.485351562 78.96875 427.485351562 78.96875 387.969726562 40.087890625 c 128,-1,1
306.19921875 1525.49316406 m 2,8,9
 414.471532028 1525.49316406 414.471532028 1525.49316406 388.385742188 1226.24804688 c 2,10,-1
 329 545 l 2,11,12
 328 533 328 533 296.795898438 533.3125 c 0,13,14
 266.142984182 533.996807964 266.142984182 533.996807964 265.038085938 545.098632812 c 2,15,-1
 197.266601562 1226.0546875 l 6,16,17
 166.950069797 1525.49316406 166.950069797 1525.49316406 277.228515625 1525.49316406 c 2,18,-1
 306.19921875 1525.49316406 l 2,8,9
EndSplineSet
EndChar

StartChar: period
Encoding: 46 46 290
Width: 586
VWidth: 3440
Flags: W
LayerCount: 2
Fore
SplineSet
387.969726562 40.087890625 m 128,-1,1
 348.516601562 1.052734375 348.516601562 1.052734375 292.711914062 1.052734375 c 128,-1,2
 236.907226562 1.052734375 236.907226562 1.052734375 196.896484375 41.0634765625 c 128,-1,3
 156.884765625 81.0751953125 156.884765625 81.0751953125 157.938476562 135.827148438 c 128,-1,4
 158.991210938 190.578125 158.991210938 190.578125 197.94921875 229.009765625 c 128,-1,5
 236.907226562 267.44140625 236.907226562 267.44140625 292.711914062 267.44140625 c 128,-1,6
 348.516601562 267.44140625 348.516601562 267.44140625 387.969726562 229.078125 c 128,-1,7
 427.485351562 190.578125 427.485351562 190.578125 427.485351562 134.7734375 c 128,-1,0
 427.485351562 78.96875 427.485351562 78.96875 387.969726562 40.087890625 c 128,-1,1
EndSplineSet
EndChar

StartChar: colon
Encoding: 58 58 291
Width: 585
VWidth: 3440
Flags: W
LayerCount: 2
Fore
SplineSet
387.969726562 946.12890625 m 132,-1,1
 348.516601562 907.09375 348.516601562 907.09375 292.711914062 907.09375 c 132,-1,2
 236.907226562 907.09375 236.907226562 907.09375 196.896484375 947.104492188 c 132,-1,3
 156.884765625 987.115234375 156.884765625 987.115234375 157.938476562 1041.8671875 c 132,-1,4
 158.991210938 1096.61914062 158.991210938 1096.61914062 197.94921875 1135.05078125 c 132,-1,5
 236.907226562 1173.48242188 236.907226562 1173.48242188 292.711914062 1173.48242188 c 132,-1,6
 348.516601562 1173.48242188 348.516601562 1173.48242188 387.969726562 1135.11816406 c 132,-1,7
 427.485351562 1096.61914062 427.485351562 1096.61914062 427.485351562 1040.81445312 c 132,-1,0
 427.485351562 985.009765625 427.485351562 985.009765625 387.969726562 946.12890625 c 132,-1,1
387.969726562 40.087890625 m 128,-1,9
 348.516601562 1.052734375 348.516601562 1.052734375 292.711914062 1.052734375 c 128,-1,10
 236.907226562 1.052734375 236.907226562 1.052734375 196.896484375 41.0634765625 c 128,-1,11
 156.884765625 81.0751953125 156.884765625 81.0751953125 157.938476562 135.827148438 c 128,-1,12
 158.991210938 190.578125 158.991210938 190.578125 197.94921875 229.009765625 c 128,-1,13
 236.907226562 267.44140625 236.907226562 267.44140625 292.711914062 267.44140625 c 128,-1,14
 348.516601562 267.44140625 348.516601562 267.44140625 387.969726562 229.078125 c 128,-1,15
 427.485351562 190.578125 427.485351562 190.578125 427.485351562 134.7734375 c 128,-1,8
 427.485351562 78.96875 427.485351562 78.96875 387.969726562 40.087890625 c 128,-1,9
EndSplineSet
EndChar

StartChar: uniFD3E
Encoding: 64830 64830 294
Width: 1557
VWidth: 0
Flags: W
LayerCount: 2
Fore
SplineSet
854.426757812 661.603515625 m 128,-1,1
 854.426757812 692.678710938 854.426757812 692.678710938 832.385742188 714.71875 c 128,-1,2
 810.345703125 736.759765625 810.345703125 736.759765625 779.270507812 736.759765625 c 128,-1,3
 748.196289062 736.759765625 748.196289062 736.759765625 726.155273438 714.71875 c 128,-1,4
 704.114257812 692.678710938 704.114257812 692.678710938 704.114257812 661.603515625 c 128,-1,5
 704.114257812 630.528320312 704.114257812 630.528320312 726.155273438 608.48828125 c 128,-1,6
 748.196289062 586.447265625 748.196289062 586.447265625 779.270507812 586.447265625 c 128,-1,7
 810.345703125 586.447265625 810.345703125 586.447265625 832.385742188 608.48828125 c 128,-1,0
 854.426757812 630.528320312 854.426757812 630.528320312 854.426757812 661.603515625 c 128,-1,1
968.299804688 661.603515625 m 128,-1,9
 968.299804688 583.359375 968.299804688 583.359375 912.90625 527.967773438 c 128,-1,10
 857.513671875 472.57421875 857.513671875 472.57421875 779.270507812 472.57421875 c 128,-1,11
 701.026367188 472.57421875 701.026367188 472.57421875 645.6328125 527.967773438 c 128,-1,12
 590.241210938 583.359375 590.241210938 583.359375 590.241210938 661.603515625 c 128,-1,13
 590.241210938 739.846679688 590.241210938 739.846679688 645.6328125 795.240234375 c 128,-1,14
 701.026367188 850.6328125 701.026367188 850.6328125 779.270507812 850.6328125 c 128,-1,15
 857.513671875 850.6328125 857.513671875 850.6328125 912.90625 795.240234375 c 128,-1,8
 968.299804688 739.846679688 968.299804688 739.846679688 968.299804688 661.603515625 c 128,-1,9
722.241210938 187.095703125 m 0,16,17
 804.702148438 -177.614257812 804.702148438 -177.614257812 1030.03222656 -345.8515625 c 1,18,19
 914.9765625 -142.513671875 914.9765625 -142.513671875 858.104492188 188.807617188 c 0,20,21
 853.118164062 217.858398438 853.118164062 217.858398438 873.959960938 238.702148438 c 2,22,-1
 916.122070312 280.86328125 l 2,23,24
 932.798828125 297.5390625 932.798828125 297.5390625 956.3828125 297.5390625 c 2,25,-1
 1150.99023438 297.5390625 l 1,26,-1
 1150.99023438 492.150390625 l 2,27,28
 1150.99023438 515.735351562 1150.99023438 515.735351562 1167.66796875 532.41015625 c 2,29,-1
 1305.27734375 670.01953125 l 5,30,-1
 1167.66796875 807.62890625 l 2,31,32
 1150.99023438 824.3046875 1150.99023438 824.3046875 1150.99023438 847.888671875 c 2,33,-1
 1150.99023438 1042.49902344 l 1,34,-1
 956.3828125 1042.49902344 l 2,35,36
 932.798828125 1042.49902344 932.798828125 1042.49902344 916.122070312 1059.17480469 c 2,37,-1
 870.866210938 1104.43066406 l 2,38,39
 850.317382812 1124.98046875 850.317382812 1124.98046875 854.904296875 1153.67773438 c 0,40,41
 913.904296875 1522.80273438 913.904296875 1522.80273438 1043.265625 1748.48535156 c 1,42,43
 791.017578125 1567.37695312 791.017578125 1567.37695312 711.524414062 1143.85351562 c 0,44,45
 708.275390625 1126.54785156 708.275390625 1126.54785156 695.825195312 1114.09667969 c 2,46,-1
 640.90234375 1059.17480469 l 2,47,48
 624.227539062 1042.49902344 624.227539062 1042.49902344 600.642578125 1042.49902344 c 2,49,-1
 406.033203125 1042.49902344 l 1,50,-1
 406.033203125 847.888671875 l 2,51,52
 406.033203125 824.3046875 406.033203125 824.3046875 389.357421875 807.62890625 c 2,53,-1
 251.748046875 670.01953125 l 1,54,-1
 389.357421875 532.41015625 l 2,55,56
 406.033203125 515.735351562 406.033203125 515.735351562 406.033203125 492.150390625 c 2,57,-1
 406.033203125 297.5390625 l 1,58,-1
 600.642578125 297.5390625 l 2,59,60
 624.227539062 297.5390625 624.227539062 297.5390625 640.90234375 280.86328125 c 2,61,-1
 706.967773438 214.799804688 l 2,62,63
 718.610351562 203.15625 718.610351562 203.15625 722.241210938 187.095703125 c 0,16,17
614.9140625 145.809570312 m 1,64,65
 577.05859375 183.666992188 l 1,66,-1
 349.09765625 183.666992188 l 2,67,68
 328.97265625 183.666992188 328.97265625 183.666992188 310.56640625 200.009765625 c 128,-1,69
 292.16015625 216.350585938 292.16015625 216.350585938 292.16015625 240.602539062 c 2,70,-1
 292.16015625 468.56640625 l 1,71,-1
 130.966796875 629.7578125 l 2,72,73
 120.19140625 640.534179688 120.19140625 640.534179688 114.09375 663.920898438 c 128,-1,74
 107.99609375 687.30859375 107.99609375 687.30859375 130.966796875 710.280273438 c 2,75,-1
 292.16015625 871.473632812 l 1,76,-1
 292.16015625 1099.43554688 l 2,77,78
 292.16015625 1119.56054688 292.16015625 1119.56054688 308.50390625 1137.96679688 c 128,-1,79
 324.845703125 1156.37207031 324.845703125 1156.37207031 349.09765625 1156.37207031 c 2,80,-1
 577.05859375 1156.37207031 l 1,81,-1
 602.959960938 1182.2734375 l 1,82,83
 728.219726562 1813.65722656 728.219726562 1813.65722656 1220.97558594 1958.58398438 c 0,84,85
 1256.78417969 1972.63964844 1256.78417969 1972.63964844 1274.84667969 1930.55078125 c 0,86,87
 1284.15332031 1908.86230469 1284.15332031 1908.86230469 1275.24121094 1861.74023438 c 1,88,89
 1057.34765625 1664.59960938 1057.34765625 1664.59960938 972.064453125 1164.2734375 c 1,90,-1
 979.966796875 1156.37207031 l 1,91,-1
 1207.92773438 1156.37207031 l 2,92,93
 1228.05273438 1156.37207031 1228.05273438 1156.37207031 1246.45898438 1140.02929688 c 128,-1,94
 1264.86425781 1123.68847656 1264.86425781 1123.68847656 1264.86425781 1099.43554688 c 2,95,-1
 1264.86425781 871.473632812 l 1,96,-1
 1426.05859375 710.280273438 l 6,97,98
 1436.83398438 699.501953125 1436.83398438 699.501953125 1442.93164062 676.115234375 c 132,-1,99
 1449.02929688 652.728515625 1449.02929688 652.728515625 1426.05859375 629.7578125 c 6,100,-1
 1264.86425781 468.56640625 l 1,101,-1
 1264.86425781 240.602539062 l 2,102,103
 1264.86425781 220.477539062 1264.86425781 220.477539062 1248.52148438 202.072265625 c 128,-1,104
 1232.18066406 183.666992188 1232.18066406 183.666992188 1207.92773438 183.666992188 c 2,105,-1
 979.966796875 183.666992188 l 1,106,-1
 975.4609375 179.16015625 l 1,107,108
 1062.61035156 -296.669921875 1062.61035156 -296.669921875 1272.74023438 -465.797851562 c 0,109,110
 1287.86230469 -477.969726562 1287.86230469 -477.969726562 1287.55664062 -492.923828125 c 0,111,112
 1286.79492188 -530.146484375 1286.79492188 -530.146484375 1220.97558594 -564.776367188 c 1,113,114
 750.66796875 -426.450195312 750.66796875 -426.450195312 614.9140625 145.809570312 c 1,64,65
EndSplineSet
EndChar

StartChar: uniFD3F
Encoding: 64831 64831 295
Width: 1557
VWidth: 0
Flags: W
LayerCount: 2
Fore
SplineSet
702.59765625 661.603515625 m 128,-1,1
 702.59765625 630.528320312 702.59765625 630.528320312 724.638671875 608.48828125 c 128,-1,2
 746.6796875 586.447265625 746.6796875 586.447265625 777.754882812 586.447265625 c 128,-1,3
 808.830078125 586.447265625 808.830078125 586.447265625 830.870117188 608.48828125 c 128,-1,4
 852.911132812 630.528320312 852.911132812 630.528320312 852.911132812 661.603515625 c 128,-1,5
 852.911132812 692.678710938 852.911132812 692.678710938 830.870117188 714.71875 c 128,-1,6
 808.830078125 736.759765625 808.830078125 736.759765625 777.754882812 736.759765625 c 128,-1,7
 746.6796875 736.759765625 746.6796875 736.759765625 724.638671875 714.71875 c 128,-1,0
 702.59765625 692.678710938 702.59765625 692.678710938 702.59765625 661.603515625 c 128,-1,1
588.724609375 661.603515625 m 128,-1,9
 588.724609375 739.846679688 588.724609375 739.846679688 644.1171875 795.240234375 c 128,-1,10
 699.51171875 850.6328125 699.51171875 850.6328125 777.754882812 850.6328125 c 128,-1,11
 855.998046875 850.6328125 855.998046875 850.6328125 911.390625 795.240234375 c 128,-1,12
 966.784179688 739.846679688 966.784179688 739.846679688 966.784179688 661.603515625 c 128,-1,13
 966.784179688 583.359375 966.784179688 583.359375 911.390625 527.967773438 c 128,-1,14
 855.998046875 472.57421875 855.998046875 472.57421875 777.754882812 472.57421875 c 128,-1,15
 699.51171875 472.57421875 699.51171875 472.57421875 644.1171875 527.967773438 c 128,-1,8
 588.724609375 583.359375 588.724609375 583.359375 588.724609375 661.603515625 c 128,-1,9
834.783203125 187.095703125 m 0,16,17
 838.4140625 203.15625 838.4140625 203.15625 850.056640625 214.799804688 c 2,18,-1
 916.122070312 280.86328125 l 2,19,20
 932.798828125 297.5390625 932.798828125 297.5390625 956.3828125 297.5390625 c 2,21,-1
 1150.99023438 297.5390625 l 1,22,-1
 1150.99023438 492.150390625 l 2,23,24
 1150.99023438 515.735351562 1150.99023438 515.735351562 1167.66796875 532.41015625 c 2,25,-1
 1305.27734375 670.01953125 l 1,26,-1
 1167.66796875 807.62890625 l 2,27,28
 1150.99023438 824.3046875 1150.99023438 824.3046875 1150.99023438 847.888671875 c 2,29,-1
 1150.99023438 1042.49902344 l 1,30,-1
 956.3828125 1042.49902344 l 2,31,32
 932.798828125 1042.49902344 932.798828125 1042.49902344 916.122070312 1059.17480469 c 2,33,-1
 861.201171875 1114.09667969 l 2,34,35
 848.75 1126.54785156 848.75 1126.54785156 845.501953125 1143.85351562 c 0,36,37
 766.0078125 1567.37695312 766.0078125 1567.37695312 513.759765625 1748.48535156 c 1,38,39
 643.119140625 1522.80273438 643.119140625 1522.80273438 702.120117188 1153.67773438 c 0,40,41
 706.70703125 1124.98046875 706.70703125 1124.98046875 686.157226562 1104.43066406 c 2,42,-1
 640.90234375 1059.17480469 l 2,43,44
 624.227539062 1042.49902344 624.227539062 1042.49902344 600.642578125 1042.49902344 c 2,45,-1
 406.033203125 1042.49902344 l 1,46,-1
 406.033203125 847.888671875 l 2,47,48
 406.033203125 824.3046875 406.033203125 824.3046875 389.357421875 807.62890625 c 2,49,-1
 251.748046875 670.01953125 l 1,50,-1
 389.357421875 532.41015625 l 2,51,52
 406.033203125 515.735351562 406.033203125 515.735351562 406.033203125 492.150390625 c 2,53,-1
 406.033203125 297.5390625 l 1,54,-1
 600.642578125 297.5390625 l 2,55,56
 624.227539062 297.5390625 624.227539062 297.5390625 640.90234375 280.86328125 c 2,57,-1
 683.065429688 238.702148438 l 2,58,59
 703.907226562 217.858398438 703.907226562 217.858398438 698.920898438 188.807617188 c 0,60,61
 642.048828125 -142.513671875 642.048828125 -142.513671875 526.994140625 -345.8515625 c 1,62,63
 752.321289062 -177.614257812 752.321289062 -177.614257812 834.783203125 187.095703125 c 0,16,17
942.109375 145.809570312 m 1,64,65
 806.357421875 -426.450195312 806.357421875 -426.450195312 336.049804688 -564.776367188 c 1,66,67
 270.23046875 -530.146484375 270.23046875 -530.146484375 269.46875 -492.923828125 c 0,68,69
 269.162109375 -477.969726562 269.162109375 -477.969726562 284.284179688 -465.797851562 c 0,70,71
 494.415039062 -296.669921875 494.415039062 -296.669921875 581.564453125 179.16015625 c 1,72,-1
 577.05859375 183.666992188 l 1,73,-1
 349.09765625 183.666992188 l 2,74,75
 324.845703125 183.666992188 324.845703125 183.666992188 308.50390625 202.072265625 c 128,-1,76
 292.16015625 220.477539062 292.16015625 220.477539062 292.16015625 240.602539062 c 2,77,-1
 292.16015625 468.56640625 l 1,78,-1
 130.966796875 629.7578125 l 2,79,80
 107.99609375 652.728515625 107.99609375 652.728515625 114.09375 676.115234375 c 128,-1,81
 120.19140625 699.501953125 120.19140625 699.501953125 130.966796875 710.280273438 c 2,82,-1
 292.16015625 871.473632812 l 1,83,-1
 292.16015625 1099.43554688 l 2,84,85
 292.16015625 1123.68847656 292.16015625 1123.68847656 310.56640625 1140.02929688 c 128,-1,86
 328.97265625 1156.37207031 328.97265625 1156.37207031 349.09765625 1156.37207031 c 2,87,-1
 577.05859375 1156.37207031 l 1,88,-1
 584.9609375 1164.2734375 l 1,89,90
 499.678710938 1664.59960938 499.678710938 1664.59960938 281.784179688 1861.74023438 c 1,91,92
 272.87109375 1908.86230469 272.87109375 1908.86230469 282.178710938 1930.55078125 c 0,93,94
 300.241210938 1972.63964844 300.241210938 1972.63964844 336.049804688 1958.58398438 c 0,95,96
 828.805664062 1813.65722656 828.805664062 1813.65722656 954.064453125 1182.2734375 c 1,97,-1
 979.966796875 1156.37207031 l 1,98,-1
 1207.92773438 1156.37207031 l 2,99,100
 1232.18066406 1156.37207031 1232.18066406 1156.37207031 1248.52148438 1137.96679688 c 128,-1,101
 1264.86425781 1119.56054688 1264.86425781 1119.56054688 1264.86425781 1099.43554688 c 2,102,-1
 1264.86425781 871.473632812 l 1,103,-1
 1426.05859375 710.280273438 l 2,104,105
 1449.02929688 687.30859375 1449.02929688 687.30859375 1442.93164062 663.920898438 c 128,-1,106
 1436.83398438 640.534179688 1436.83398438 640.534179688 1426.05859375 629.7578125 c 2,107,-1
 1264.86425781 468.56640625 l 1,108,-1
 1264.86425781 240.602539062 l 2,109,110
 1264.86425781 216.350585938 1264.86425781 216.350585938 1246.45898438 200.009765625 c 128,-1,111
 1228.05273438 183.666992188 1228.05273438 183.666992188 1207.92773438 183.666992188 c 2,112,-1
 979.966796875 183.666992188 l 1,113,-1
 942.109375 145.809570312 l 1,64,65
EndSplineSet
EndChar

StartChar: NameMe.303
Encoding: 65562 -1 296
Width: 554
VWidth: 3764
Flags: W
LayerCount: 2
Fore
SplineSet
16.0615234375 199.001953125 m 6,0,1
 201.107421875 199.001953125 201.107421875 199.001953125 260.442382812 288.028320312 c 0,2,3
 290.60546875 331.669921875 290.60546875 331.669921875 285.225585938 469.591796875 c 0,4,5
 259.731445312 1123.05957031 259.731445312 1123.05957031 214.795898438 1347.73730469 c 1,6,-1
 359.708984375 1516.91894531 l 2,7,8
 383.30078125 1544.46191406 383.30078125 1544.46191406 393.567382812 1497.3984375 c 2,9,-1
 441.59765625 1268.35058594 l 2,10,11
 457.694335938 1191.58984375 457.694335938 1191.58984375 423.37890625 1158.37011719 c 2,12,-1
 378.658203125 1114.47558594 l 1,13,-1
 405.239257812 548.3671875 l 2,14,15
 416.767578125 302.857421875 416.767578125 302.857421875 354.985351562 177.720703125 c 0,16,17
 267.44140625 0 267.44140625 0 16.041015625 0 c 6,18,-1
 -5.2646484375 0 l 6,19,20
 -84.2333984375 0 -84.2333984375 0 -84.2080078125 93.7099609375 c 6,21,-1
 -84.2080078125 104.239257812 l 6,22,23
 -84.2333984375 199.001953125 -84.2333984375 199.001953125 -5.2646484375 199.001953125 c 6,24,-1
 16.0615234375 199.001953125 l 6,0,1
EndSplineSet
EndChar

StartChar: NameMe.304
Encoding: 65563 -1 297
Width: 677
VWidth: 3764
Flags: W
LayerCount: 2
Fore
SplineSet
640.17578125 0 m 2,0,1
 439 0 439 0 349.173828125 149.841796875 c 1,2,3
 237 0 237 0 65.52734375 0 c 2,4,-1
 -5.2646484375 0 l 2,5,6
 -84.2080078125 0 -84.2080078125 0 -84.2080078125 93.7099609375 c 2,7,-1
 -84.2080078125 104.239257812 l 2,8,9
 -83.9999957127 199.001953125 -83.9999957127 199.001953125 -5.2646484375 199.001953125 c 2,10,-1
 65.548828125 199.001953125 l 2,11,12
 305 199 305 199 297.490234375 429.390625 c 0,13,14
 281 892 281 892 242.61328125 1143.10449219 c 1,15,-1
 357.887695312 1261.27050781 l 2,16,17
 410.950195312 1315.94867884 410.950195312 1315.94867884 410.950195312 1235.28613281 c 2,18,-1
 410.950195312 424.703125 l 2,19,20
 410.999999569 199.001953125 410.999999569 199.001953125 639.743164062 199.001953125 c 2,21,-1
 681.61328125 199.001953125 l 2,22,23
 720.356445312 198.999981864 720.356445312 198.999981864 720.356445312 102.1328125 c 6,24,-1
 720.356445312 94.7626953125 l 6,25,26
 720 0 720 0 681.61328125 0 c 2,27,-1
 640.17578125 0 l 2,0,1
EndSplineSet
EndChar

StartChar: NameMe.306
Encoding: 65566 -1 299
Width: 588
VWidth: 3764
Flags: W
LayerCount: 2
Fore
SplineSet
572.788085938 0 m 2,0,1
 322 0 322 0 249.016601562 130.140625 c 0,2,3
 199 219 199 219 201.64453125 529.239257812 c 0,4,5
 206 1032 206 1032 173.521484375 1308.34179688 c 1,6,-1
 285.541992188 1426.03710938 l 2,7,8
 336 1479 336 1479 336.456054688 1399.43945312 c 0,9,10
 341 815 341 815 327.487304688 616.696289062 c 0,11,12
 310 348 310 348 351.586914062 281.793945312 c 0,13,14
 402.998787155 199.001953125 402.998787155 199.001953125 572.356445312 199.001953125 c 2,15,-1
 593.16796875 199.001953125 l 2,16,17
 631.911132812 199.00000447 631.911132812 199.00000447 631.911132812 102.1328125 c 6,18,-1
 631.911132812 94.7626953125 l 6,19,20
 632 0 632 0 593.16796875 0 c 2,21,-1
 572.788085938 0 l 2,0,1
EndSplineSet
EndChar

StartChar: uni06C1
Encoding: 1729 1729 300
Width: 981
VWidth: 2552
Flags: W
AnchorPoint: "Anchor-7" 379.984 -289.025 basechar 0
AnchorPoint: "Anchor-10" 556.737 1048.69 basechar 0
LayerCount: 2
Fore
SplineSet
108.90234375 -92.3916015625 m 1,0,1
 215.848632812 368.522460938 215.848632812 368.522460938 400.109375 551.51953125 c 0,2,3
 483.290039062 634.911132812 483.290039062 634.911132812 582.065429688 640.033203125 c 0,4,5
 719.14453125 646.493164062 719.14453125 646.493164062 735.06640625 521.598632812 c 0,6,7
 741.255859375 473.814453125 741.255859375 473.814453125 752.0859375 292.921875 c 0,8,9
 758.099609375 190.624023438 758.099609375 190.624023438 901.584960938 190.591796875 c 2,10,-1
 993.142578125 190.571289062 l 1,11,-1
 993.142578125 0 l 1,12,-1
 887.5625 0 l 2,13,14
 639.122070312 0 639.122070312 0 633.3203125 319.508789062 c 0,15,16
 630.69921875 465.390625 630.69921875 465.390625 627.540039062 469.602539062 c 1,17,18
 356.939453125 348.516601562 356.939453125 348.516601562 182.53125 -116.267578125 c 1,19,-1
 108.90234375 -92.3916015625 l 1,0,1
EndSplineSet
EndChar

StartChar: NameMe.65567
Encoding: 65567 -1 304
Width: 713
VWidth: 3943
Flags: W
LayerCount: 2
Fore
SplineSet
181.517578125 14.6171875 m 5,0,1
 233.469726562 -10.271484375 233.469726562 -10.271484375 303.014648438 -10.0908203125 c 4,2,3
 449.469726562 -8.671875 449.469726562 -8.671875 490.060546875 39.865234375 c 4,4,5
 510.26953125 64.1279296875 510.26953125 64.1279296875 485.46484375 78.1865234375 c 4,6,7
 471.069335938 86.5283203125 471.069335938 86.5283203125 371.12890625 112.869140625 c 4,8,9
 313.469726562 128.127929688 313.469726562 128.127929688 334.067382812 198.6171875 c 4,10,11
 376.669921875 343.328125 376.669921875 343.328125 471.4375 381.99609375 c 4,12,13
 531.869140625 406.528320312 531.869140625 406.528320312 602.0703125 384.45703125 c 5,14,15
 599.069335938 351.328125 599.069335938 351.328125 583.634765625 287.2734375 c 5,16,-1
 557.309570312 288.55078125 l 6,17,18
 465.469726562 292.928710938 465.469726562 292.928710938 425.123046875 252.971679688 c 4,19,20
 394.26953125 223.328125 394.26953125 223.328125 376.740234375 183.493164062 c 5,21,-1
 501.94921875 155.1171875 l 6,22,23
 550.26953125 144.127929688 550.26953125 144.127929688 550.180664062 91.5 c 4,24,25
 549.469726562 28.9287109375 549.469726562 28.9287109375 511.655273438 -21.0947265625 c 4,26,27
 449.469726562 -103.071289062 449.469726562 -103.071289062 300.8046875 -103.173828125 c 4,28,29
 215.069335938 -103.071289062 215.069335938 -103.071289062 148.625 -76.1279296875 c 5,30,-1
 181.517578125 14.6171875 l 5,0,1
EndSplineSet
EndChar
